<svg width="307" height="239" viewBox="0 0 307 239" fill="none" xmlns="http://www.w3.org/2000/svg">
<g opacity="0.4">
<mask id="path-1-inside-1_249_87" fill="white">
<path d="M5.97708 103.436C2.74729 101.587 1.14343 99.1474 1.14343 96.7148L1.31346 40.263C1.30606 37.8452 2.8877 35.4423 6.06579 33.6086L55.9399 4.77265C62.3109 1.07578 72.6729 1.07578 79.081 4.77265L129.28 33.6086C132.71 35.605 134.299 38.2002 134.077 40.7807C134.082 40.7229 134.093 40.6508 134.104 40.575C134.123 40.45 134.143 40.3142 134.143 40.2173L133.907 96.8479V96.9958C133.907 97.0567 133.9 97.0998 133.892 97.1544C133.885 97.1991 133.877 97.252 133.87 97.3285C133.869 97.344 133.867 97.3594 133.865 97.375L133.862 97.4032L133.858 97.4317C133.853 97.4652 133.848 97.4989 133.843 97.5325C133.827 97.6346 133.811 97.7366 133.811 97.8387C133.807 97.8682 133.807 97.8979 133.811 97.9274C133.798 97.99 133.783 98.0361 133.765 98.0936C133.759 98.1107 133.754 98.1288 133.747 98.1486L133.738 98.1802C133.731 98.204 133.723 98.2303 133.715 98.2602C133.705 98.2971 133.695 98.3341 133.685 98.3712C133.653 98.4953 133.62 98.6219 133.574 98.7407C133.574 98.7534 133.579 98.7573 133.583 98.7613C133.591 98.7688 133.599 98.7761 133.574 98.8443C133.556 98.897 133.539 98.9286 133.517 98.9695C133.496 99.0088 133.47 99.0567 133.434 99.14C133.36 99.31 133.286 99.4802 133.197 99.6501C133.138 99.6872 133.138 99.7315 133.138 99.7685C133.027 99.9642 132.906 100.154 132.776 100.338L132.695 100.449L132.48 100.744L132.163 101.114L132.052 101.24C131.867 101.44 131.675 101.639 131.46 101.831L131.364 101.913L130.862 102.327C130.824 102.358 130.787 102.387 130.752 102.417C130.644 102.505 130.543 102.589 130.404 102.689C130.219 102.822 129.96 102.992 129.812 103.081C129.738 103.125 129.67 103.173 129.602 103.221C129.533 103.269 129.465 103.318 129.391 103.362L129.191 103.48L79.3175 132.331C78.9478 132.538 78.5931 132.73 78.2088 132.915L77.9131 133.055C77.6027 133.211 77.2258 133.359 76.8637 133.499L76.7233 133.551C76.398 133.677 76.0654 133.795 75.7329 133.906L74.7054 134.194L74.0625 134.364C73.7669 134.438 73.4638 134.497 73.1608 134.556C73.1005 134.569 73.0413 134.586 72.9822 134.603C72.8672 134.635 72.7532 134.667 72.6361 134.667H72.54C71.9339 134.778 71.313 134.86 70.6847 134.926H70.1009L68.9997 135H66.642L65.8142 134.956H65.4447L65.053 134.911C64.7794 134.889 64.5134 134.86 64.2398 134.823C64.1142 134.778 63.9812 134.778 63.8557 134.778L62.6435 134.571L62.237 134.497C62.1954 134.491 62.1552 134.478 62.1159 134.464C62.0642 134.447 62.0139 134.431 61.9636 134.431C61.6161 134.357 61.2836 134.275 60.9436 134.187L60.5223 134.083L60.2932 134.009L59.9458 133.906C59.6133 133.802 59.2806 133.684 58.9554 133.566L58.6671 133.462L58.5341 133.418L57.7951 133.092L57.3737 132.915C56.9599 132.715 56.5608 132.508 56.1764 132.287L5.97708 103.436Z"/>
</mask>
<path d="M5.97708 103.436C2.74729 101.587 1.14343 99.1474 1.14343 96.7148L1.31346 40.263C1.30606 37.8452 2.8877 35.4423 6.06579 33.6086L55.9399 4.77265C62.3109 1.07578 72.6729 1.07578 79.081 4.77265L129.28 33.6086C132.71 35.605 134.299 38.2002 134.077 40.7807C134.082 40.7229 134.093 40.6508 134.104 40.575C134.123 40.45 134.143 40.3142 134.143 40.2173L133.907 96.8479V96.9958C133.907 97.0567 133.9 97.0998 133.892 97.1544C133.885 97.1991 133.877 97.252 133.87 97.3285C133.869 97.344 133.867 97.3594 133.865 97.375L133.862 97.4032L133.858 97.4317C133.853 97.4652 133.848 97.4989 133.843 97.5325C133.827 97.6346 133.811 97.7366 133.811 97.8387C133.807 97.8682 133.807 97.8979 133.811 97.9274C133.798 97.99 133.783 98.0361 133.765 98.0936C133.759 98.1107 133.754 98.1288 133.747 98.1486L133.738 98.1802C133.731 98.204 133.723 98.2303 133.715 98.2602C133.705 98.2971 133.695 98.3341 133.685 98.3712C133.653 98.4953 133.62 98.6219 133.574 98.7407C133.574 98.7534 133.579 98.7573 133.583 98.7613C133.591 98.7688 133.599 98.7761 133.574 98.8443C133.556 98.897 133.539 98.9286 133.517 98.9695C133.496 99.0088 133.47 99.0567 133.434 99.14C133.36 99.31 133.286 99.4802 133.197 99.6501C133.138 99.6872 133.138 99.7315 133.138 99.7685C133.027 99.9642 132.906 100.154 132.776 100.338L132.695 100.449L132.48 100.744L132.163 101.114L132.052 101.24C131.867 101.44 131.675 101.639 131.46 101.831L131.364 101.913L130.862 102.327C130.824 102.358 130.787 102.387 130.752 102.417C130.644 102.505 130.543 102.589 130.404 102.689C130.219 102.822 129.96 102.992 129.812 103.081C129.738 103.125 129.67 103.173 129.602 103.221C129.533 103.269 129.465 103.318 129.391 103.362L129.191 103.48L79.3175 132.331C78.9478 132.538 78.5931 132.73 78.2088 132.915L77.9131 133.055C77.6027 133.211 77.2258 133.359 76.8637 133.499L76.7233 133.551C76.398 133.677 76.0654 133.795 75.7329 133.906L74.7054 134.194L74.0625 134.364C73.7669 134.438 73.4638 134.497 73.1608 134.556C73.1005 134.569 73.0413 134.586 72.9822 134.603C72.8672 134.635 72.7532 134.667 72.6361 134.667H72.54C71.9339 134.778 71.313 134.86 70.6847 134.926H70.1009L68.9997 135H66.642L65.8142 134.956H65.4447L65.053 134.911C64.7794 134.889 64.5134 134.86 64.2398 134.823C64.1142 134.778 63.9812 134.778 63.8557 134.778L62.6435 134.571L62.237 134.497C62.1954 134.491 62.1552 134.478 62.1159 134.464C62.0642 134.447 62.0139 134.431 61.9636 134.431C61.6161 134.357 61.2836 134.275 60.9436 134.187L60.5223 134.083L60.2932 134.009L59.9458 133.906C59.6133 133.802 59.2806 133.684 58.9554 133.566L58.6671 133.462L58.5341 133.418L57.7951 133.092L57.3737 132.915C56.9599 132.715 56.5608 132.508 56.1764 132.287L5.97708 103.436Z" stroke="#A0A0AB" stroke-width="5" mask="url(#path-1-inside-1_249_87)"/>
</g>
<mask id="path-2-inside-2_249_87" fill="white">
<path d="M5.75538 45.2592L55.9547 74.0839C56.339 74.3056 56.7381 74.5126 57.152 74.7047L57.5733 74.8895L58.3124 75.2147L58.4454 75.259L58.7337 75.3625L59.724 75.7025L60.0492 75.8355L60.2784 75.9094L60.6996 76.0129C61.0396 76.1016 61.3722 76.1829 61.7196 76.2568C61.8083 76.2568 61.897 76.3086 61.9931 76.3233L62.3996 76.3972L63.2643 76.5451L63.6117 76.6042C63.7373 76.6042 63.8704 76.6042 63.996 76.6485C64.2695 76.6485 64.5355 76.7151 64.809 76.7372L65.2007 76.7816H65.5703L66.3981 76.8259H66.812H68.4897H68.7558C69.1253 76.8259 69.4949 76.8259 69.857 76.752H70.3079H70.4409C71.0691 76.6855 71.69 76.6042 72.296 76.4933H72.3921C72.5695 76.4933 72.7395 76.4194 72.9169 76.3825C73.2199 76.3233 73.5229 76.2642 73.8186 76.1903L74.4616 76.0203L75.3041 75.7838L75.4889 75.7321C75.8215 75.6212 76.1541 75.5029 76.4793 75.3773L76.6197 75.3256C76.9819 75.1851 77.3588 75.0373 77.6692 74.8747L77.9649 74.7343C78.3492 74.5569 78.7188 74.3647 79.0735 74.1578L128.948 45.3331L129.147 45.2148C129.295 45.1188 129.421 45.0227 129.568 44.934C129.716 44.8453 129.975 44.6753 130.16 44.5423C130.344 44.4092 130.463 44.2984 130.618 44.1801L131.121 43.7662L131.217 43.6849C131.431 43.4928 131.623 43.2932 131.808 43.0937L131.919 42.968L132.237 42.5985L132.451 42.3028L132.532 42.192C132.662 42.0085 132.783 41.8185 132.894 41.6228C132.894 41.6228 132.894 41.5415 132.953 41.5046C133.042 41.3346 133.116 41.1646 133.19 40.9946C133.264 40.8246 133.293 40.8025 133.33 40.699C133.367 40.5955 133.33 40.6325 133.33 40.5955C133.39 40.4403 133.427 40.2777 133.471 40.1151C133.515 39.9525 133.545 39.8934 133.567 39.7825C133.563 39.7531 133.563 39.7233 133.567 39.6938C133.567 39.5238 133.611 39.3538 133.626 39.1838C133.641 39.0138 133.663 38.9621 133.663 38.8512C133.153 36.9296 131.616 35.0745 129.036 33.5963L78.837 4.7716C72.4291 1.07613 62.067 1.07613 55.696 4.7716L5.8219 33.5963C2.76205 35.3258 1.19517 37.6761 1.14343 40.0338C1.6608 41.9481 3.19072 43.7884 5.75538 45.2592Z"/>
</mask>
<path d="M5.75538 45.2592L55.9547 74.0839C56.339 74.3056 56.7381 74.5126 57.152 74.7047L57.5733 74.8895L58.3124 75.2147L58.4454 75.259L58.7337 75.3625L59.724 75.7025L60.0492 75.8355L60.2784 75.9094L60.6996 76.0129C61.0396 76.1016 61.3722 76.1829 61.7196 76.2568C61.8083 76.2568 61.897 76.3086 61.9931 76.3233L62.3996 76.3972L63.2643 76.5451L63.6117 76.6042C63.7373 76.6042 63.8704 76.6042 63.996 76.6485C64.2695 76.6485 64.5355 76.7151 64.809 76.7372L65.2007 76.7816H65.5703L66.3981 76.8259H66.812H68.4897H68.7558C69.1253 76.8259 69.4949 76.8259 69.857 76.752H70.3079H70.4409C71.0691 76.6855 71.69 76.6042 72.296 76.4933H72.3921C72.5695 76.4933 72.7395 76.4194 72.9169 76.3825C73.2199 76.3233 73.5229 76.2642 73.8186 76.1903L74.4616 76.0203L75.3041 75.7838L75.4889 75.7321C75.8215 75.6212 76.1541 75.5029 76.4793 75.3773L76.6197 75.3256C76.9819 75.1851 77.3588 75.0373 77.6692 74.8747L77.9649 74.7343C78.3492 74.5569 78.7188 74.3647 79.0735 74.1578L128.948 45.3331L129.147 45.2148C129.295 45.1188 129.421 45.0227 129.568 44.934C129.716 44.8453 129.975 44.6753 130.16 44.5423C130.344 44.4092 130.463 44.2984 130.618 44.1801L131.121 43.7662L131.217 43.6849C131.431 43.4928 131.623 43.2932 131.808 43.0937L131.919 42.968L132.237 42.5985L132.451 42.3028L132.532 42.192C132.662 42.0085 132.783 41.8185 132.894 41.6228C132.894 41.6228 132.894 41.5415 132.953 41.5046C133.042 41.3346 133.116 41.1646 133.19 40.9946C133.264 40.8246 133.293 40.8025 133.33 40.699C133.367 40.5955 133.33 40.6325 133.33 40.5955C133.39 40.4403 133.427 40.2777 133.471 40.1151C133.515 39.9525 133.545 39.8934 133.567 39.7825C133.563 39.7531 133.563 39.7233 133.567 39.6938C133.567 39.5238 133.611 39.3538 133.626 39.1838C133.641 39.0138 133.663 38.9621 133.663 38.8512C133.153 36.9296 131.616 35.0745 129.036 33.5963L78.837 4.7716C72.4291 1.07613 62.067 1.07613 55.696 4.7716L5.8219 33.5963C2.76205 35.3258 1.19517 37.6761 1.14343 40.0338C1.6608 41.9481 3.19072 43.7884 5.75538 45.2592Z" fill="url(#paint0_linear_249_87)" fill-opacity="0.15" stroke="url(#paint1_radial_249_87)" stroke-width="5" mask="url(#path-2-inside-2_249_87)"/>
<g clip-path="url(#clip0_249_87)">
<path opacity="0.4" d="M81.9627 43.2874L85.2153 41.4097C86.7993 40.4953 87.5913 40.038 87.8881 39.5108C88.1491 39.047 88.1491 38.5474 87.8881 38.0837C87.5913 37.5564 86.7993 37.0992 85.2153 36.1848L68.811 26.7145C67.227 25.8001 66.435 25.3428 65.5217 25.1715C64.7183 25.0208 63.853 25.0208 63.0496 25.1715C62.1363 25.3428 61.3443 25.8001 59.7603 26.7145L46.1843 34.552C44.6003 35.4664 43.8083 35.9236 43.5115 36.4509C43.2505 36.9146 43.2505 37.4142 43.5115 37.878C43.8083 38.4052 44.6003 38.8625 46.1843 39.7769L62.5886 49.2471C64.1727 50.1616 64.9647 50.6188 65.8779 50.7901C66.6813 50.9408 67.5467 50.9408 68.35 50.7901C69.2633 50.6188 70.0553 50.1616 71.6393 49.2471L74.8919 47.3694" stroke="#8A54FE" stroke-width="3" stroke-linecap="round" stroke-linejoin="round"/>
<path d="M74.1846 46.9614C74.8417 47.3407 75.1703 47.5304 75.4979 47.6567C76.843 48.1756 78.5971 48.1756 79.9423 47.6567C80.2698 47.5304 80.5984 47.3407 81.2555 46.9614C81.9126 46.582 82.2411 46.3923 82.46 46.2032C83.3588 45.4267 83.3588 44.414 82.46 43.6375C82.2411 43.4484 81.9126 43.2587 81.2555 42.8794L78.4271 41.2466C77.77 40.8672 77.4415 40.6775 77.1139 40.5512C75.7688 40.0323 74.0147 40.0323 72.6695 40.5512C72.342 40.6775 72.0134 40.8672 71.3563 41.2466C70.6992 41.6259 70.3707 41.8156 70.1518 42.0047C69.253 42.7812 69.253 43.7939 70.1518 44.5704C70.3707 44.7595 70.6992 44.9492 71.3563 45.3286L74.1846 46.9614Z" stroke="#8A54FE" stroke-width="3" stroke-linecap="round" stroke-linejoin="round"/>
</g>
<g opacity="0.4">
<mask id="path-5-inside-3_249_87" fill="white">
<path d="M177.977 201.436C174.747 199.587 173.143 197.147 173.143 194.715L173.313 138.263C173.306 135.845 174.888 133.442 178.066 131.609L227.94 102.773C234.311 99.0758 244.673 99.0758 251.081 102.773L301.28 131.609C304.71 133.605 306.299 136.2 306.077 138.781C306.082 138.723 306.093 138.651 306.104 138.575C306.123 138.45 306.143 138.314 306.143 138.217L305.907 194.848V194.996C305.907 195.057 305.9 195.1 305.892 195.154C305.885 195.199 305.877 195.252 305.87 195.329C305.869 195.344 305.867 195.359 305.865 195.375L305.862 195.403L305.858 195.432C305.853 195.465 305.848 195.499 305.843 195.533C305.827 195.635 305.811 195.737 305.811 195.839C305.807 195.868 305.807 195.898 305.811 195.927C305.798 195.99 305.783 196.036 305.765 196.094C305.759 196.111 305.754 196.129 305.747 196.149L305.738 196.18C305.731 196.204 305.723 196.23 305.715 196.26C305.705 196.297 305.695 196.334 305.685 196.371C305.653 196.495 305.62 196.622 305.574 196.741C305.574 196.753 305.579 196.757 305.583 196.761C305.591 196.769 305.599 196.776 305.574 196.844C305.556 196.897 305.539 196.929 305.517 196.969C305.496 197.009 305.47 197.057 305.434 197.14C305.36 197.31 305.286 197.48 305.197 197.65C305.138 197.687 305.138 197.731 305.138 197.769C305.027 197.964 304.906 198.154 304.776 198.338L304.695 198.449L304.48 198.744L304.163 199.114L304.052 199.24C303.867 199.44 303.675 199.639 303.46 199.831L303.364 199.913L302.862 200.327C302.824 200.358 302.787 200.387 302.752 200.417C302.644 200.505 302.543 200.589 302.404 200.689C302.219 200.822 301.96 200.992 301.812 201.081C301.738 201.125 301.67 201.173 301.602 201.221C301.533 201.269 301.465 201.318 301.391 201.362L301.191 201.48L251.318 230.331C250.948 230.538 250.593 230.73 250.209 230.915L249.913 231.055C249.603 231.211 249.226 231.359 248.864 231.499L248.723 231.551C248.398 231.677 248.065 231.795 247.733 231.906L246.705 232.194L246.062 232.364C245.767 232.438 245.464 232.497 245.161 232.556C245.101 232.569 245.041 232.586 244.982 232.603C244.867 232.635 244.753 232.667 244.636 232.667H244.54C243.934 232.778 243.313 232.86 242.685 232.926H242.101L241 233H238.642L237.814 232.956H237.445L237.053 232.911C236.779 232.889 236.513 232.86 236.24 232.823C236.114 232.778 235.981 232.778 235.856 232.778L234.644 232.571L234.237 232.497C234.195 232.491 234.155 232.478 234.116 232.464C234.064 232.447 234.014 232.431 233.964 232.431C233.616 232.357 233.284 232.275 232.944 232.187L232.522 232.083L232.293 232.009L231.946 231.906C231.613 231.802 231.281 231.684 230.955 231.566L230.667 231.462L230.534 231.418L229.795 231.092L229.374 230.915C228.96 230.715 228.561 230.508 228.176 230.287L177.977 201.436Z"/>
</mask>
<path d="M177.977 201.436C174.747 199.587 173.143 197.147 173.143 194.715L173.313 138.263C173.306 135.845 174.888 133.442 178.066 131.609L227.94 102.773C234.311 99.0758 244.673 99.0758 251.081 102.773L301.28 131.609C304.71 133.605 306.299 136.2 306.077 138.781C306.082 138.723 306.093 138.651 306.104 138.575C306.123 138.45 306.143 138.314 306.143 138.217L305.907 194.848V194.996C305.907 195.057 305.9 195.1 305.892 195.154C305.885 195.199 305.877 195.252 305.87 195.329C305.869 195.344 305.867 195.359 305.865 195.375L305.862 195.403L305.858 195.432C305.853 195.465 305.848 195.499 305.843 195.533C305.827 195.635 305.811 195.737 305.811 195.839C305.807 195.868 305.807 195.898 305.811 195.927C305.798 195.99 305.783 196.036 305.765 196.094C305.759 196.111 305.754 196.129 305.747 196.149L305.738 196.18C305.731 196.204 305.723 196.23 305.715 196.26C305.705 196.297 305.695 196.334 305.685 196.371C305.653 196.495 305.62 196.622 305.574 196.741C305.574 196.753 305.579 196.757 305.583 196.761C305.591 196.769 305.599 196.776 305.574 196.844C305.556 196.897 305.539 196.929 305.517 196.969C305.496 197.009 305.47 197.057 305.434 197.14C305.36 197.31 305.286 197.48 305.197 197.65C305.138 197.687 305.138 197.731 305.138 197.769C305.027 197.964 304.906 198.154 304.776 198.338L304.695 198.449L304.48 198.744L304.163 199.114L304.052 199.24C303.867 199.44 303.675 199.639 303.46 199.831L303.364 199.913L302.862 200.327C302.824 200.358 302.787 200.387 302.752 200.417C302.644 200.505 302.543 200.589 302.404 200.689C302.219 200.822 301.96 200.992 301.812 201.081C301.738 201.125 301.67 201.173 301.602 201.221C301.533 201.269 301.465 201.318 301.391 201.362L301.191 201.48L251.318 230.331C250.948 230.538 250.593 230.73 250.209 230.915L249.913 231.055C249.603 231.211 249.226 231.359 248.864 231.499L248.723 231.551C248.398 231.677 248.065 231.795 247.733 231.906L246.705 232.194L246.062 232.364C245.767 232.438 245.464 232.497 245.161 232.556C245.101 232.569 245.041 232.586 244.982 232.603C244.867 232.635 244.753 232.667 244.636 232.667H244.54C243.934 232.778 243.313 232.86 242.685 232.926H242.101L241 233H238.642L237.814 232.956H237.445L237.053 232.911C236.779 232.889 236.513 232.86 236.24 232.823C236.114 232.778 235.981 232.778 235.856 232.778L234.644 232.571L234.237 232.497C234.195 232.491 234.155 232.478 234.116 232.464C234.064 232.447 234.014 232.431 233.964 232.431C233.616 232.357 233.284 232.275 232.944 232.187L232.522 232.083L232.293 232.009L231.946 231.906C231.613 231.802 231.281 231.684 230.955 231.566L230.667 231.462L230.534 231.418L229.795 231.092L229.374 230.915C228.96 230.715 228.561 230.508 228.176 230.287L177.977 201.436Z" stroke="#A0A0AB" stroke-width="5" mask="url(#path-5-inside-3_249_87)"/>
</g>
<mask id="path-6-inside-4_249_87" fill="white">
<path d="M177.755 143.259L227.955 172.084C228.339 172.306 228.738 172.513 229.152 172.705L229.573 172.889L230.312 173.215L230.445 173.259L230.734 173.363L231.724 173.702L232.049 173.836L232.278 173.909L232.7 174.013C233.04 174.102 233.372 174.183 233.72 174.257C233.808 174.257 233.897 174.309 233.993 174.323L234.4 174.397L235.264 174.545L235.612 174.604C235.737 174.604 235.87 174.604 235.996 174.649C236.269 174.649 236.536 174.715 236.809 174.737L237.201 174.782H237.57L238.398 174.826H238.812H240.49H240.756C241.125 174.826 241.495 174.826 241.857 174.752H242.308H242.441C243.069 174.685 243.69 174.604 244.296 174.493H244.392C244.569 174.493 244.739 174.419 244.917 174.382C245.22 174.323 245.523 174.264 245.819 174.19L246.462 174.02L247.304 173.784L247.489 173.732C247.822 173.621 248.154 173.503 248.479 173.377L248.62 173.326C248.982 173.185 249.359 173.037 249.669 172.875L249.965 172.734C250.349 172.557 250.719 172.365 251.074 172.158L300.948 143.333L301.147 143.215C301.295 143.119 301.421 143.023 301.568 142.934C301.716 142.845 301.975 142.675 302.16 142.542C302.344 142.409 302.463 142.298 302.618 142.18L303.121 141.766L303.217 141.685C303.431 141.493 303.623 141.293 303.808 141.094L303.919 140.968L304.237 140.598L304.451 140.303L304.532 140.192C304.662 140.008 304.783 139.819 304.894 139.623C304.894 139.623 304.894 139.542 304.953 139.505C305.042 139.335 305.116 139.165 305.19 138.995C305.264 138.825 305.293 138.802 305.33 138.699C305.367 138.596 305.33 138.632 305.33 138.596C305.39 138.44 305.427 138.278 305.471 138.115C305.515 137.952 305.545 137.893 305.567 137.783C305.563 137.753 305.563 137.723 305.567 137.694C305.567 137.524 305.611 137.354 305.626 137.184C305.641 137.014 305.663 136.962 305.663 136.851C305.153 134.93 303.616 133.074 301.036 131.596L250.837 102.772C244.429 99.0761 234.067 99.0761 227.696 102.772L177.822 131.596C174.762 133.326 173.195 135.676 173.143 138.034C173.661 139.948 175.191 141.788 177.755 143.259Z"/>
</mask>
<path d="M177.755 143.259L227.955 172.084C228.339 172.306 228.738 172.513 229.152 172.705L229.573 172.889L230.312 173.215L230.445 173.259L230.734 173.363L231.724 173.702L232.049 173.836L232.278 173.909L232.7 174.013C233.04 174.102 233.372 174.183 233.72 174.257C233.808 174.257 233.897 174.309 233.993 174.323L234.4 174.397L235.264 174.545L235.612 174.604C235.737 174.604 235.87 174.604 235.996 174.649C236.269 174.649 236.536 174.715 236.809 174.737L237.201 174.782H237.57L238.398 174.826H238.812H240.49H240.756C241.125 174.826 241.495 174.826 241.857 174.752H242.308H242.441C243.069 174.685 243.69 174.604 244.296 174.493H244.392C244.569 174.493 244.739 174.419 244.917 174.382C245.22 174.323 245.523 174.264 245.819 174.19L246.462 174.02L247.304 173.784L247.489 173.732C247.822 173.621 248.154 173.503 248.479 173.377L248.62 173.326C248.982 173.185 249.359 173.037 249.669 172.875L249.965 172.734C250.349 172.557 250.719 172.365 251.074 172.158L300.948 143.333L301.147 143.215C301.295 143.119 301.421 143.023 301.568 142.934C301.716 142.845 301.975 142.675 302.16 142.542C302.344 142.409 302.463 142.298 302.618 142.18L303.121 141.766L303.217 141.685C303.431 141.493 303.623 141.293 303.808 141.094L303.919 140.968L304.237 140.598L304.451 140.303L304.532 140.192C304.662 140.008 304.783 139.819 304.894 139.623C304.894 139.623 304.894 139.542 304.953 139.505C305.042 139.335 305.116 139.165 305.19 138.995C305.264 138.825 305.293 138.802 305.33 138.699C305.367 138.596 305.33 138.632 305.33 138.596C305.39 138.44 305.427 138.278 305.471 138.115C305.515 137.952 305.545 137.893 305.567 137.783C305.563 137.753 305.563 137.723 305.567 137.694C305.567 137.524 305.611 137.354 305.626 137.184C305.641 137.014 305.663 136.962 305.663 136.851C305.153 134.93 303.616 133.074 301.036 131.596L250.837 102.772C244.429 99.0761 234.067 99.0761 227.696 102.772L177.822 131.596C174.762 133.326 173.195 135.676 173.143 138.034C173.661 139.948 175.191 141.788 177.755 143.259Z" fill="url(#paint2_linear_249_87)" fill-opacity="0.15" stroke="url(#paint3_radial_249_87)" stroke-width="5" mask="url(#path-6-inside-4_249_87)"/>
<g clip-path="url(#clip1_249_87)">
<path opacity="0.4" d="M247.713 128.512C251.248 128.533 254.772 129.322 257.469 130.879C262.937 134.035 262.937 139.153 257.469 142.309C254.772 143.866 251.248 144.655 247.713 144.676" stroke="#FE9154" stroke-width="3" stroke-linecap="round" stroke-linejoin="round"/>
<path d="M220.7 142.309C226.167 145.465 235.031 145.465 240.499 142.309C245.966 139.153 245.966 134.035 240.499 130.879C235.031 127.723 226.167 127.723 220.7 130.879C215.232 134.035 215.232 139.153 220.7 142.309Z" stroke="#FE9154" stroke-width="3" stroke-linecap="round" stroke-linejoin="round"/>
</g>
<g opacity="0.4">
<line x1="1.02452" y1="40.6708" x2="238.863" y2="177.987" stroke="url(#paint4_linear_249_87)" stroke-width="1.5" stroke-linecap="round"/>
<line x1="1.02452" y1="99.6708" x2="238.863" y2="236.987" stroke="url(#paint5_linear_249_87)" stroke-width="1.5" stroke-linecap="round"/>
<line x1="68.168" y1="1.72548" x2="306.006" y2="139.041" stroke="url(#paint6_linear_249_87)" stroke-width="1.5" stroke-linecap="round"/>
<line x1="68.168" y1="60.7255" x2="306.006" y2="198.041" stroke="url(#paint7_linear_249_87)" stroke-width="1.5" stroke-linecap="round"/>
</g>
<defs>
<linearGradient id="paint0_linear_249_87" x1="67.1434" y1="-3.5" x2="67.1434" y2="77" gradientUnits="userSpaceOnUse">
<stop stop-color="#8A54FE"/>
<stop offset="0.42" stop-color="#8A54FE" stop-opacity="0.7"/>
<stop offset="1" stop-color="#8A54FE" stop-opacity="0"/>
</linearGradient>
<radialGradient id="paint1_radial_249_87" cx="0" cy="0" r="1" gradientUnits="userSpaceOnUse" gradientTransform="translate(67.4032 37.25) rotate(90) scale(57.25 101.392)">
<stop stop-color="#8A54FE"/>
<stop offset="1" stop-color="#8A54FE" stop-opacity="0"/>
</radialGradient>
<linearGradient id="paint2_linear_249_87" x1="239.143" y1="94.5" x2="239.143" y2="175" gradientUnits="userSpaceOnUse">
<stop stop-color="#FE9154" stop-opacity="0.45"/>
<stop offset="0.42" stop-color="#FE9154" stop-opacity="0.7"/>
<stop offset="1" stop-color="#FE9154" stop-opacity="0"/>
</linearGradient>
<radialGradient id="paint3_radial_249_87" cx="0" cy="0" r="1" gradientUnits="userSpaceOnUse" gradientTransform="translate(239.403 135.25) rotate(90) scale(57.25 101.392)">
<stop stop-color="#FE9154"/>
<stop offset="1" stop-color="#FE9154" stop-opacity="0"/>
</radialGradient>
<linearGradient id="paint4_linear_249_87" x1="-2.96477" y1="40.5085" x2="245.173" y2="182.924" gradientUnits="userSpaceOnUse">
<stop offset="0.226847" stop-color="#383A41" stop-opacity="0"/>
<stop offset="0.336224" stop-color="#383A41"/>
<stop offset="0.596645" stop-color="#383A41"/>
<stop offset="0.721647" stop-color="#383A41" stop-opacity="0"/>
</linearGradient>
<linearGradient id="paint5_linear_249_87" x1="-2.96477" y1="99.5085" x2="245.173" y2="241.924" gradientUnits="userSpaceOnUse">
<stop offset="0.226847" stop-color="#383A41" stop-opacity="0"/>
<stop offset="0.336224" stop-color="#383A41"/>
<stop offset="0.596645" stop-color="#383A41"/>
<stop offset="0.721647" stop-color="#383A41" stop-opacity="0"/>
</linearGradient>
<linearGradient id="paint6_linear_249_87" x1="64.1787" y1="1.5632" x2="312.316" y2="143.978" gradientUnits="userSpaceOnUse">
<stop offset="0.226847" stop-color="#383A41" stop-opacity="0"/>
<stop offset="0.336224" stop-color="#383A41"/>
<stop offset="0.596645" stop-color="#383A41"/>
<stop offset="0.721647" stop-color="#383A41" stop-opacity="0"/>
</linearGradient>
<linearGradient id="paint7_linear_249_87" x1="64.1787" y1="60.5632" x2="312.316" y2="202.978" gradientUnits="userSpaceOnUse">
<stop offset="0.226847" stop-color="#383A41" stop-opacity="0"/>
<stop offset="0.336224" stop-color="#383A41"/>
<stop offset="0.461226" stop-color="#383A41" stop-opacity="0"/>
</linearGradient>
<clipPath id="clip0_249_87">
<rect width="39.1897" height="39.1897" fill="white" transform="matrix(0.866044 0.499967 -0.866044 0.499967 67.1139 19.2036)"/>
</clipPath>
<clipPath id="clip1_249_87">
<rect width="39.191" height="39.191" fill="white" transform="matrix(0.866044 0.499967 -0.866044 0.499967 239.085 117)"/>
</clipPath>
</defs>
</svg>
