<svg width="267" height="168" viewBox="0 0 267 168" fill="none" xmlns="http://www.w3.org/2000/svg">
<g opacity="0.4">
<mask id="path-1-inside-1_248_238" fill="white">
<path d="M138.834 101.436C135.604 99.5874 134 97.1474 134 94.7148L134.17 38.263C134.163 35.8452 135.744 33.4423 138.922 31.6086L188.796 2.77265C195.167 -0.924218 205.53 -0.924218 211.938 2.77265L262.137 31.6086C265.566 33.605 267.156 36.2002 266.934 38.7807C266.939 38.7229 266.95 38.6508 266.961 38.575C266.979 38.45 266.999 38.3142 267 38.2173L266.763 94.8479V94.9958C266.763 95.0567 266.757 95.0998 266.748 95.1544C266.741 95.1991 266.733 95.252 266.727 95.3285C266.725 95.344 266.724 95.3594 266.722 95.375L266.718 95.4032L266.714 95.4317C266.71 95.4652 266.705 95.4989 266.699 95.5325C266.683 95.6346 266.667 95.7366 266.667 95.8387C266.664 95.8682 266.664 95.8979 266.667 95.9274C266.655 95.99 266.64 96.0361 266.622 96.0936C266.616 96.1107 266.61 96.1288 266.604 96.1486L266.594 96.1802C266.587 96.204 266.579 96.2303 266.571 96.2602C266.561 96.2971 266.552 96.3341 266.542 96.3712C266.509 96.4953 266.476 96.6219 266.431 96.7407C266.431 96.7534 266.435 96.7573 266.439 96.7613C266.447 96.7688 266.455 96.7761 266.431 96.8443C266.412 96.897 266.395 96.9286 266.373 96.9695C266.352 97.0088 266.327 97.0567 266.29 97.14C266.217 97.31 266.143 97.4802 266.054 97.6501C265.995 97.6872 265.995 97.7315 265.995 97.7685C265.884 97.9642 265.763 98.1542 265.633 98.3378L265.551 98.4488L265.337 98.7445L265.019 99.1142L264.908 99.2398C264.724 99.4395 264.531 99.6391 264.317 99.8313L264.221 99.9126L263.718 100.327C263.68 100.358 263.644 100.387 263.609 100.417C263.501 100.505 263.399 100.589 263.26 100.689C263.075 100.822 262.817 100.992 262.669 101.081C262.595 101.125 262.527 101.173 262.458 101.221C262.39 101.269 262.322 101.318 262.248 101.362L262.048 101.48L212.174 130.331C211.804 130.538 211.45 130.73 211.065 130.915L210.77 131.055C210.459 131.211 210.082 131.359 209.72 131.499L209.58 131.551C209.255 131.677 208.922 131.795 208.589 131.906L207.562 132.194L206.919 132.364C206.623 132.438 206.32 132.497 206.017 132.556C205.957 132.569 205.898 132.586 205.839 132.603C205.724 132.635 205.61 132.667 205.493 132.667H205.397C204.79 132.778 204.17 132.86 203.541 132.926H202.957L201.856 133H199.499L198.671 132.956H198.301L197.91 132.911C197.636 132.889 197.37 132.86 197.096 132.823C196.971 132.778 196.838 132.778 196.712 132.778L195.5 132.571L195.094 132.497C195.052 132.491 195.012 132.478 194.972 132.464C194.921 132.447 194.87 132.431 194.82 132.431C194.473 132.357 194.14 132.275 193.8 132.187L193.379 132.083L193.15 132.009L192.802 131.906C192.47 131.802 192.137 131.684 191.812 131.566L191.524 131.462L191.391 131.418L190.652 131.092L190.23 130.915C189.816 130.715 189.417 130.508 189.033 130.287L138.834 101.436Z"/>
</mask>
<path d="M138.834 101.436C135.604 99.5874 134 97.1474 134 94.7148L134.17 38.263C134.163 35.8452 135.744 33.4423 138.922 31.6086L188.796 2.77265C195.167 -0.924218 205.53 -0.924218 211.938 2.77265L262.137 31.6086C265.566 33.605 267.156 36.2002 266.934 38.7807C266.939 38.7229 266.95 38.6508 266.961 38.575C266.979 38.45 266.999 38.3142 267 38.2173L266.763 94.8479V94.9958C266.763 95.0567 266.757 95.0998 266.748 95.1544C266.741 95.1991 266.733 95.252 266.727 95.3285C266.725 95.344 266.724 95.3594 266.722 95.375L266.718 95.4032L266.714 95.4317C266.71 95.4652 266.705 95.4989 266.699 95.5325C266.683 95.6346 266.667 95.7366 266.667 95.8387C266.664 95.8682 266.664 95.8979 266.667 95.9274C266.655 95.99 266.64 96.0361 266.622 96.0936C266.616 96.1107 266.61 96.1288 266.604 96.1486L266.594 96.1802C266.587 96.204 266.579 96.2303 266.571 96.2602C266.561 96.2971 266.552 96.3341 266.542 96.3712C266.509 96.4953 266.476 96.6219 266.431 96.7407C266.431 96.7534 266.435 96.7573 266.439 96.7613C266.447 96.7688 266.455 96.7761 266.431 96.8443C266.412 96.897 266.395 96.9286 266.373 96.9695C266.352 97.0088 266.327 97.0567 266.29 97.14C266.217 97.31 266.143 97.4802 266.054 97.6501C265.995 97.6872 265.995 97.7315 265.995 97.7685C265.884 97.9642 265.763 98.1542 265.633 98.3378L265.551 98.4488L265.337 98.7445L265.019 99.1142L264.908 99.2398C264.724 99.4395 264.531 99.6391 264.317 99.8313L264.221 99.9126L263.718 100.327C263.68 100.358 263.644 100.387 263.609 100.417C263.501 100.505 263.399 100.589 263.26 100.689C263.075 100.822 262.817 100.992 262.669 101.081C262.595 101.125 262.527 101.173 262.458 101.221C262.39 101.269 262.322 101.318 262.248 101.362L262.048 101.48L212.174 130.331C211.804 130.538 211.45 130.73 211.065 130.915L210.77 131.055C210.459 131.211 210.082 131.359 209.72 131.499L209.58 131.551C209.255 131.677 208.922 131.795 208.589 131.906L207.562 132.194L206.919 132.364C206.623 132.438 206.32 132.497 206.017 132.556C205.957 132.569 205.898 132.586 205.839 132.603C205.724 132.635 205.61 132.667 205.493 132.667H205.397C204.79 132.778 204.17 132.86 203.541 132.926H202.957L201.856 133H199.499L198.671 132.956H198.301L197.91 132.911C197.636 132.889 197.37 132.86 197.096 132.823C196.971 132.778 196.838 132.778 196.712 132.778L195.5 132.571L195.094 132.497C195.052 132.491 195.012 132.478 194.972 132.464C194.921 132.447 194.87 132.431 194.82 132.431C194.473 132.357 194.14 132.275 193.8 132.187L193.379 132.083L193.15 132.009L192.802 131.906C192.47 131.802 192.137 131.684 191.812 131.566L191.524 131.462L191.391 131.418L190.652 131.092L190.23 130.915C189.816 130.715 189.417 130.508 189.033 130.287L138.834 101.436Z" stroke="#A0A0AB" stroke-width="5" mask="url(#path-1-inside-1_248_238)"/>
</g>
<mask id="path-2-inside-2_248_238" fill="white">
<path d="M138.612 43.2592L188.811 72.0839C189.196 72.3056 189.595 72.5126 190.009 72.7047L190.43 72.8895L191.169 73.2147L191.302 73.259L191.59 73.3625L192.581 73.7025L192.906 73.8355L193.135 73.9094L193.556 74.0129C193.896 74.1016 194.229 74.1829 194.576 74.2568C194.665 74.2568 194.754 74.3086 194.85 74.3233L195.256 74.3972L196.121 74.5451L196.468 74.6042C196.594 74.6042 196.727 74.6042 196.853 74.6485C197.126 74.6485 197.392 74.7151 197.666 74.7372L198.057 74.7816H198.427L199.255 74.8259H199.669H201.346H201.612C201.982 74.8259 202.351 74.8259 202.714 74.752H203.164H203.297C203.926 74.6855 204.547 74.6042 205.153 74.4933H205.249C205.426 74.4933 205.596 74.4194 205.773 74.3825C206.076 74.3233 206.379 74.2642 206.675 74.1903L207.318 74.0203L208.161 73.7838L208.345 73.7321C208.678 73.6212 209.011 73.5029 209.336 73.3773L209.476 73.3256C209.838 73.1851 210.215 73.0373 210.526 72.8747L210.821 72.7343C211.206 72.5569 211.575 72.3647 211.93 72.1578L261.804 43.3331L262.004 43.2148C262.152 43.1188 262.277 43.0227 262.425 42.934C262.573 42.8453 262.832 42.6753 263.016 42.5423C263.201 42.4092 263.319 42.2984 263.475 42.1801L263.977 41.7662L264.073 41.6849C264.288 41.4928 264.48 41.2932 264.664 41.0937L264.775 40.968L265.093 40.5985L265.307 40.3028L265.389 40.192C265.519 40.0085 265.64 39.8185 265.751 39.6228C265.751 39.6228 265.751 39.5416 265.81 39.5046C265.899 39.3346 265.973 39.1646 266.047 38.9946C266.12 38.8246 266.15 38.8025 266.187 38.699C266.224 38.5955 266.187 38.6325 266.187 38.5955C266.246 38.4403 266.283 38.2777 266.327 38.1151C266.372 37.9525 266.401 37.8934 266.424 37.7825C266.42 37.7531 266.42 37.7233 266.424 37.6938C266.424 37.5238 266.468 37.3538 266.483 37.1838C266.497 37.0138 266.52 36.9621 266.52 36.8512C266.01 34.9296 264.472 33.0745 261.893 31.5963L211.694 2.7716C205.286 -0.923868 194.924 -0.923868 188.553 2.7716L138.678 31.5963C135.619 33.3258 134.052 35.6761 134 38.0338C134.517 39.9481 136.047 41.7884 138.612 43.2592Z"/>
</mask>
<path d="M138.612 43.2592L188.811 72.0839C189.196 72.3056 189.595 72.5126 190.009 72.7047L190.43 72.8895L191.169 73.2147L191.302 73.259L191.59 73.3625L192.581 73.7025L192.906 73.8355L193.135 73.9094L193.556 74.0129C193.896 74.1016 194.229 74.1829 194.576 74.2568C194.665 74.2568 194.754 74.3086 194.85 74.3233L195.256 74.3972L196.121 74.5451L196.468 74.6042C196.594 74.6042 196.727 74.6042 196.853 74.6485C197.126 74.6485 197.392 74.7151 197.666 74.7372L198.057 74.7816H198.427L199.255 74.8259H199.669H201.346H201.612C201.982 74.8259 202.351 74.8259 202.714 74.752H203.164H203.297C203.926 74.6855 204.547 74.6042 205.153 74.4933H205.249C205.426 74.4933 205.596 74.4194 205.773 74.3825C206.076 74.3233 206.379 74.2642 206.675 74.1903L207.318 74.0203L208.161 73.7838L208.345 73.7321C208.678 73.6212 209.011 73.5029 209.336 73.3773L209.476 73.3256C209.838 73.1851 210.215 73.0373 210.526 72.8747L210.821 72.7343C211.206 72.5569 211.575 72.3647 211.93 72.1578L261.804 43.3331L262.004 43.2148C262.152 43.1188 262.277 43.0227 262.425 42.934C262.573 42.8453 262.832 42.6753 263.016 42.5423C263.201 42.4092 263.319 42.2984 263.475 42.1801L263.977 41.7662L264.073 41.6849C264.288 41.4928 264.48 41.2932 264.664 41.0937L264.775 40.968L265.093 40.5985L265.307 40.3028L265.389 40.192C265.519 40.0085 265.64 39.8185 265.751 39.6228C265.751 39.6228 265.751 39.5416 265.81 39.5046C265.899 39.3346 265.973 39.1646 266.047 38.9946C266.12 38.8246 266.15 38.8025 266.187 38.699C266.224 38.5955 266.187 38.6325 266.187 38.5955C266.246 38.4403 266.283 38.2777 266.327 38.1151C266.372 37.9525 266.401 37.8934 266.424 37.7825C266.42 37.7531 266.42 37.7233 266.424 37.6938C266.424 37.5238 266.468 37.3538 266.483 37.1838C266.497 37.0138 266.52 36.9621 266.52 36.8512C266.01 34.9296 264.472 33.0745 261.893 31.5963L211.694 2.7716C205.286 -0.923868 194.924 -0.923868 188.553 2.7716L138.678 31.5963C135.619 33.3258 134.052 35.6761 134 38.0338C134.517 39.9481 136.047 41.7884 138.612 43.2592Z" fill="url(#paint0_linear_248_238)" fill-opacity="0.15" stroke="url(#paint1_radial_248_238)" stroke-width="5" mask="url(#path-2-inside-2_248_238)"/>
<g clip-path="url(#clip0_248_238)">
<path opacity="0.4" d="M214.819 41.2872L218.072 39.4095C219.656 38.495 220.448 38.0378 220.745 37.5105C221.006 37.0468 221.006 36.5472 220.745 36.0834C220.448 35.5562 219.656 35.099 218.072 34.1845L201.668 24.7143C200.084 23.7998 199.292 23.3426 198.378 23.1713C197.575 23.0206 196.71 23.0206 195.906 23.1713C194.993 23.3426 194.201 23.7998 192.617 24.7143L179.041 32.5517C177.457 33.4662 176.665 33.9234 176.368 34.4506C176.107 34.9144 176.107 35.414 176.368 35.8777C176.665 36.405 177.457 36.8622 179.041 37.7767L195.445 47.2469C197.029 48.1613 197.821 48.6186 198.735 48.7899C199.538 48.9406 200.403 48.9406 201.207 48.7899C202.12 48.6186 202.912 48.1613 204.496 47.2469L207.748 45.3692" stroke="#8A54FE" stroke-width="3" stroke-linecap="round" stroke-linejoin="round"/>
<path d="M207.041 44.9606C207.698 45.34 208.027 45.5296 208.354 45.656C209.7 46.1749 211.454 46.1749 212.799 45.656C213.126 45.5296 213.455 45.34 214.112 44.9606C214.769 44.5813 215.098 44.3916 215.317 44.2025C216.215 43.426 216.215 42.4133 215.317 41.6367C215.098 41.4476 214.769 41.258 214.112 40.8786L211.284 39.2458C210.627 38.8665 210.298 38.6768 209.97 38.5505C208.625 38.0316 206.871 38.0316 205.526 38.5505C205.199 38.6768 204.87 38.8665 204.213 39.2458C203.556 39.6252 203.227 39.8148 203.008 40.0039C202.11 40.7805 202.11 41.7932 203.008 42.5697C203.227 42.7588 203.556 42.9485 204.213 43.3278L207.041 44.9606Z" stroke="#8A54FE" stroke-width="3" stroke-linecap="round" stroke-linejoin="round"/>
</g>
<g opacity="0.1">
<g opacity="0.4">
<mask id="path-5-inside-3_248_238" fill="white">
<path d="M4.83364 101.436C1.60386 99.5874 0 97.1474 0 94.7148L0.170029 38.263C0.162623 35.8452 1.74426 33.4423 4.92236 31.6086L54.7965 2.77265C61.1675 -0.924218 71.5295 -0.924218 77.9375 2.77265L128.137 31.6086C131.566 33.605 133.156 36.2002 132.934 38.7807C132.939 38.7229 132.95 38.6508 132.961 38.575C132.979 38.45 132.999 38.3142 133 38.2173L132.763 94.8479V94.9958C132.763 95.0567 132.757 95.0998 132.748 95.1544C132.741 95.1991 132.733 95.252 132.727 95.3285C132.725 95.344 132.724 95.3594 132.722 95.375L132.718 95.4032L132.714 95.4317C132.71 95.4652 132.705 95.4989 132.699 95.5325C132.683 95.6346 132.667 95.7366 132.667 95.8387C132.664 95.8682 132.664 95.8979 132.667 95.9274C132.655 95.99 132.64 96.0361 132.622 96.0936C132.616 96.1107 132.61 96.1288 132.604 96.1486L132.594 96.1802C132.587 96.204 132.579 96.2303 132.571 96.2602C132.561 96.2971 132.552 96.3341 132.542 96.3712C132.509 96.4953 132.476 96.6219 132.431 96.7407C132.431 96.7534 132.435 96.7573 132.439 96.7613C132.447 96.7688 132.455 96.7761 132.431 96.8443C132.412 96.897 132.395 96.9286 132.373 96.9695C132.352 97.0088 132.327 97.0567 132.29 97.14C132.217 97.31 132.143 97.4802 132.054 97.6501C131.995 97.6872 131.995 97.7315 131.995 97.7685C131.884 97.9642 131.763 98.1542 131.633 98.3378L131.551 98.4488L131.337 98.7445L131.019 99.1142L130.908 99.2398C130.724 99.4395 130.531 99.6391 130.317 99.8313L130.221 99.9126L129.718 100.327C129.68 100.358 129.644 100.387 129.609 100.417C129.501 100.505 129.399 100.589 129.26 100.689C129.075 100.822 128.817 100.992 128.669 101.081C128.595 101.125 128.527 101.173 128.458 101.221C128.39 101.269 128.322 101.318 128.248 101.362L128.048 101.48L78.1741 130.331C77.8044 130.538 77.4497 130.73 77.0653 130.915L76.7697 131.055C76.4593 131.211 76.0823 131.359 75.7202 131.499L75.5798 131.551C75.2546 131.677 74.9219 131.795 74.5894 131.906L73.562 132.194L72.9191 132.364C72.6234 132.438 72.3204 132.497 72.0174 132.556C71.9571 132.569 71.8978 132.586 71.8387 132.603C71.7237 132.635 71.6098 132.667 71.4926 132.667H71.3965C70.7905 132.778 70.1696 132.86 69.5413 132.926H68.9575L67.8563 133H65.4986L64.6708 132.956H64.3013L63.9095 132.911C63.636 132.889 63.37 132.86 63.0964 132.823C62.9708 132.778 62.8378 132.778 62.7122 132.778L61.5001 132.571L61.0935 132.497C61.052 132.491 61.0118 132.478 60.9725 132.464C60.9208 132.447 60.8705 132.431 60.8201 132.431C60.4727 132.357 60.1402 132.275 59.8001 132.187L59.3789 132.083L59.1498 132.009L58.8023 131.906C58.4698 131.802 58.1372 131.684 57.8119 131.566L57.5237 131.462L57.3907 131.418L56.6517 131.092L56.2303 130.915C55.8165 130.715 55.4173 130.508 55.033 130.287L4.83364 101.436Z"/>
</mask>
<path d="M4.83364 101.436C1.60386 99.5874 0 97.1474 0 94.7148L0.170029 38.263C0.162623 35.8452 1.74426 33.4423 4.92236 31.6086L54.7965 2.77265C61.1675 -0.924218 71.5295 -0.924218 77.9375 2.77265L128.137 31.6086C131.566 33.605 133.156 36.2002 132.934 38.7807C132.939 38.7229 132.95 38.6508 132.961 38.575C132.979 38.45 132.999 38.3142 133 38.2173L132.763 94.8479V94.9958C132.763 95.0567 132.757 95.0998 132.748 95.1544C132.741 95.1991 132.733 95.252 132.727 95.3285C132.725 95.344 132.724 95.3594 132.722 95.375L132.718 95.4032L132.714 95.4317C132.71 95.4652 132.705 95.4989 132.699 95.5325C132.683 95.6346 132.667 95.7366 132.667 95.8387C132.664 95.8682 132.664 95.8979 132.667 95.9274C132.655 95.99 132.64 96.0361 132.622 96.0936C132.616 96.1107 132.61 96.1288 132.604 96.1486L132.594 96.1802C132.587 96.204 132.579 96.2303 132.571 96.2602C132.561 96.2971 132.552 96.3341 132.542 96.3712C132.509 96.4953 132.476 96.6219 132.431 96.7407C132.431 96.7534 132.435 96.7573 132.439 96.7613C132.447 96.7688 132.455 96.7761 132.431 96.8443C132.412 96.897 132.395 96.9286 132.373 96.9695C132.352 97.0088 132.327 97.0567 132.29 97.14C132.217 97.31 132.143 97.4802 132.054 97.6501C131.995 97.6872 131.995 97.7315 131.995 97.7685C131.884 97.9642 131.763 98.1542 131.633 98.3378L131.551 98.4488L131.337 98.7445L131.019 99.1142L130.908 99.2398C130.724 99.4395 130.531 99.6391 130.317 99.8313L130.221 99.9126L129.718 100.327C129.68 100.358 129.644 100.387 129.609 100.417C129.501 100.505 129.399 100.589 129.26 100.689C129.075 100.822 128.817 100.992 128.669 101.081C128.595 101.125 128.527 101.173 128.458 101.221C128.39 101.269 128.322 101.318 128.248 101.362L128.048 101.48L78.1741 130.331C77.8044 130.538 77.4497 130.73 77.0653 130.915L76.7697 131.055C76.4593 131.211 76.0823 131.359 75.7202 131.499L75.5798 131.551C75.2546 131.677 74.9219 131.795 74.5894 131.906L73.562 132.194L72.9191 132.364C72.6234 132.438 72.3204 132.497 72.0174 132.556C71.9571 132.569 71.8978 132.586 71.8387 132.603C71.7237 132.635 71.6098 132.667 71.4926 132.667H71.3965C70.7905 132.778 70.1696 132.86 69.5413 132.926H68.9575L67.8563 133H65.4986L64.6708 132.956H64.3013L63.9095 132.911C63.636 132.889 63.37 132.86 63.0964 132.823C62.9708 132.778 62.8378 132.778 62.7122 132.778L61.5001 132.571L61.0935 132.497C61.052 132.491 61.0118 132.478 60.9725 132.464C60.9208 132.447 60.8705 132.431 60.8201 132.431C60.4727 132.357 60.1402 132.275 59.8001 132.187L59.3789 132.083L59.1498 132.009L58.8023 131.906C58.4698 131.802 58.1372 131.684 57.8119 131.566L57.5237 131.462L57.3907 131.418L56.6517 131.092L56.2303 130.915C55.8165 130.715 55.4173 130.508 55.033 130.287L4.83364 101.436Z" stroke="#A0A0AB" stroke-width="5" mask="url(#path-5-inside-3_248_238)"/>
</g>
<mask id="path-6-inside-4_248_238" fill="white">
<path d="M4.61195 43.2592L54.8112 72.0839C55.1956 72.3056 55.5947 72.5126 56.0086 72.7047L56.4298 72.8895L57.1689 73.2147L57.302 73.259L57.5902 73.3625L58.5806 73.7025L58.9058 73.8355L59.1349 73.9094L59.5562 74.0129C59.8962 74.1016 60.2288 74.1829 60.5762 74.2568C60.6649 74.2568 60.7535 74.3086 60.8496 74.3233L61.2561 74.3972L62.1209 74.5451L62.4682 74.6042C62.5939 74.6042 62.7269 74.6042 62.8526 74.6485C63.126 74.6485 63.3921 74.7151 63.6656 74.7372L64.0573 74.7816H64.4268L65.2546 74.8259H65.6685H67.3463H67.6123C67.9819 74.8259 68.3514 74.8259 68.7136 74.752H69.1644H69.2975C69.9257 74.6855 70.5465 74.6042 71.1526 74.4933H71.2487C71.4261 74.4933 71.5961 74.4194 71.7734 74.3825C72.0765 74.3233 72.3795 74.2642 72.6751 74.1903L73.3181 74.0203L74.1607 73.7838L74.3455 73.7321C74.6781 73.6212 75.0107 73.5029 75.3359 73.3773L75.4763 73.3256C75.8385 73.1851 76.2154 73.0373 76.5258 72.8747L76.8214 72.7343C77.2058 72.5569 77.5753 72.3647 77.9301 72.1578L127.804 43.3331L128.004 43.2148C128.152 43.1188 128.277 43.0227 128.425 42.934C128.573 42.8453 128.832 42.6753 129.016 42.5423C129.201 42.4092 129.319 42.2984 129.475 42.1801L129.977 41.7662L130.073 41.6849C130.288 41.4928 130.48 41.2932 130.664 41.0937L130.775 40.968L131.093 40.5985L131.307 40.3028L131.389 40.192C131.519 40.0085 131.64 39.8185 131.751 39.6228C131.751 39.6228 131.751 39.5416 131.81 39.5046C131.899 39.3346 131.973 39.1646 132.047 38.9946C132.12 38.8246 132.15 38.8025 132.187 38.699C132.224 38.5955 132.187 38.6325 132.187 38.5955C132.246 38.4403 132.283 38.2777 132.327 38.1151C132.372 37.9525 132.401 37.8934 132.424 37.7825C132.42 37.7531 132.42 37.7233 132.424 37.6938C132.424 37.5238 132.468 37.3538 132.483 37.1838C132.497 37.0138 132.52 36.9621 132.52 36.8512C132.01 34.9296 130.472 33.0745 127.893 31.5963L77.6936 2.7716C71.2856 -0.923868 60.9235 -0.923868 54.5525 2.7716L4.67847 31.5963C1.61862 33.3258 0.0517366 35.6761 0 38.0338C0.517366 39.9481 2.04729 41.7884 4.61195 43.2592Z"/>
</mask>
<path d="M4.61195 43.2592L54.8112 72.0839C55.1956 72.3056 55.5947 72.5126 56.0086 72.7047L56.4298 72.8895L57.1689 73.2147L57.302 73.259L57.5902 73.3625L58.5806 73.7025L58.9058 73.8355L59.1349 73.9094L59.5562 74.0129C59.8962 74.1016 60.2288 74.1829 60.5762 74.2568C60.6649 74.2568 60.7535 74.3086 60.8496 74.3233L61.2561 74.3972L62.1209 74.5451L62.4682 74.6042C62.5939 74.6042 62.7269 74.6042 62.8526 74.6485C63.126 74.6485 63.3921 74.7151 63.6656 74.7372L64.0573 74.7816H64.4268L65.2546 74.8259H65.6685H67.3463H67.6123C67.9819 74.8259 68.3514 74.8259 68.7136 74.752H69.1644H69.2975C69.9257 74.6855 70.5465 74.6042 71.1526 74.4933H71.2487C71.4261 74.4933 71.5961 74.4194 71.7734 74.3825C72.0765 74.3233 72.3795 74.2642 72.6751 74.1903L73.3181 74.0203L74.1607 73.7838L74.3455 73.7321C74.6781 73.6212 75.0107 73.5029 75.3359 73.3773L75.4763 73.3256C75.8385 73.1851 76.2154 73.0373 76.5258 72.8747L76.8214 72.7343C77.2058 72.5569 77.5753 72.3647 77.9301 72.1578L127.804 43.3331L128.004 43.2148C128.152 43.1188 128.277 43.0227 128.425 42.934C128.573 42.8453 128.832 42.6753 129.016 42.5423C129.201 42.4092 129.319 42.2984 129.475 42.1801L129.977 41.7662L130.073 41.6849C130.288 41.4928 130.48 41.2932 130.664 41.0937L130.775 40.968L131.093 40.5985L131.307 40.3028L131.389 40.192C131.519 40.0085 131.64 39.8185 131.751 39.6228C131.751 39.6228 131.751 39.5416 131.81 39.5046C131.899 39.3346 131.973 39.1646 132.047 38.9946C132.12 38.8246 132.15 38.8025 132.187 38.699C132.224 38.5955 132.187 38.6325 132.187 38.5955C132.246 38.4403 132.283 38.2777 132.327 38.1151C132.372 37.9525 132.401 37.8934 132.424 37.7825C132.42 37.7531 132.42 37.7233 132.424 37.6938C132.424 37.5238 132.468 37.3538 132.483 37.1838C132.497 37.0138 132.52 36.9621 132.52 36.8512C132.01 34.9296 130.472 33.0745 127.893 31.5963L77.6936 2.7716C71.2856 -0.923868 60.9235 -0.923868 54.5525 2.7716L4.67847 31.5963C1.61862 33.3258 0.0517366 35.6761 0 38.0338C0.517366 39.9481 2.04729 41.7884 4.61195 43.2592Z" fill="url(#paint2_linear_248_238)" fill-opacity="0.15" stroke="url(#paint3_radial_248_238)" stroke-width="5" mask="url(#path-6-inside-4_248_238)"/>
<g clip-path="url(#clip1_248_238)">
<path opacity="0.4" d="M74.5693 28.5127C78.1044 28.5334 81.6286 29.3224 84.3259 30.8795C89.7933 34.0358 89.7933 39.1532 84.3259 42.3095C81.6285 43.8667 78.1043 44.6557 74.5691 44.6763" stroke="#FE9154" stroke-width="3" stroke-linecap="round" stroke-linejoin="round"/>
<path d="M47.5563 42.309C53.0237 45.4653 61.888 45.4653 67.3553 42.309C72.8227 39.1527 72.8227 34.0353 67.3553 30.879C61.888 27.7227 53.0237 27.7227 47.5563 30.879C42.089 34.0353 42.089 39.1527 47.5563 42.309Z" stroke="#FE9154" stroke-width="3" stroke-linecap="round" stroke-linejoin="round"/>
</g>
</g>
<mask id="path-9-inside-5_248_238" fill="white">
<path d="M92.1982 147.089C90.0612 145.867 89 144.253 89 142.644L89.1125 105.307C89.1076 103.708 90.1541 102.119 92.2569 100.906L125.256 81.8338C129.472 79.3887 136.328 79.3887 140.568 81.8338L173.782 100.906C176.051 102.226 177.103 103.943 176.956 105.649C176.96 105.611 176.967 105.564 176.974 105.513C176.986 105.431 176.999 105.341 177 105.277L176.843 142.732V142.83C176.843 142.87 176.839 142.899 176.834 142.935C176.829 142.964 176.823 142.999 176.819 143.05C176.818 143.06 176.817 143.07 176.816 143.081L176.814 143.099L176.811 143.118C176.808 143.14 176.805 143.163 176.801 143.185C176.791 143.252 176.78 143.32 176.78 143.387C176.777 143.407 176.777 143.427 176.78 143.446C176.772 143.487 176.762 143.518 176.75 143.556C176.746 143.567 176.742 143.579 176.738 143.592L176.731 143.613C176.727 143.629 176.722 143.646 176.716 143.666C176.71 143.691 176.703 143.715 176.697 143.74L176.696 143.742C176.675 143.824 176.653 143.905 176.623 143.984C176.623 143.992 176.626 143.995 176.629 143.998C176.634 144.003 176.64 144.007 176.623 144.052C176.611 144.087 176.6 144.108 176.585 144.135C176.571 144.161 176.555 144.193 176.531 144.248C176.482 144.36 176.433 144.473 176.374 144.585C176.335 144.61 176.335 144.639 176.335 144.664C176.261 144.793 176.181 144.919 176.095 145.04L176.041 145.114L175.9 145.309L175.689 145.554L175.616 145.637C175.494 145.769 175.367 145.901 175.225 146.028L175.161 146.082L174.829 146.356C174.803 146.376 174.78 146.396 174.756 146.415C174.685 146.474 174.618 146.529 174.525 146.595C174.403 146.683 174.232 146.796 174.134 146.855C174.085 146.884 174.04 146.916 173.995 146.947C173.95 146.979 173.904 147.011 173.856 147.04L173.724 147.119L140.724 166.2C140.48 166.337 140.245 166.464 139.991 166.587L139.795 166.68C139.59 166.782 139.34 166.88 139.101 166.973L139.008 167.007C138.793 167.09 138.572 167.169 138.352 167.242L137.673 167.433L137.247 167.545C137.052 167.594 136.851 167.633 136.651 167.672C136.611 167.681 136.571 167.692 136.532 167.703C136.456 167.724 136.381 167.746 136.303 167.746H136.24C135.839 167.819 135.428 167.873 135.012 167.917H134.626L133.897 167.966H132.337L131.79 167.936H131.545L131.286 167.907C131.105 167.892 130.929 167.873 130.748 167.848C130.665 167.819 130.577 167.819 130.494 167.819L129.692 167.682L129.423 167.633C129.395 167.629 129.369 167.62 129.343 167.612C129.309 167.6 129.275 167.589 129.242 167.589C129.012 167.54 128.792 167.487 128.567 167.428L128.288 167.359L128.137 167.31L127.907 167.242C127.687 167.174 127.467 167.095 127.251 167.017L127.061 166.949L126.973 166.919L126.484 166.704L126.205 166.587C125.931 166.455 125.667 166.318 125.413 166.171L92.1982 147.089Z"/>
</mask>
<path d="M92.1982 147.089C90.0612 145.867 89 144.253 89 142.644L89.1125 105.307C89.1076 103.708 90.1541 102.119 92.2569 100.906L125.256 81.8338C129.472 79.3887 136.328 79.3887 140.568 81.8338L173.782 100.906C176.051 102.226 177.103 103.943 176.956 105.649C176.96 105.611 176.967 105.564 176.974 105.513C176.986 105.431 176.999 105.341 177 105.277L176.843 142.732V142.83C176.843 142.87 176.839 142.899 176.834 142.935C176.829 142.964 176.823 142.999 176.819 143.05C176.818 143.06 176.817 143.07 176.816 143.081L176.814 143.099L176.811 143.118C176.808 143.14 176.805 143.163 176.801 143.185C176.791 143.252 176.78 143.32 176.78 143.387C176.777 143.407 176.777 143.427 176.78 143.446C176.772 143.487 176.762 143.518 176.75 143.556C176.746 143.567 176.742 143.579 176.738 143.592L176.731 143.613C176.727 143.629 176.722 143.646 176.716 143.666C176.71 143.691 176.703 143.715 176.697 143.74L176.696 143.742C176.675 143.824 176.653 143.905 176.623 143.984C176.623 143.992 176.626 143.995 176.629 143.998C176.634 144.003 176.64 144.007 176.623 144.052C176.611 144.087 176.6 144.108 176.585 144.135C176.571 144.161 176.555 144.193 176.531 144.248C176.482 144.36 176.433 144.473 176.374 144.585C176.335 144.61 176.335 144.639 176.335 144.664C176.261 144.793 176.181 144.919 176.095 145.04L176.041 145.114L175.9 145.309L175.689 145.554L175.616 145.637C175.494 145.769 175.367 145.901 175.225 146.028L175.161 146.082L174.829 146.356C174.803 146.376 174.78 146.396 174.756 146.415C174.685 146.474 174.618 146.529 174.525 146.595C174.403 146.683 174.232 146.796 174.134 146.855C174.085 146.884 174.04 146.916 173.995 146.947C173.95 146.979 173.904 147.011 173.856 147.04L173.724 147.119L140.724 166.2C140.48 166.337 140.245 166.464 139.991 166.587L139.795 166.68C139.59 166.782 139.34 166.88 139.101 166.973L139.008 167.007C138.793 167.09 138.572 167.169 138.352 167.242L137.673 167.433L137.247 167.545C137.052 167.594 136.851 167.633 136.651 167.672C136.611 167.681 136.571 167.692 136.532 167.703C136.456 167.724 136.381 167.746 136.303 167.746H136.24C135.839 167.819 135.428 167.873 135.012 167.917H134.626L133.897 167.966H132.337L131.79 167.936H131.545L131.286 167.907C131.105 167.892 130.929 167.873 130.748 167.848C130.665 167.819 130.577 167.819 130.494 167.819L129.692 167.682L129.423 167.633C129.395 167.629 129.369 167.62 129.343 167.612C129.309 167.6 129.275 167.589 129.242 167.589C129.012 167.54 128.792 167.487 128.567 167.428L128.288 167.359L128.137 167.31L127.907 167.242C127.687 167.174 127.467 167.095 127.251 167.017L127.061 166.949L126.973 166.919L126.484 166.704L126.205 166.587C125.931 166.455 125.667 166.318 125.413 166.171L92.1982 147.089Z" fill="#131316" stroke="white" stroke-opacity="0.8" stroke-width="3" mask="url(#path-9-inside-5_248_238)"/>
<mask id="path-10-inside-6_248_238" fill="white">
<path d="M92.0515 108.623L125.266 127.695C125.52 127.841 125.784 127.978 126.058 128.105L126.337 128.228L126.826 128.443L126.914 128.472L127.105 128.541L127.76 128.766L127.975 128.854L128.127 128.902L128.406 128.971C128.631 129.03 128.851 129.083 129.08 129.132C129.139 129.132 129.198 129.167 129.261 129.176L129.53 129.225L130.103 129.323L130.332 129.362C130.416 129.362 130.504 129.362 130.587 129.391C130.768 129.391 130.944 129.435 131.125 129.45L131.384 129.479H131.628L132.176 129.509H132.45H133.56H133.736C133.98 129.509 134.225 129.509 134.465 129.46H134.763H134.851C135.267 129.416 135.677 129.362 136.078 129.289H136.142C136.259 129.289 136.372 129.24 136.489 129.215C136.69 129.176 136.89 129.137 137.086 129.088L137.511 128.976L138.069 128.819L138.191 128.785C138.411 128.712 138.631 128.633 138.846 128.55L138.939 128.516C139.179 128.423 139.428 128.325 139.634 128.218L139.829 128.125C140.084 128.008 140.328 127.88 140.563 127.743L173.562 108.672L173.694 108.593C173.792 108.53 173.875 108.466 173.973 108.407C174.071 108.349 174.242 108.236 174.364 108.148C174.486 108.06 174.565 107.987 174.667 107.909L175 107.635L175.063 107.581C175.205 107.454 175.332 107.322 175.455 107.19L175.528 107.107L175.738 106.862L175.88 106.667L175.934 106.593C176.02 106.472 176.1 106.346 176.174 106.217C176.174 106.217 176.174 106.163 176.213 106.138C176.271 106.026 176.32 105.913 176.369 105.801C176.418 105.688 176.438 105.674 176.462 105.605C176.487 105.537 176.462 105.561 176.462 105.537C176.501 105.434 176.526 105.327 176.555 105.219C176.584 105.111 176.604 105.072 176.619 104.999C176.616 104.979 176.616 104.96 176.619 104.94C176.619 104.828 176.648 104.715 176.658 104.603C176.667 104.49 176.682 104.456 176.682 104.383C176.345 103.111 175.328 101.884 173.621 100.906L140.406 81.8338C136.166 79.3887 129.31 79.3887 125.095 81.8338L92.0955 100.906C90.071 102.05 89.0342 103.605 89 105.165C89.3423 106.432 90.3546 107.649 92.0515 108.623Z"/>
</mask>
<path d="M92.0515 108.623L125.266 127.695C125.52 127.841 125.784 127.978 126.058 128.105L126.337 128.228L126.826 128.443L126.914 128.472L127.105 128.541L127.76 128.766L127.975 128.854L128.127 128.902L128.406 128.971C128.631 129.03 128.851 129.083 129.08 129.132C129.139 129.132 129.198 129.167 129.261 129.176L129.53 129.225L130.103 129.323L130.332 129.362C130.416 129.362 130.504 129.362 130.587 129.391C130.768 129.391 130.944 129.435 131.125 129.45L131.384 129.479H131.628L132.176 129.509H132.45H133.56H133.736C133.98 129.509 134.225 129.509 134.465 129.46H134.763H134.851C135.267 129.416 135.677 129.362 136.078 129.289H136.142C136.259 129.289 136.372 129.24 136.489 129.215C136.69 129.176 136.89 129.137 137.086 129.088L137.511 128.976L138.069 128.819L138.191 128.785C138.411 128.712 138.631 128.633 138.846 128.55L138.939 128.516C139.179 128.423 139.428 128.325 139.634 128.218L139.829 128.125C140.084 128.008 140.328 127.88 140.563 127.743L173.562 108.672L173.694 108.593C173.792 108.53 173.875 108.466 173.973 108.407C174.071 108.349 174.242 108.236 174.364 108.148C174.486 108.06 174.565 107.987 174.667 107.909L175 107.635L175.063 107.581C175.205 107.454 175.332 107.322 175.455 107.19L175.528 107.107L175.738 106.862L175.88 106.667L175.934 106.593C176.02 106.472 176.1 106.346 176.174 106.217C176.174 106.217 176.174 106.163 176.213 106.138C176.271 106.026 176.32 105.913 176.369 105.801C176.418 105.688 176.438 105.674 176.462 105.605C176.487 105.537 176.462 105.561 176.462 105.537C176.501 105.434 176.526 105.327 176.555 105.219C176.584 105.111 176.604 105.072 176.619 104.999C176.616 104.979 176.616 104.96 176.619 104.94C176.619 104.828 176.648 104.715 176.658 104.603C176.667 104.49 176.682 104.456 176.682 104.383C176.345 103.111 175.328 101.884 173.621 100.906L140.406 81.8338C136.166 79.3887 129.31 79.3887 125.095 81.8338L92.0955 100.906C90.071 102.05 89.0342 103.605 89 105.165C89.3423 106.432 90.3546 107.649 92.0515 108.623Z" fill="#131316" stroke="white" stroke-opacity="0.8" stroke-width="3" mask="url(#path-10-inside-6_248_238)"/>
<g clip-path="url(#clip2_248_238)">
<path d="M157.928 133.333L157.928 142.666M153.887 140.333L161.969 135.666" stroke="#A0A0AB" stroke-width="2" stroke-linecap="round" stroke-linejoin="round"/>
</g>
<defs>
<linearGradient id="paint0_linear_248_238" x1="200" y1="-5.5" x2="200" y2="75" gradientUnits="userSpaceOnUse">
<stop stop-color="#8A54FE"/>
<stop offset="0.42" stop-color="#8A54FE" stop-opacity="0.7"/>
<stop offset="1" stop-color="#8A54FE" stop-opacity="0"/>
</linearGradient>
<radialGradient id="paint1_radial_248_238" cx="0" cy="0" r="1" gradientUnits="userSpaceOnUse" gradientTransform="translate(200.26 35.25) rotate(90) scale(57.25 101.392)">
<stop stop-color="#8A54FE"/>
<stop offset="1" stop-color="#8A54FE" stop-opacity="0"/>
</radialGradient>
<linearGradient id="paint2_linear_248_238" x1="66" y1="-5.5" x2="66" y2="75" gradientUnits="userSpaceOnUse">
<stop stop-color="#FE9154" stop-opacity="0.45"/>
<stop offset="0.42" stop-color="#FE9154" stop-opacity="0.7"/>
<stop offset="1" stop-color="#FE9154" stop-opacity="0"/>
</linearGradient>
<radialGradient id="paint3_radial_248_238" cx="0" cy="0" r="1" gradientUnits="userSpaceOnUse" gradientTransform="translate(66.2598 35.25) rotate(90) scale(57.25 101.392)">
<stop stop-color="#FE9154"/>
<stop offset="1" stop-color="#FE9154" stop-opacity="0"/>
</radialGradient>
<clipPath id="clip0_248_238">
<rect width="39.1897" height="39.1897" fill="white" transform="matrix(0.866044 0.499967 -0.866044 0.499967 199.97 17.2036)"/>
</clipPath>
<clipPath id="clip1_248_238">
<rect width="39.191" height="39.191" fill="white" transform="matrix(0.866044 0.499967 -0.866044 0.499967 65.9412 17)"/>
</clipPath>
<clipPath id="clip2_248_238">
<rect width="15.9985" height="15.9985" fill="white" transform="matrix(0.86601 -0.500028 -3.18351e-05 1 151 134)"/>
</clipPath>
</defs>
</svg>
