<svg width="24" height="24" viewBox="0 0 24 24" fill="none" xmlns="http://www.w3.org/2000/svg">
<path fill-rule="evenodd" clip-rule="evenodd" d="M12.4028 1.18505C12.137 1.13038 11.8628 1.13038 11.597 1.18505C11.2897 1.24824 11.0151 1.40207 10.7967 1.52436L10.7372 1.55761L3.33721 5.66872L3.27407 5.70359C3.04294 5.8309 2.75232 5.99097 2.52915 6.23315C2.3362 6.44253 2.19018 6.69069 2.10085 6.96105C1.99753 7.27375 1.99874 7.60553 1.9997 7.8694L1.99988 7.94153V16.0586L1.9997 16.1308C1.99874 16.3946 1.99753 16.7264 2.10085 17.0391C2.19018 17.3095 2.3362 17.5576 2.52915 17.767C2.75231 18.0092 3.04291 18.1692 3.27404 18.2966L3.33721 18.3314L10.7372 22.4426L10.7967 22.4758C11.0151 22.5981 11.2897 22.7519 11.597 22.8151C11.8628 22.8698 12.137 22.8698 12.4028 22.8151C12.7101 22.7519 12.9847 22.5981 13.203 22.4758L13.2626 22.4426L20.6626 18.3314L20.7257 18.2966C20.9568 18.1693 21.2474 18.0092 21.4706 17.767C21.6636 17.5576 21.8096 17.3095 21.8989 17.0391C22.0022 16.7264 22.001 16.3946 22.0001 16.1308L21.9999 16.0586V7.94153L22.0001 7.8694C22.001 7.60553 22.0022 7.27375 21.8989 6.96105C21.8096 6.69069 21.6636 6.44253 21.4706 6.23315C21.2474 5.99097 20.9568 5.8309 20.7257 5.70359L20.6626 5.66872L13.2626 1.55761L13.203 1.52436C12.9847 1.40207 12.7101 1.24824 12.4028 1.18505ZM12.9999 8C12.9999 7.44772 12.5522 7 11.9999 7C11.4476 7 10.9999 7.44772 10.9999 8V12C10.9999 12.5523 11.4476 13 11.9999 13C12.5522 13 12.9999 12.5523 12.9999 12V8ZM11.9999 15C11.4476 15 10.9999 15.4477 10.9999 16C10.9999 16.5523 11.4476 17 11.9999 17H12.0099C12.5622 17 13.0099 16.5523 13.0099 16C13.0099 15.4477 12.5622 15 12.0099 15H11.9999Z" fill="#FFA929"/>
</svg>
