<svg width="110" height="110" viewBox="0 0 110 110" fill="none" xmlns="http://www.w3.org/2000/svg">
<rect x="0.55" y="0.55" width="108.9" height="108.9" rx="26.95" fill="url(#paint0_linear_451_125)" stroke="url(#paint1_linear_451_125)" stroke-width="1.1"/>
<rect x="9.35005" y="9.35005" width="91.3" height="91.3" stroke="#FCFCFC" stroke-opacity="0.15" stroke-width="1.1"/>
<circle cx="54.4501" cy="55.55" r="45.15" stroke="#FCFCFC" stroke-opacity="0.15"/>
<circle cx="55" cy="55" r="27" stroke="#FCFCFC" stroke-opacity="0.05"/>
<line x1="8.4465" y1="100.846" x2="100.846" y2="8.44641" stroke="#FCFCFC" stroke-opacity="0.02"/>
<line x1="9.1536" y1="8.44643" x2="101.554" y2="100.846" stroke="#FCFCFC" stroke-opacity="0.02"/>
<line x1="1.09998" y1="54.5" x2="110" y2="54.5" stroke="#FCFCFC" stroke-opacity="0.02"/>
<line x1="55.05" y1="109.45" x2="55.05" y2="0.54995" stroke="#FCFCFC" stroke-opacity="0.02"/>
<g style="mix-blend-mode:hard-light">
<path opacity="0.6" d="M81.6666 46.6666V39C81.6666 35.2663 81.6666 33.3995 80.94 31.9734C80.3008 30.719 79.281 29.6991 78.0266 29.0599C76.6005 28.3333 74.7336 28.3333 71 28.3333H32.3333C28.5996 28.3333 26.7328 28.3333 25.3067 29.0599C24.0523 29.6991 23.0324 30.719 22.3933 31.9734C21.6666 33.3995 21.6666 35.2663 21.6666 39V71C21.6666 74.7337 21.6666 76.6005 22.3932 78.0266C23.0324 79.281 24.0523 80.3009 25.3067 80.94C26.7328 81.6666 28.5996 81.6666 32.3333 81.6666L71 81.6666C74.7336 81.6666 76.6005 81.6666 78.0266 80.94C79.281 80.3009 80.3008 79.281 80.94 78.0266C81.6666 76.6005 81.6666 74.7337 81.6666 71V63.3333" stroke="#FCFCFC" stroke-width="6.66667" stroke-linecap="round" stroke-linejoin="round"/>
<path d="M80 63.3334C81.5488 63.3334 82.3233 63.3334 82.9673 63.2053C85.6119 62.6792 87.6792 60.6119 88.2052 57.9673C88.3333 57.3233 88.3333 56.5489 88.3333 55C88.3333 53.4512 88.3333 52.6767 88.2052 52.0328C87.6792 49.3881 85.6119 47.3208 82.9673 46.7948C82.3233 46.6667 81.5489 46.6667 80 46.6667L73.3333 46.6667C71.7845 46.6667 71.0101 46.6667 70.3661 46.7948C67.7215 47.3208 65.6541 49.3881 65.1281 52.0328C65 52.6767 65 53.4512 65 55C65 56.5489 65 57.3233 65.1281 57.9673C65.6541 60.6119 67.7215 62.6792 70.3661 63.2053C71.0101 63.3334 71.7845 63.3334 73.3333 63.3334H80Z" stroke="#FCFCFC" stroke-width="6.66667" stroke-linecap="round" stroke-linejoin="round"/>
</g>
<defs>
<linearGradient id="paint0_linear_451_125" x1="55" y1="0" x2="55" y2="110" gradientUnits="userSpaceOnUse">
<stop stop-color="#8A54FE"/>
<stop offset="1" stop-color="#2A0A6E"/>
</linearGradient>
<linearGradient id="paint1_linear_451_125" x1="55" y1="0" x2="55" y2="110" gradientUnits="userSpaceOnUse">
<stop stop-color="#C2A6FF"/>
<stop offset="1" stop-color="#B08BFF" stop-opacity="0.2"/>
</linearGradient>
</defs>
</svg>
