<svg width="307" height="239" viewBox="0 0 307 239" fill="none" xmlns="http://www.w3.org/2000/svg">
<g opacity="0.4">
<line x1="1.02452" y1="40.6705" x2="238.863" y2="177.986" stroke="url(#paint0_linear_414_171)" stroke-width="1.5" stroke-linecap="round"/>
<line x1="1.02452" y1="99.6705" x2="238.863" y2="236.986" stroke="url(#paint1_linear_414_171)" stroke-width="1.5" stroke-linecap="round"/>
<line x1="68.168" y1="1.72548" x2="306.006" y2="139.041" stroke="url(#paint2_linear_414_171)" stroke-width="1.5" stroke-linecap="round"/>
<line x1="68.168" y1="60.7255" x2="306.006" y2="198.041" stroke="url(#paint3_linear_414_171)" stroke-width="1.5" stroke-linecap="round"/>
</g>
<g opacity="0.4">
<mask id="path-5-inside-1_414_171" fill="white">
<path d="M177.977 201.436C174.747 199.587 173.143 197.147 173.143 194.715L173.313 138.263C173.306 135.845 174.888 133.442 178.066 131.609L227.94 102.773C234.311 99.0758 244.673 99.0758 251.081 102.773L301.28 131.609C304.71 133.605 306.299 136.2 306.077 138.781C306.082 138.723 306.093 138.651 306.104 138.575C306.123 138.45 306.143 138.314 306.143 138.217L305.907 194.848V194.996C305.907 195.057 305.9 195.1 305.892 195.154C305.885 195.199 305.877 195.252 305.87 195.329C305.869 195.344 305.867 195.359 305.865 195.375L305.862 195.403L305.858 195.432C305.853 195.465 305.848 195.499 305.843 195.533C305.827 195.635 305.811 195.737 305.811 195.839C305.807 195.868 305.807 195.898 305.811 195.927C305.798 195.99 305.783 196.036 305.765 196.094C305.759 196.111 305.754 196.129 305.747 196.149L305.738 196.18C305.731 196.204 305.723 196.23 305.715 196.26C305.705 196.297 305.695 196.334 305.685 196.371C305.653 196.495 305.62 196.622 305.574 196.741C305.574 196.753 305.579 196.757 305.583 196.761C305.591 196.769 305.599 196.776 305.574 196.844C305.556 196.897 305.539 196.929 305.517 196.969C305.496 197.009 305.47 197.057 305.434 197.14C305.36 197.31 305.286 197.48 305.197 197.65C305.138 197.687 305.138 197.731 305.138 197.769C305.027 197.964 304.906 198.154 304.776 198.338L304.695 198.449L304.48 198.744L304.163 199.114L304.052 199.24C303.867 199.44 303.675 199.639 303.46 199.831L303.364 199.913L302.862 200.327C302.824 200.358 302.787 200.387 302.752 200.417C302.644 200.505 302.543 200.589 302.404 200.689C302.219 200.822 301.96 200.992 301.812 201.081C301.738 201.125 301.67 201.173 301.602 201.221C301.533 201.269 301.465 201.318 301.391 201.362L301.191 201.48L251.318 230.331C250.948 230.538 250.593 230.73 250.209 230.915L249.913 231.055C249.603 231.211 249.226 231.359 248.864 231.499L248.723 231.551C248.398 231.677 248.065 231.795 247.733 231.906L246.705 232.194L246.062 232.364C245.767 232.438 245.464 232.497 245.161 232.556C245.101 232.569 245.041 232.586 244.982 232.603C244.867 232.635 244.753 232.667 244.636 232.667H244.54C243.934 232.778 243.313 232.86 242.685 232.926H242.101L241 233H238.642L237.814 232.956H237.445L237.053 232.911C236.779 232.889 236.513 232.86 236.24 232.823C236.114 232.778 235.981 232.778 235.856 232.778L234.644 232.571L234.237 232.497C234.195 232.491 234.155 232.478 234.116 232.464C234.064 232.447 234.014 232.431 233.964 232.431C233.616 232.357 233.284 232.275 232.944 232.187L232.522 232.083L232.293 232.009L231.946 231.906C231.613 231.802 231.281 231.684 230.955 231.566L230.667 231.462L230.534 231.418L229.795 231.092L229.374 230.915C228.96 230.715 228.561 230.508 228.176 230.287L177.977 201.436Z"/>
</mask>
<path d="M177.977 201.436C174.747 199.587 173.143 197.147 173.143 194.715L173.313 138.263C173.306 135.845 174.888 133.442 178.066 131.609L227.94 102.773C234.311 99.0758 244.673 99.0758 251.081 102.773L301.28 131.609C304.71 133.605 306.299 136.2 306.077 138.781C306.082 138.723 306.093 138.651 306.104 138.575C306.123 138.45 306.143 138.314 306.143 138.217L305.907 194.848V194.996C305.907 195.057 305.9 195.1 305.892 195.154C305.885 195.199 305.877 195.252 305.87 195.329C305.869 195.344 305.867 195.359 305.865 195.375L305.862 195.403L305.858 195.432C305.853 195.465 305.848 195.499 305.843 195.533C305.827 195.635 305.811 195.737 305.811 195.839C305.807 195.868 305.807 195.898 305.811 195.927C305.798 195.99 305.783 196.036 305.765 196.094C305.759 196.111 305.754 196.129 305.747 196.149L305.738 196.18C305.731 196.204 305.723 196.23 305.715 196.26C305.705 196.297 305.695 196.334 305.685 196.371C305.653 196.495 305.62 196.622 305.574 196.741C305.574 196.753 305.579 196.757 305.583 196.761C305.591 196.769 305.599 196.776 305.574 196.844C305.556 196.897 305.539 196.929 305.517 196.969C305.496 197.009 305.47 197.057 305.434 197.14C305.36 197.31 305.286 197.48 305.197 197.65C305.138 197.687 305.138 197.731 305.138 197.769C305.027 197.964 304.906 198.154 304.776 198.338L304.695 198.449L304.48 198.744L304.163 199.114L304.052 199.24C303.867 199.44 303.675 199.639 303.46 199.831L303.364 199.913L302.862 200.327C302.824 200.358 302.787 200.387 302.752 200.417C302.644 200.505 302.543 200.589 302.404 200.689C302.219 200.822 301.96 200.992 301.812 201.081C301.738 201.125 301.67 201.173 301.602 201.221C301.533 201.269 301.465 201.318 301.391 201.362L301.191 201.48L251.318 230.331C250.948 230.538 250.593 230.73 250.209 230.915L249.913 231.055C249.603 231.211 249.226 231.359 248.864 231.499L248.723 231.551C248.398 231.677 248.065 231.795 247.733 231.906L246.705 232.194L246.062 232.364C245.767 232.438 245.464 232.497 245.161 232.556C245.101 232.569 245.041 232.586 244.982 232.603C244.867 232.635 244.753 232.667 244.636 232.667H244.54C243.934 232.778 243.313 232.86 242.685 232.926H242.101L241 233H238.642L237.814 232.956H237.445L237.053 232.911C236.779 232.889 236.513 232.86 236.24 232.823C236.114 232.778 235.981 232.778 235.856 232.778L234.644 232.571L234.237 232.497C234.195 232.491 234.155 232.478 234.116 232.464C234.064 232.447 234.014 232.431 233.964 232.431C233.616 232.357 233.284 232.275 232.944 232.187L232.522 232.083L232.293 232.009L231.946 231.906C231.613 231.802 231.281 231.684 230.955 231.566L230.667 231.462L230.534 231.418L229.795 231.092L229.374 230.915C228.96 230.715 228.561 230.508 228.176 230.287L177.977 201.436Z" stroke="#A0A0AB" stroke-width="5" mask="url(#path-5-inside-1_414_171)"/>
</g>
<mask id="path-6-inside-2_414_171" fill="white">
<path d="M177.755 143.259L227.955 172.084C228.339 172.306 228.738 172.513 229.152 172.705L229.573 172.889L230.312 173.215L230.445 173.259L230.734 173.363L231.724 173.702L232.049 173.836L232.278 173.909L232.7 174.013C233.04 174.102 233.372 174.183 233.72 174.257C233.808 174.257 233.897 174.309 233.993 174.323L234.4 174.397L235.264 174.545L235.612 174.604C235.737 174.604 235.87 174.604 235.996 174.649C236.269 174.649 236.536 174.715 236.809 174.737L237.201 174.782H237.57L238.398 174.826H238.812H240.49H240.756C241.125 174.826 241.495 174.826 241.857 174.752H242.308H242.441C243.069 174.685 243.69 174.604 244.296 174.493H244.392C244.569 174.493 244.739 174.419 244.917 174.382C245.22 174.323 245.523 174.264 245.819 174.19L246.462 174.02L247.304 173.784L247.489 173.732C247.822 173.621 248.154 173.503 248.479 173.377L248.62 173.326C248.982 173.185 249.359 173.037 249.669 172.875L249.965 172.734C250.349 172.557 250.719 172.365 251.074 172.158L300.948 143.333L301.147 143.215C301.295 143.119 301.421 143.023 301.568 142.934C301.716 142.845 301.975 142.675 302.16 142.542C302.344 142.409 302.463 142.298 302.618 142.18L303.121 141.766L303.217 141.685C303.431 141.493 303.623 141.293 303.808 141.094L303.919 140.968L304.237 140.598L304.451 140.303L304.532 140.192C304.662 140.008 304.783 139.819 304.894 139.623C304.894 139.623 304.894 139.542 304.953 139.505C305.042 139.335 305.116 139.165 305.19 138.995C305.264 138.825 305.293 138.802 305.33 138.699C305.367 138.596 305.33 138.632 305.33 138.596C305.39 138.44 305.427 138.278 305.471 138.115C305.515 137.952 305.545 137.893 305.567 137.783C305.563 137.753 305.563 137.723 305.567 137.694C305.567 137.524 305.611 137.354 305.626 137.184C305.641 137.014 305.663 136.962 305.663 136.851C305.153 134.93 303.616 133.074 301.036 131.596L250.837 102.772C244.429 99.0761 234.067 99.0761 227.696 102.772L177.822 131.596C174.762 133.326 173.195 135.676 173.143 138.034C173.661 139.948 175.191 141.788 177.755 143.259Z"/>
</mask>
<path d="M177.755 143.259L227.955 172.084C228.339 172.306 228.738 172.513 229.152 172.705L229.573 172.889L230.312 173.215L230.445 173.259L230.734 173.363L231.724 173.702L232.049 173.836L232.278 173.909L232.7 174.013C233.04 174.102 233.372 174.183 233.72 174.257C233.808 174.257 233.897 174.309 233.993 174.323L234.4 174.397L235.264 174.545L235.612 174.604C235.737 174.604 235.87 174.604 235.996 174.649C236.269 174.649 236.536 174.715 236.809 174.737L237.201 174.782H237.57L238.398 174.826H238.812H240.49H240.756C241.125 174.826 241.495 174.826 241.857 174.752H242.308H242.441C243.069 174.685 243.69 174.604 244.296 174.493H244.392C244.569 174.493 244.739 174.419 244.917 174.382C245.22 174.323 245.523 174.264 245.819 174.19L246.462 174.02L247.304 173.784L247.489 173.732C247.822 173.621 248.154 173.503 248.479 173.377L248.62 173.326C248.982 173.185 249.359 173.037 249.669 172.875L249.965 172.734C250.349 172.557 250.719 172.365 251.074 172.158L300.948 143.333L301.147 143.215C301.295 143.119 301.421 143.023 301.568 142.934C301.716 142.845 301.975 142.675 302.16 142.542C302.344 142.409 302.463 142.298 302.618 142.18L303.121 141.766L303.217 141.685C303.431 141.493 303.623 141.293 303.808 141.094L303.919 140.968L304.237 140.598L304.451 140.303L304.532 140.192C304.662 140.008 304.783 139.819 304.894 139.623C304.894 139.623 304.894 139.542 304.953 139.505C305.042 139.335 305.116 139.165 305.19 138.995C305.264 138.825 305.293 138.802 305.33 138.699C305.367 138.596 305.33 138.632 305.33 138.596C305.39 138.44 305.427 138.278 305.471 138.115C305.515 137.952 305.545 137.893 305.567 137.783C305.563 137.753 305.563 137.723 305.567 137.694C305.567 137.524 305.611 137.354 305.626 137.184C305.641 137.014 305.663 136.962 305.663 136.851C305.153 134.93 303.616 133.074 301.036 131.596L250.837 102.772C244.429 99.0761 234.067 99.0761 227.696 102.772L177.822 131.596C174.762 133.326 173.195 135.676 173.143 138.034C173.661 139.948 175.191 141.788 177.755 143.259Z" fill="url(#paint4_linear_414_171)" fill-opacity="0.15" stroke="url(#paint5_radial_414_171)" stroke-width="5" mask="url(#path-6-inside-2_414_171)"/>
<g clip-path="url(#clip0_414_171)">
<path opacity="0.4" d="M247.713 128.512C251.248 128.533 254.772 129.322 257.469 130.879C262.937 134.035 262.937 139.153 257.469 142.309C254.772 143.866 251.248 144.655 247.713 144.676" stroke="#FE9154" stroke-width="3" stroke-linecap="round" stroke-linejoin="round"/>
<path d="M220.7 142.309C226.167 145.465 235.031 145.465 240.499 142.309C245.966 139.153 245.966 134.035 240.499 130.879C235.031 127.723 226.167 127.723 220.7 130.879C215.232 134.035 215.232 139.153 220.7 142.309Z" stroke="#FE9154" stroke-width="3" stroke-linecap="round" stroke-linejoin="round"/>
</g>
<defs>
<linearGradient id="paint0_linear_414_171" x1="-2.96477" y1="40.5083" x2="245.173" y2="182.924" gradientUnits="userSpaceOnUse">
<stop offset="0.226847" stop-color="#383A41" stop-opacity="0"/>
<stop offset="0.336224" stop-color="#383A41"/>
<stop offset="0.596645" stop-color="#383A41"/>
<stop offset="0.721647" stop-color="#383A41" stop-opacity="0"/>
</linearGradient>
<linearGradient id="paint1_linear_414_171" x1="-2.96477" y1="99.5083" x2="245.173" y2="241.924" gradientUnits="userSpaceOnUse">
<stop offset="0.226847" stop-color="#383A41" stop-opacity="0"/>
<stop offset="0.336224" stop-color="#383A41"/>
<stop offset="0.596645" stop-color="#383A41"/>
<stop offset="0.721647" stop-color="#383A41" stop-opacity="0"/>
</linearGradient>
<linearGradient id="paint2_linear_414_171" x1="64.1787" y1="1.5632" x2="312.316" y2="143.978" gradientUnits="userSpaceOnUse">
<stop offset="0.226847" stop-color="#383A41" stop-opacity="0"/>
<stop offset="0.336224" stop-color="#383A41"/>
<stop offset="0.596645" stop-color="#383A41"/>
<stop offset="0.721647" stop-color="#383A41" stop-opacity="0"/>
</linearGradient>
<linearGradient id="paint3_linear_414_171" x1="64.1787" y1="60.5632" x2="312.316" y2="202.978" gradientUnits="userSpaceOnUse">
<stop offset="0.0225516" stop-color="#383A41" stop-opacity="0"/>
<stop offset="0.336224" stop-color="#383A41"/>
<stop offset="0.461226" stop-color="#383A41" stop-opacity="0"/>
</linearGradient>
<linearGradient id="paint4_linear_414_171" x1="239.143" y1="94.5" x2="239.143" y2="175" gradientUnits="userSpaceOnUse">
<stop stop-color="#FE9154" stop-opacity="0.45"/>
<stop offset="0.42" stop-color="#FE9154" stop-opacity="0.7"/>
<stop offset="1" stop-color="#FE9154" stop-opacity="0"/>
</linearGradient>
<radialGradient id="paint5_radial_414_171" cx="0" cy="0" r="1" gradientUnits="userSpaceOnUse" gradientTransform="translate(239.403 135.25) rotate(90) scale(57.25 101.392)">
<stop stop-color="#FE9154"/>
<stop offset="1" stop-color="#FE9154" stop-opacity="0"/>
</radialGradient>
<clipPath id="clip0_414_171">
<rect width="39.191" height="39.191" fill="white" transform="matrix(0.866044 0.499967 -0.866044 0.499967 239.085 117)"/>
</clipPath>
</defs>
</svg>
