<svg width="110" height="110" viewBox="0 0 110 110" fill="none" xmlns="http://www.w3.org/2000/svg">
<rect x="0.55" y="0.55" width="108.9" height="108.9" rx="26.95" fill="url(#paint0_linear_451_175)" stroke="url(#paint1_linear_451_175)" stroke-width="1.1"/>
<rect x="9.35005" y="9.35005" width="91.3" height="91.3" stroke="#FCFCFC" stroke-opacity="0.15" stroke-width="1.1"/>
<circle cx="54.4501" cy="55.55" r="45.15" stroke="#FCFCFC" stroke-opacity="0.15"/>
<circle cx="55" cy="55" r="27" stroke="#FCFCFC" stroke-opacity="0.05"/>
<line x1="8.4465" y1="100.846" x2="100.846" y2="8.44641" stroke="#FCFCFC" stroke-opacity="0.02"/>
<line x1="9.1536" y1="8.44643" x2="101.554" y2="100.846" stroke="#FCFCFC" stroke-opacity="0.02"/>
<line x1="1.09998" y1="54.5" x2="110" y2="54.5" stroke="#FCFCFC" stroke-opacity="0.02"/>
<line x1="55.05" y1="109.45" x2="55.05" y2="0.54995" stroke="#FCFCFC" stroke-opacity="0.02"/>
<g style="mix-blend-mode:hard-light">
<path opacity="0.6" d="M36 87V47C36 54.9565 39.1607 62.5871 44.7868 68.2132C50.4129 73.8393 58.0435 77 66 77" stroke="#FCFCFC" stroke-width="6.66667" stroke-linecap="round" stroke-linejoin="round"/>
<path d="M76 87C81.5228 87 86 82.5228 86 77C86 71.4772 81.5228 67 76 67C70.4772 67 66 71.4772 66 77C66 82.5228 70.4772 87 76 87Z" stroke="#FCFCFC" stroke-width="6.66667" stroke-linecap="round" stroke-linejoin="round"/>
<path d="M36 47C41.5228 47 46 42.5228 46 37C46 31.4772 41.5228 27 36 27C30.4772 27 26 31.4772 26 37C26 42.5228 30.4772 47 36 47Z" stroke="#FCFCFC" stroke-width="6.66667" stroke-linecap="round" stroke-linejoin="round"/>
</g>
<defs>
<linearGradient id="paint0_linear_451_175" x1="55" y1="0" x2="55" y2="110" gradientUnits="userSpaceOnUse">
<stop stop-color="#0066FF"/>
<stop offset="1" stop-color="#003078"/>
</linearGradient>
<linearGradient id="paint1_linear_451_175" x1="55" y1="0" x2="55" y2="110" gradientUnits="userSpaceOnUse">
<stop stop-color="#4D94FF"/>
<stop offset="1" stop-color="#4299FF" stop-opacity="0.2"/>
</linearGradient>
</defs>
</svg>
