<svg width="110" height="110" viewBox="0 0 110 110" fill="none" xmlns="http://www.w3.org/2000/svg">
<g clip-path="url(#clip0_451_142)">
<path d="M82.5 0.549988H27.5C12.616 0.549988 0.550049 12.6159 0.550049 27.5V82.5C0.550049 97.3841 12.616 109.45 27.5 109.45H82.5C97.3841 109.45 109.45 97.3841 109.45 82.5V27.5C109.45 12.6159 97.3841 0.549988 82.5 0.549988Z" fill="url(#paint0_linear_451_142)" stroke="url(#paint1_linear_451_142)" stroke-width="1.1"/>
<path d="M100.65 9.34998H9.3501V100.65H100.65V9.34998Z" stroke="#FCFCFC" stroke-opacity="0.2" stroke-width="1.1"/>
<path d="M54.4501 100.7C79.3857 100.7 99.6 80.4857 99.6 55.55C99.6 30.6144 79.3857 10.4 54.4501 10.4C29.5144 10.4 9.30005 30.6144 9.30005 55.55C9.30005 80.4857 29.5144 100.7 54.4501 100.7Z" stroke="#FCFCFC" stroke-opacity="0.15"/>
<path d="M55 82C69.9117 82 82 69.9117 82 55C82 40.0883 69.9117 28 55 28C40.0883 28 28 40.0883 28 55C28 69.9117 40.0883 82 55 82Z" stroke="#FCFCFC" stroke-opacity="0.05"/>
<path d="M8.44653 100.846L100.846 8.44641" stroke="#FCFCFC" stroke-opacity="0.05"/>
<path d="M9.15356 8.44641L101.554 100.846" stroke="#FCFCFC" stroke-opacity="0.05"/>
<path d="M1.09998 54.5H110" stroke="#FCFCFC" stroke-opacity="0.05"/>
<path d="M55.05 109.45V0.549927" stroke="#FCFCFC" stroke-opacity="0.05"/>
<g style="mix-blend-mode:hard-light">
<path opacity="0.6" d="M74.593 81.9672C68.8981 86.1048 62.0395 88.3333 55.0002 88.3333C47.9609 88.3333 41.1022 86.1048 35.4073 81.9672M69.6125 25.0402C75.9394 28.126 81.127 33.1356 84.4317 39.3509C87.7365 45.5663 88.9888 52.6683 88.0091 59.6391M21.9915 59.6388C21.0119 52.668 22.2641 45.5659 25.5689 39.3506C28.8737 33.1353 34.0612 28.1257 40.3881 25.0399" stroke="#F4F4F5" stroke-width="6.66667" stroke-linecap="round" stroke-linejoin="round"/>
<path d="M55 73.3334C65.1252 73.3334 73.3333 65.1252 73.3333 55C73.3333 44.8748 65.1252 36.6667 55 36.6667C44.8747 36.6667 36.6666 44.8748 36.6666 55C36.6666 65.1252 44.8747 73.3334 55 73.3334Z" stroke="#F4F4F5" stroke-width="6.66667" stroke-linecap="round" stroke-linejoin="round"/>
</g>
</g>
<defs>
<linearGradient id="paint0_linear_451_142" x1="55" y1="-1.21586e-05" x2="55" y2="110" gradientUnits="userSpaceOnUse">
<stop stop-color="#FFBE41"/>
<stop offset="1" stop-color="#604819"/>
</linearGradient>
<linearGradient id="paint1_linear_451_142" x1="55" y1="-1.21586e-05" x2="55" y2="110" gradientUnits="userSpaceOnUse">
<stop stop-color="#FFDC8F"/>
<stop offset="1" stop-color="#FFDC8F" stop-opacity="0.2"/>
</linearGradient>
<clipPath id="clip0_451_142">
<rect width="110" height="110" fill="white"/>
</clipPath>
</defs>
</svg>
