<svg width="307" height="239" viewBox="0 0 307 239" fill="none" xmlns="http://www.w3.org/2000/svg">
<g opacity="0.4">
<mask id="path-1-inside-1_414_171" fill="white">
<path d="M171.834 201.436C168.604 199.587 167 197.147 167 194.715L167.17 138.263C167.163 135.845 168.744 133.442 171.922 131.609L221.796 102.773C228.167 99.0758 238.53 99.0758 244.938 102.773L295.137 131.609C298.566 133.605 300.156 136.2 299.934 138.781C299.939 138.723 299.95 138.651 299.961 138.575C299.979 138.45 299.999 138.314 300 138.217L299.763 194.848V194.996C299.763 195.057 299.757 195.1 299.748 195.154C299.741 195.199 299.733 195.252 299.727 195.329C299.725 195.344 299.724 195.359 299.722 195.375L299.718 195.403L299.714 195.432C299.71 195.465 299.705 195.499 299.699 195.533C299.683 195.635 299.667 195.737 299.667 195.839C299.664 195.868 299.664 195.898 299.667 195.927C299.655 195.99 299.64 196.036 299.622 196.094C299.616 196.111 299.61 196.129 299.604 196.149L299.594 196.18C299.587 196.204 299.579 196.23 299.571 196.26C299.561 196.297 299.552 196.334 299.542 196.371C299.509 196.495 299.476 196.622 299.431 196.741C299.431 196.753 299.435 196.757 299.439 196.761C299.447 196.769 299.455 196.776 299.431 196.844C299.412 196.897 299.395 196.929 299.373 196.969C299.352 197.009 299.327 197.057 299.29 197.14C299.217 197.31 299.143 197.48 299.054 197.65C298.995 197.687 298.995 197.731 298.995 197.769C298.884 197.964 298.763 198.154 298.633 198.338L298.551 198.449L298.337 198.744L298.019 199.114L297.908 199.24C297.724 199.44 297.531 199.639 297.317 199.831L297.221 199.913L296.718 200.327C296.68 200.358 296.644 200.387 296.609 200.417C296.501 200.505 296.399 200.589 296.26 200.689C296.075 200.822 295.817 200.992 295.669 201.081C295.595 201.125 295.527 201.173 295.458 201.221C295.39 201.269 295.322 201.318 295.248 201.362L295.048 201.48L245.174 230.331C244.804 230.538 244.45 230.73 244.065 230.915L243.77 231.055C243.459 231.211 243.082 231.359 242.72 231.499L242.58 231.551C242.255 231.677 241.922 231.795 241.589 231.906L240.562 232.194L239.919 232.364C239.623 232.438 239.32 232.497 239.017 232.556C238.957 232.569 238.898 232.586 238.839 232.603C238.724 232.635 238.61 232.667 238.493 232.667H238.397C237.79 232.778 237.17 232.86 236.541 232.926H235.957L234.856 233H232.499L231.671 232.956H231.301L230.91 232.911C230.636 232.889 230.37 232.86 230.096 232.823C229.971 232.778 229.838 232.778 229.712 232.778L228.5 232.571L228.094 232.497C228.052 232.491 228.012 232.478 227.972 232.464C227.921 232.447 227.87 232.431 227.82 232.431C227.473 232.357 227.14 232.275 226.8 232.187L226.379 232.083L226.15 232.009L225.802 231.906C225.47 231.802 225.137 231.684 224.812 231.566L224.524 231.462L224.391 231.418L223.652 231.092L223.23 230.915C222.816 230.715 222.417 230.508 222.033 230.287L171.834 201.436Z"/>
</mask>
<path d="M171.834 201.436C168.604 199.587 167 197.147 167 194.715L167.17 138.263C167.163 135.845 168.744 133.442 171.922 131.609L221.796 102.773C228.167 99.0758 238.53 99.0758 244.938 102.773L295.137 131.609C298.566 133.605 300.156 136.2 299.934 138.781C299.939 138.723 299.95 138.651 299.961 138.575C299.979 138.45 299.999 138.314 300 138.217L299.763 194.848V194.996C299.763 195.057 299.757 195.1 299.748 195.154C299.741 195.199 299.733 195.252 299.727 195.329C299.725 195.344 299.724 195.359 299.722 195.375L299.718 195.403L299.714 195.432C299.71 195.465 299.705 195.499 299.699 195.533C299.683 195.635 299.667 195.737 299.667 195.839C299.664 195.868 299.664 195.898 299.667 195.927C299.655 195.99 299.64 196.036 299.622 196.094C299.616 196.111 299.61 196.129 299.604 196.149L299.594 196.18C299.587 196.204 299.579 196.23 299.571 196.26C299.561 196.297 299.552 196.334 299.542 196.371C299.509 196.495 299.476 196.622 299.431 196.741C299.431 196.753 299.435 196.757 299.439 196.761C299.447 196.769 299.455 196.776 299.431 196.844C299.412 196.897 299.395 196.929 299.373 196.969C299.352 197.009 299.327 197.057 299.29 197.14C299.217 197.31 299.143 197.48 299.054 197.65C298.995 197.687 298.995 197.731 298.995 197.769C298.884 197.964 298.763 198.154 298.633 198.338L298.551 198.449L298.337 198.744L298.019 199.114L297.908 199.24C297.724 199.44 297.531 199.639 297.317 199.831L297.221 199.913L296.718 200.327C296.68 200.358 296.644 200.387 296.609 200.417C296.501 200.505 296.399 200.589 296.26 200.689C296.075 200.822 295.817 200.992 295.669 201.081C295.595 201.125 295.527 201.173 295.458 201.221C295.39 201.269 295.322 201.318 295.248 201.362L295.048 201.48L245.174 230.331C244.804 230.538 244.45 230.73 244.065 230.915L243.77 231.055C243.459 231.211 243.082 231.359 242.72 231.499L242.58 231.551C242.255 231.677 241.922 231.795 241.589 231.906L240.562 232.194L239.919 232.364C239.623 232.438 239.32 232.497 239.017 232.556C238.957 232.569 238.898 232.586 238.839 232.603C238.724 232.635 238.61 232.667 238.493 232.667H238.397C237.79 232.778 237.17 232.86 236.541 232.926H235.957L234.856 233H232.499L231.671 232.956H231.301L230.91 232.911C230.636 232.889 230.37 232.86 230.096 232.823C229.971 232.778 229.838 232.778 229.712 232.778L228.5 232.571L228.094 232.497C228.052 232.491 228.012 232.478 227.972 232.464C227.921 232.447 227.87 232.431 227.82 232.431C227.473 232.357 227.14 232.275 226.8 232.187L226.379 232.083L226.15 232.009L225.802 231.906C225.47 231.802 225.137 231.684 224.812 231.566L224.524 231.462L224.391 231.418L223.652 231.092L223.23 230.915C222.816 230.715 222.417 230.508 222.033 230.287L171.834 201.436Z" stroke="#A0A0AB" stroke-width="5" mask="url(#path-1-inside-1_414_171)"/>
</g>
<mask id="path-2-inside-2_414_171" fill="white">
<path d="M171.612 143.259L221.811 172.084C222.196 172.306 222.595 172.513 223.009 172.705L223.43 172.889L224.169 173.215L224.302 173.259L224.59 173.363L225.581 173.702L225.906 173.836L226.135 173.909L226.556 174.013C226.896 174.102 227.229 174.183 227.576 174.257C227.665 174.257 227.754 174.309 227.85 174.323L228.256 174.397L229.121 174.545L229.468 174.604C229.594 174.604 229.727 174.604 229.853 174.649C230.126 174.649 230.392 174.715 230.666 174.737L231.057 174.782H231.427L232.255 174.826H232.669H234.346H234.612C234.982 174.826 235.351 174.826 235.714 174.752H236.164H236.297C236.926 174.685 237.547 174.604 238.153 174.493H238.249C238.426 174.493 238.596 174.419 238.773 174.382C239.076 174.323 239.379 174.264 239.675 174.19L240.318 174.02L241.161 173.784L241.345 173.732C241.678 173.621 242.011 173.503 242.336 173.377L242.476 173.326C242.838 173.185 243.215 173.037 243.526 172.875L243.821 172.734C244.206 172.557 244.575 172.365 244.93 172.158L294.804 143.333L295.004 143.215C295.152 143.119 295.277 143.023 295.425 142.934C295.573 142.845 295.832 142.675 296.016 142.542C296.201 142.409 296.319 142.298 296.475 142.18L296.977 141.766L297.073 141.685C297.288 141.493 297.48 141.293 297.664 141.094L297.775 140.968L298.093 140.598L298.307 140.303L298.389 140.192C298.519 140.008 298.64 139.819 298.751 139.623C298.751 139.623 298.751 139.542 298.81 139.505C298.899 139.335 298.973 139.165 299.047 138.995C299.12 138.825 299.15 138.802 299.187 138.699C299.224 138.596 299.187 138.632 299.187 138.596C299.246 138.44 299.283 138.278 299.327 138.115C299.372 137.952 299.401 137.893 299.424 137.783C299.42 137.753 299.42 137.723 299.424 137.694C299.424 137.524 299.468 137.354 299.483 137.184C299.497 137.014 299.52 136.962 299.52 136.851C299.01 134.93 297.472 133.074 294.893 131.596L244.694 102.772C238.286 99.0761 227.924 99.0761 221.553 102.772L171.678 131.596C168.619 133.326 167.052 135.676 167 138.034C167.517 139.948 169.047 141.788 171.612 143.259Z"/>
</mask>
<path d="M171.612 143.259L221.811 172.084C222.196 172.306 222.595 172.513 223.009 172.705L223.43 172.889L224.169 173.215L224.302 173.259L224.59 173.363L225.581 173.702L225.906 173.836L226.135 173.909L226.556 174.013C226.896 174.102 227.229 174.183 227.576 174.257C227.665 174.257 227.754 174.309 227.85 174.323L228.256 174.397L229.121 174.545L229.468 174.604C229.594 174.604 229.727 174.604 229.853 174.649C230.126 174.649 230.392 174.715 230.666 174.737L231.057 174.782H231.427L232.255 174.826H232.669H234.346H234.612C234.982 174.826 235.351 174.826 235.714 174.752H236.164H236.297C236.926 174.685 237.547 174.604 238.153 174.493H238.249C238.426 174.493 238.596 174.419 238.773 174.382C239.076 174.323 239.379 174.264 239.675 174.19L240.318 174.02L241.161 173.784L241.345 173.732C241.678 173.621 242.011 173.503 242.336 173.377L242.476 173.326C242.838 173.185 243.215 173.037 243.526 172.875L243.821 172.734C244.206 172.557 244.575 172.365 244.93 172.158L294.804 143.333L295.004 143.215C295.152 143.119 295.277 143.023 295.425 142.934C295.573 142.845 295.832 142.675 296.016 142.542C296.201 142.409 296.319 142.298 296.475 142.18L296.977 141.766L297.073 141.685C297.288 141.493 297.48 141.293 297.664 141.094L297.775 140.968L298.093 140.598L298.307 140.303L298.389 140.192C298.519 140.008 298.64 139.819 298.751 139.623C298.751 139.623 298.751 139.542 298.81 139.505C298.899 139.335 298.973 139.165 299.047 138.995C299.12 138.825 299.15 138.802 299.187 138.699C299.224 138.596 299.187 138.632 299.187 138.596C299.246 138.44 299.283 138.278 299.327 138.115C299.372 137.952 299.401 137.893 299.424 137.783C299.42 137.753 299.42 137.723 299.424 137.694C299.424 137.524 299.468 137.354 299.483 137.184C299.497 137.014 299.52 136.962 299.52 136.851C299.01 134.93 297.472 133.074 294.893 131.596L244.694 102.772C238.286 99.0761 227.924 99.0761 221.553 102.772L171.678 131.596C168.619 133.326 167.052 135.676 167 138.034C167.517 139.948 169.047 141.788 171.612 143.259Z" fill="url(#paint0_linear_414_171)" fill-opacity="0.15" stroke="url(#paint1_radial_414_171)" stroke-width="5" mask="url(#path-2-inside-2_414_171)"/>
<g clip-path="url(#clip0_414_171)">
<path opacity="0.4" d="M247.819 141.287L251.072 139.409C252.656 138.495 253.448 138.038 253.745 137.511C254.006 137.047 254.006 136.547 253.745 136.083C253.448 135.556 252.656 135.099 251.072 134.185L234.668 124.714C233.084 123.8 232.292 123.343 231.378 123.171C230.575 123.021 229.71 123.021 228.906 123.171C227.993 123.343 227.201 123.8 225.617 124.714L212.041 132.552C210.457 133.466 209.665 133.923 209.368 134.451C209.107 134.914 209.107 135.414 209.368 135.878C209.665 136.405 210.457 136.862 212.041 137.777L228.445 147.247C230.029 148.161 230.821 148.619 231.735 148.79C232.538 148.941 233.403 148.941 234.207 148.79C235.12 148.619 235.912 148.161 237.496 147.247L240.748 145.369" stroke="#8A54FE" stroke-width="3" stroke-linecap="round" stroke-linejoin="round"/>
<path d="M240.041 144.961C240.698 145.34 241.027 145.53 241.354 145.656C242.7 146.175 244.454 146.175 245.799 145.656C246.126 145.53 246.455 145.34 247.112 144.961C247.769 144.582 248.098 144.392 248.317 144.203C249.215 143.426 249.215 142.414 248.317 141.637C248.098 141.448 247.769 141.258 247.112 140.879L244.284 139.246C243.627 138.867 243.298 138.677 242.97 138.551C241.625 138.032 239.871 138.032 238.526 138.551C238.199 138.677 237.87 138.867 237.213 139.246C236.556 139.626 236.227 139.815 236.008 140.004C235.11 140.781 235.11 141.794 236.008 142.57C236.227 142.759 236.556 142.949 237.213 143.328L240.041 144.961Z" stroke="#8A54FE" stroke-width="3" stroke-linecap="round" stroke-linejoin="round"/>
</g>
<g opacity="0.4">
<line x1="1.02452" y1="40.6705" x2="238.863" y2="177.986" stroke="url(#paint2_linear_414_171)" stroke-width="1.5" stroke-linecap="round"/>
<line x1="1.02452" y1="99.6705" x2="238.863" y2="236.986" stroke="url(#paint3_linear_414_171)" stroke-width="1.5" stroke-linecap="round"/>
<line x1="68.168" y1="1.72548" x2="306.006" y2="139.041" stroke="url(#paint4_linear_414_171)" stroke-width="1.5" stroke-linecap="round"/>
<line x1="68.168" y1="60.7255" x2="306.006" y2="198.041" stroke="url(#paint5_linear_414_171)" stroke-width="1.5" stroke-linecap="round"/>
</g>
<defs>
<linearGradient id="paint0_linear_414_171" x1="233" y1="94.5" x2="233" y2="175" gradientUnits="userSpaceOnUse">
<stop stop-color="#8A54FE"/>
<stop offset="0.42" stop-color="#8A54FE" stop-opacity="0.7"/>
<stop offset="1" stop-color="#8A54FE" stop-opacity="0"/>
</linearGradient>
<radialGradient id="paint1_radial_414_171" cx="0" cy="0" r="1" gradientUnits="userSpaceOnUse" gradientTransform="translate(233.26 135.25) rotate(90) scale(57.25 101.392)">
<stop stop-color="#8A54FE"/>
<stop offset="1" stop-color="#8A54FE" stop-opacity="0"/>
</radialGradient>
<linearGradient id="paint2_linear_414_171" x1="-2.96477" y1="40.5083" x2="245.173" y2="182.924" gradientUnits="userSpaceOnUse">
<stop offset="0.226847" stop-color="#383A41" stop-opacity="0"/>
<stop offset="0.336224" stop-color="#383A41"/>
<stop offset="0.596645" stop-color="#383A41"/>
<stop offset="0.721647" stop-color="#383A41" stop-opacity="0"/>
</linearGradient>
<linearGradient id="paint3_linear_414_171" x1="-2.96477" y1="99.5083" x2="245.173" y2="241.924" gradientUnits="userSpaceOnUse">
<stop offset="0.226847" stop-color="#383A41" stop-opacity="0"/>
<stop offset="0.336224" stop-color="#383A41"/>
<stop offset="0.596645" stop-color="#383A41"/>
<stop offset="0.721647" stop-color="#383A41" stop-opacity="0"/>
</linearGradient>
<linearGradient id="paint4_linear_414_171" x1="64.1787" y1="1.5632" x2="312.316" y2="143.978" gradientUnits="userSpaceOnUse">
<stop offset="0.226847" stop-color="#383A41" stop-opacity="0"/>
<stop offset="0.336224" stop-color="#383A41"/>
<stop offset="0.596645" stop-color="#383A41"/>
<stop offset="0.721647" stop-color="#383A41" stop-opacity="0"/>
</linearGradient>
<linearGradient id="paint5_linear_414_171" x1="64.1787" y1="60.5632" x2="312.316" y2="202.978" gradientUnits="userSpaceOnUse">
<stop offset="0.0225516" stop-color="#383A41" stop-opacity="0"/>
<stop offset="0.336224" stop-color="#383A41"/>
<stop offset="0.461226" stop-color="#383A41" stop-opacity="0"/>
</linearGradient>
<clipPath id="clip0_414_171">
<rect width="39.1897" height="39.1897" fill="white" transform="matrix(0.866044 0.499967 -0.866044 0.499967 232.97 117.204)"/>
</clipPath>
</defs>
</svg>
