<svg width="28" height="28" viewBox="0 0 28 28" fill="none" xmlns="http://www.w3.org/2000/svg">
<path opacity="0.4" d="M2 8.4C2 6.15979 2 5.03969 2.43597 4.18404C2.81947 3.43139 3.43139 2.81947 4.18404 2.43597C5.03969 2 6.15979 2 8.4 2H19.6C21.8402 2 22.9603 2 23.816 2.43597C24.5686 2.81947 25.1805 3.43139 25.564 4.18404C26 5.03969 26 6.15979 26 8.4V19.6C26 21.8402 26 22.9603 25.564 23.816C25.1805 24.5686 24.5686 25.1805 23.816 25.564C22.9603 26 21.8402 26 19.6 26H8.4C6.15979 26 5.03969 26 4.18404 25.564C3.43139 25.1805 2.81947 24.5686 2.43597 23.816C2 22.9603 2 21.8402 2 19.6V8.4Z" stroke="#A0A0AB" stroke-width="2.66667" stroke-linecap="round" stroke-linejoin="round"/>
<path d="M8.66663 14H19.3333" stroke="#A0A0AB" stroke-width="2.66667" stroke-linecap="round" stroke-linejoin="round"/>
</svg>
