<svg width="111" height="111" viewBox="0 0 111 111" fill="none" xmlns="http://www.w3.org/2000/svg">
<rect x="1.45002" y="1.45002" width="108.9" height="108.9" rx="26.95" stroke="#383A41" stroke-width="1.1"/>
<rect x="10.2501" y="10.2501" width="91.3" height="91.3" stroke="#383A41" stroke-width="1.1"/>
<circle cx="55.3501" cy="56.4501" r="45.1" stroke="#383A41" stroke-width="1.1"/>
<circle cx="55.9" cy="55.9" r="26.95" stroke="#383A41" stroke-width="1.1"/>
<line x1="9.31116" y1="101.711" x2="101.711" y2="9.31107" stroke="#383A41" stroke-width="1.1"/>
<line x1="10.089" y1="9.31116" x2="102.489" y2="101.711" stroke="#383A41" stroke-width="1.1"/>
<line x1="2" y1="55.35" x2="110.9" y2="55.35" stroke="#383A41" stroke-width="1.1"/>
<line x1="55.9001" y1="110.35" x2="55.9001" y2="1.44997" stroke="#383A41" stroke-width="1.1"/>
<mask id="path-9-inside-1_68_125" fill="white">
<path d="M15.0982 78.9893C12.9612 77.7668 11.9 76.153 11.9 74.5441L12.0125 37.2071C12.0076 35.608 13.0541 34.0186 15.1569 32.8058L48.1563 13.7339C52.3717 11.2887 59.2278 11.2887 63.4677 13.7339L96.6822 32.8058C98.9513 34.1262 100.003 35.8427 99.856 37.5494C99.8597 37.5112 99.8667 37.4635 99.874 37.4135C99.8862 37.3307 99.8995 37.2409 99.9 37.1768L99.7435 74.6321V74.7299C99.7435 74.7702 99.7391 74.7987 99.7335 74.8348C99.7289 74.8644 99.7235 74.8994 99.7191 74.95C99.7182 74.9602 99.7171 74.9705 99.716 74.9807L99.7137 74.9995L99.7112 75.0182C99.7081 75.0405 99.7046 75.0627 99.7011 75.085C99.6905 75.1525 99.68 75.2199 99.68 75.2874C99.6776 75.3069 99.6776 75.3266 99.68 75.3461C99.6717 75.3875 99.6619 75.418 99.6496 75.456C99.6459 75.4673 99.6421 75.4793 99.638 75.4924L99.6316 75.5133C99.6268 75.529 99.6218 75.5465 99.6164 75.5662C99.6097 75.5907 99.6033 75.6152 99.5969 75.6396L99.5963 75.6418C99.5748 75.7239 99.5534 75.8054 99.5235 75.884C99.5235 75.8924 99.5263 75.895 99.5291 75.8976C99.5345 75.9026 99.5396 75.9074 99.5235 75.9525C99.511 75.9874 99.4998 76.0083 99.4854 76.0354C99.4715 76.0613 99.4545 76.093 99.4306 76.1481C99.3817 76.2606 99.3327 76.3731 99.2741 76.4855C99.2349 76.51 99.2349 76.5393 99.2349 76.5638C99.1614 76.6932 99.0815 76.8189 98.9953 76.9403L98.9415 77.0137L98.7997 77.2093L98.5894 77.4538L98.5161 77.5369C98.3938 77.669 98.2667 77.801 98.1249 77.9282L98.0613 77.982L97.7288 78.2558C97.7034 78.2763 97.6795 78.296 97.6562 78.3152C97.5848 78.3739 97.5176 78.4292 97.4256 78.4954C97.3033 78.5835 97.1321 78.6959 97.0343 78.7546C96.9854 78.784 96.9402 78.8157 96.895 78.8475C96.8497 78.8793 96.8045 78.9111 96.7556 78.9404L96.6236 79.0187L63.6242 98.1005C63.3797 98.2374 63.1449 98.3645 62.8906 98.4868L62.695 98.5797C62.4896 98.6824 62.2402 98.7802 62.0006 98.8731L61.9077 98.9074C61.6925 98.9905 61.4725 99.0687 61.2524 99.1421L60.5727 99.3328L60.1472 99.4453C59.9516 99.4942 59.7511 99.5333 59.5506 99.5724C59.5108 99.5807 59.4715 99.5918 59.4324 99.6029C59.3563 99.6245 59.2809 99.6458 59.2034 99.6458H59.1398C58.7388 99.7191 58.328 99.7729 57.9124 99.8169H57.526L56.7974 99.8659H55.2374L54.6897 99.8365H54.4452L54.186 99.8072C54.0051 99.7925 53.829 99.7729 53.6481 99.7485C53.5649 99.7191 53.4769 99.7191 53.3938 99.7191L52.5918 99.5822L52.3228 99.5333C52.2953 99.5291 52.2688 99.5203 52.2427 99.5116C52.2085 99.5003 52.1752 99.4893 52.1419 99.4893C51.912 99.4404 51.692 99.3866 51.467 99.3279L51.1883 99.2595L51.0367 99.2106L50.8068 99.1421C50.5868 99.0736 50.3667 98.9954 50.1515 98.9171L49.9608 98.8487L49.8728 98.8193L49.3838 98.6042L49.105 98.4868C48.8312 98.3548 48.5671 98.2178 48.3128 98.0711L15.0982 78.9893Z"/>
</mask>
<path d="M11.9 74.5441L10.8 74.5408V74.5441H11.9ZM15.0982 78.9893L15.6462 78.0355L15.6445 78.0346L15.0982 78.9893ZM12.0125 37.2071L13.1125 37.2104L13.1125 37.2037L12.0125 37.2071ZM15.1569 32.8058L15.7065 33.7587L15.7074 33.7582L15.1569 32.8058ZM48.1563 13.7339L48.7067 14.6862L48.7082 14.6854L48.1563 13.7339ZM63.4677 13.7339L62.9181 14.6868L62.9199 14.6878L63.4677 13.7339ZM96.6822 32.8058L97.2355 31.8551L97.23 31.8519L96.6822 32.8058ZM99.856 37.5494L98.7601 37.4552L100.951 37.6538L99.856 37.5494ZM99.874 37.4135L98.7858 37.253L98.7858 37.2531L99.874 37.4135ZM99.9 37.1768L101 37.1814L98.8 37.1677L99.9 37.1768ZM99.7435 74.6321L98.6435 74.6275V74.6321H99.7435ZM99.7335 74.8348L98.6466 74.6659L98.6465 74.6661L99.7335 74.8348ZM99.7191 74.95L98.6232 74.8547L98.6232 74.8549L99.7191 74.95ZM99.716 74.9807L100.808 75.114L100.809 75.1058L99.716 74.9807ZM99.7137 74.9995L100.804 75.146L100.806 75.1328L99.7137 74.9995ZM99.7112 75.0182L100.801 75.1702L100.801 75.1648L99.7112 75.0182ZM99.7011 75.085L98.6143 74.9148L98.6143 74.9148L99.7011 75.085ZM99.68 75.2874L100.772 75.422L100.78 75.355V75.2874H99.68ZM99.68 75.3461L100.759 75.5618L100.793 75.3877L100.772 75.2115L99.68 75.3461ZM99.6496 75.456L100.696 75.7939L100.696 75.7936L99.6496 75.456ZM99.638 75.4924L98.5881 75.1642L98.5865 75.1694L99.638 75.4924ZM99.6316 75.5133L98.5801 75.1903L98.5785 75.1955L99.6316 75.5133ZM99.6164 75.5662L98.5552 75.2767L98.5551 75.2768L99.6164 75.5662ZM99.5969 75.6396L100.658 75.929L100.661 75.9182L99.5969 75.6396ZM99.5963 75.6418L98.535 75.3524L98.5322 75.363L99.5963 75.6418ZM99.5235 75.884L98.4955 75.4924L98.4235 75.6816V75.884H99.5235ZM99.5291 75.8976L98.7788 76.702L98.7797 76.7029L99.5291 75.8976ZM99.5235 75.9525L98.4876 75.5825L98.4875 75.5826L99.5235 75.9525ZM99.4854 76.0354L98.5155 75.5164L98.5154 75.5165L99.4854 76.0354ZM99.4306 76.1481L98.4218 75.7095L98.4218 75.7095L99.4306 76.1481ZM99.2741 76.4855L99.8571 77.4183L100.111 77.2597L100.249 76.9943L99.2741 76.4855ZM99.2349 76.5638L100.192 77.1069L100.335 76.8543V76.5638H99.2349ZM98.9953 76.9403L99.8824 77.5908L99.8875 77.5839L99.8924 77.5769L98.9953 76.9403ZM98.9415 77.0137L98.0545 76.3632L98.051 76.368L98.9415 77.0137ZM98.7997 77.2093L99.6337 77.9265L99.6635 77.8919L99.6903 77.855L98.7997 77.2093ZM98.5894 77.4538L99.4143 78.1817L99.4235 78.171L98.5894 77.4538ZM98.5161 77.5369L99.3232 78.2843L99.3322 78.2746L99.3409 78.2648L98.5161 77.5369ZM98.1249 77.9282L98.8354 78.7679L98.8474 78.7577L98.8592 78.7472L98.1249 77.9282ZM98.0613 77.982L98.7606 78.8311L98.7662 78.8264L98.7718 78.8217L98.0613 77.982ZM97.7288 78.2558L98.4209 79.1108L98.428 79.1049L97.7288 78.2558ZM97.6562 78.3152L98.3549 79.1647L98.355 79.1647L97.6562 78.3152ZM97.4256 78.4954L96.7829 77.6027L96.7828 77.6027L97.4256 78.4954ZM97.0343 78.7546L97.6002 79.6979L97.6003 79.6979L97.0343 78.7546ZM96.7556 78.9404L97.3164 79.8868L97.3216 79.8837L96.7556 78.9404ZM96.6236 79.0187L97.1742 79.971L97.1843 79.965L96.6236 79.0187ZM63.6242 98.1005L64.1617 99.0602L64.1683 99.0565L64.1748 99.0527L63.6242 98.1005ZM62.8906 98.4868L63.3626 99.4804L63.3673 99.4782L62.8906 98.4868ZM62.695 98.5797L62.2231 97.5861L62.213 97.5909L62.2031 97.5958L62.695 98.5797ZM62.0006 98.8731L62.3808 99.9053L62.3896 99.9021L62.3983 99.8987L62.0006 98.8731ZM61.9077 98.9074L61.5275 97.8751L61.5194 97.8781L61.5112 97.8813L61.9077 98.9074ZM61.2524 99.1421L61.5496 100.201L61.5751 100.194L61.6002 100.186L61.2524 99.1421ZM60.5727 99.3328L60.8538 100.396L60.8618 100.394L60.8698 100.392L60.5727 99.3328ZM60.1472 99.4453L60.414 100.512L60.4212 100.511L60.4283 100.509L60.1472 99.4453ZM59.5506 99.5724L59.3399 98.4927L59.3263 98.4955L59.5506 99.5724ZM59.4324 99.6029L59.1328 98.5445L59.1328 98.5445L59.4324 99.6029ZM59.1398 99.6458V98.5458H59.04L58.9419 98.5637L59.1398 99.6458ZM57.9124 99.8169V100.917H57.9704L58.0282 100.911L57.9124 99.8169ZM57.526 99.8169V98.7169H57.4892L57.4524 98.7194L57.526 99.8169ZM56.7974 99.8659V100.966H56.8343L56.8711 100.963L56.7974 99.8659ZM55.2374 99.8659L55.1786 100.964L55.208 100.966H55.2374V99.8659ZM54.6897 99.8365L54.7485 98.7381L54.7191 98.7365H54.6897V99.8365ZM54.4452 99.8365L54.3214 100.93L54.3831 100.937H54.4452V99.8365ZM54.186 99.8072L54.3097 98.7142L54.2924 98.7122L54.2749 98.7108L54.186 99.8072ZM53.6481 99.7485L53.282 100.786L53.3887 100.823L53.5008 100.839L53.6481 99.7485ZM53.3938 99.7191L53.2087 100.803L53.3006 100.819H53.3938V99.7191ZM52.5918 99.5822L52.395 100.665L52.4067 100.667L52.5918 99.5822ZM52.3228 99.5333L52.5196 98.451L52.5048 98.4484L52.4899 98.4461L52.3228 99.5333ZM52.2427 99.5116L51.8969 100.556L51.897 100.556L52.2427 99.5116ZM52.1419 99.4893L51.913 100.565L52.0262 100.589H52.1419V99.4893ZM51.467 99.3279L51.7447 98.2635L51.7371 98.2616L51.7294 98.2597L51.467 99.3279ZM51.1883 99.2595L50.8506 100.306L50.8879 100.318L50.9259 100.328L51.1883 99.2595ZM51.0367 99.2106L51.3743 98.1637L51.3626 98.1599L51.3507 98.1563L51.0367 99.2106ZM50.8068 99.1421L50.48 100.193L50.4928 100.196L50.8068 99.1421ZM50.1515 98.9171L50.5274 97.8834L50.5232 97.8818L50.1515 98.9171ZM49.9608 98.8487L50.3325 97.8134L50.3206 97.8091L50.3087 97.8051L49.9608 98.8487ZM49.8728 98.8193L49.4298 99.8262L49.4765 99.8467L49.525 99.8629L49.8728 98.8193ZM49.3838 98.6042L49.8268 97.5973L49.8187 97.5938L49.8106 97.5904L49.3838 98.6042ZM49.105 98.4868L48.6273 99.4776L48.6524 99.4898L48.6782 99.5006L49.105 98.4868ZM48.3128 98.0711L48.8625 97.1183L48.8608 97.1173L48.3128 98.0711ZM10.8 74.5441C10.8 76.684 12.2102 78.6045 14.552 79.9441L15.6445 78.0346C13.7122 76.9291 13 75.622 13 74.5441H10.8ZM10.9125 37.2037L10.8 74.5408L13 74.5474L13.1125 37.2104L10.9125 37.2037ZM14.6074 31.853C12.3021 33.1825 10.906 35.079 10.9125 37.2104L13.1125 37.2037C13.1092 36.1369 13.8062 34.8547 15.7065 33.7587L14.6074 31.853ZM47.6059 12.7815L14.6065 31.8535L15.7074 33.7582L48.7067 14.6862L47.6059 12.7815ZM64.0172 12.781C61.6912 11.4396 58.7161 10.8 55.8028 10.8C52.8899 10.8 49.9195 11.4395 47.6044 12.7824L48.7082 14.6854C50.6085 13.5831 53.1739 13 55.8028 13C58.4314 13 61.0043 13.583 62.9181 14.6868L64.0172 12.781ZM97.23 31.8519L64.0154 12.7799L62.9199 14.6878L96.1345 33.7598L97.23 31.8519ZM100.952 37.6436C101.149 35.3536 99.7104 33.2952 97.2355 31.8551L96.129 33.7566C98.1923 34.9572 98.8566 36.3318 98.7601 37.4552L100.952 37.6436ZM98.7858 37.2531C98.7798 37.2938 98.7679 37.3726 98.761 37.445L100.951 37.6538C100.951 37.656 100.951 37.6511 100.954 37.6346C100.956 37.6185 100.958 37.6001 100.962 37.5738L98.7858 37.2531ZM98.8 37.1677C98.8001 37.1581 98.8004 37.1511 98.8006 37.1472C98.8008 37.1432 98.801 37.1411 98.801 37.1411C98.801 37.141 98.8009 37.1423 98.8006 37.1452C98.8003 37.148 98.7999 37.1519 98.7992 37.157C98.7964 37.1805 98.7923 37.2087 98.7858 37.253L100.962 37.5739C100.97 37.521 100.999 37.3438 101 37.1859L98.8 37.1677ZM100.844 74.6367L101 37.1814L98.8 37.1722L98.6435 74.6275L100.844 74.6367ZM100.844 74.7299V74.6321H98.6435V74.7299H100.844ZM100.82 75.0037C100.826 74.9655 100.844 74.863 100.844 74.7299H98.6435C98.6435 74.7196 98.6438 74.7083 98.6445 74.6963C98.6452 74.6843 98.6461 74.6739 98.647 74.6655C98.6475 74.6614 98.6479 74.6582 98.6481 74.656C98.6484 74.6538 98.6486 74.6525 98.6486 74.6525C98.6486 74.6525 98.6486 74.6527 98.6485 74.6533C98.6484 74.6538 98.6483 74.6546 98.6481 74.6558C98.6477 74.6583 98.6473 74.6612 98.6466 74.6659L100.82 75.0037ZM100.815 75.0453C100.816 75.0377 100.816 75.0326 100.817 75.0287C100.817 75.0237 100.818 75.0187 100.82 75.0035L98.6465 74.6661C98.641 74.7014 98.6309 74.766 98.6232 74.8547L100.815 75.0453ZM100.809 75.1058C100.811 75.0873 100.813 75.0669 100.815 75.0451L98.6232 74.8549L98.6231 74.8555L100.809 75.1058ZM100.806 75.1328L100.808 75.114L98.6241 74.8474L98.6218 74.8661L100.806 75.1328ZM100.801 75.1648L100.804 75.146L98.6235 74.8529L98.621 74.8716L100.801 75.1648ZM100.788 75.2552C100.791 75.2344 100.796 75.2031 100.801 75.1702L98.6217 74.8662C98.6201 74.8778 98.6181 74.891 98.6143 74.9148L100.788 75.2552ZM100.78 75.2874C100.78 75.3099 100.778 75.3213 100.779 75.3144C100.779 75.3113 100.78 75.3055 100.782 75.2953C100.783 75.2845 100.785 75.2728 100.788 75.2551L98.6143 74.9148C98.6061 74.9673 98.58 75.1199 98.58 75.2874H100.78ZM100.772 75.2115C100.78 75.2814 100.78 75.3521 100.772 75.422L98.5882 75.1528C98.5748 75.2617 98.5748 75.3718 98.5882 75.4807L100.772 75.2115ZM100.696 75.7936C100.708 75.7567 100.737 75.672 100.759 75.5618L98.6013 75.1304C98.6024 75.1249 98.6037 75.119 98.6052 75.113C98.6067 75.1071 98.608 75.1023 98.6088 75.0995C98.6095 75.0968 98.6097 75.0963 98.6087 75.0995C98.6082 75.1011 98.6075 75.1033 98.6065 75.1065C98.6054 75.1099 98.6043 75.1135 98.6027 75.1184L100.696 75.7936ZM100.688 75.8207C100.69 75.8128 100.693 75.805 100.696 75.7939L98.6028 75.1181C98.5991 75.1296 98.5938 75.1458 98.5881 75.1642L100.688 75.8207ZM100.683 75.8363L100.689 75.8155L98.5865 75.1694L98.5801 75.1903L100.683 75.8363ZM100.678 75.8557C100.68 75.8461 100.683 75.8382 100.685 75.8311L98.5785 75.1955C98.5711 75.2199 98.5633 75.2468 98.5552 75.2767L100.678 75.8557ZM100.661 75.9182C100.668 75.8928 100.673 75.8738 100.678 75.8556L98.5551 75.2768C98.5467 75.3076 98.5389 75.3375 98.5328 75.3609L100.661 75.9182ZM100.551 76.2757C100.606 76.1323 100.641 75.993 100.66 75.9206L98.5322 75.363C98.5081 75.4549 98.5008 75.4785 98.4955 75.4924L100.551 76.2757ZM100.279 75.0932C100.272 75.0863 100.404 75.1995 100.501 75.3844C100.602 75.5788 100.623 75.7616 100.623 75.884H98.4235C98.4235 76.0148 98.4464 76.2031 98.5499 76.4015C98.5995 76.4968 98.6555 76.5705 98.703 76.6243C98.7256 76.6498 98.7452 76.6696 98.7581 76.6823C98.7646 76.6886 98.7699 76.6937 98.7733 76.6969C98.775 76.6985 98.7764 76.6998 98.7773 76.7006C98.7777 76.701 98.7781 76.7014 98.7783 76.7016C98.7786 76.7018 98.7788 76.702 98.7788 76.702L100.279 75.0932ZM100.559 76.3225C100.569 76.2968 100.633 76.1296 100.634 75.9192C100.635 75.782 100.612 75.5886 100.505 75.3867C100.454 75.2913 100.398 75.2184 100.351 75.1668C100.329 75.1422 100.31 75.1231 100.298 75.1111C100.292 75.1051 100.287 75.1003 100.284 75.0973C100.282 75.0957 100.281 75.0945 100.28 75.0937C100.279 75.0933 100.279 75.093 100.279 75.0927C100.279 75.0925 100.278 75.0924 100.278 75.0923L98.7797 76.7029C98.7904 76.7128 98.6578 76.6 98.5609 76.4172C98.4558 76.219 98.4333 76.0306 98.4344 75.9008C98.4354 75.7845 98.4554 75.6967 98.4642 75.6611C98.4744 75.6199 98.4844 75.5913 98.4876 75.5825L100.559 76.3225ZM100.455 76.5543C100.474 76.5197 100.518 76.4387 100.559 76.3224L98.4875 75.5826C98.4903 75.5748 98.4939 75.5653 98.4984 75.5545C98.5029 75.5437 98.5074 75.5336 98.5116 75.5248C98.5157 75.5163 98.5187 75.5104 98.5196 75.5087C98.5199 75.5081 98.5197 75.5085 98.5155 75.5164L100.455 76.5543ZM100.439 76.5868C100.444 76.576 100.446 76.5712 100.447 76.57C100.448 76.5683 100.449 76.5668 100.455 76.5542L98.5154 75.5165C98.4955 75.5538 98.4629 75.615 98.4218 75.7095L100.439 76.5868ZM100.249 76.9943C100.329 76.842 100.393 76.6941 100.439 76.5868L98.4218 75.7095C98.3707 75.827 98.3366 75.9043 98.2988 75.9767L100.249 76.9943ZM100.335 76.5638C100.335 76.5302 100.344 76.7059 100.274 76.9006C100.186 77.1415 100.023 77.3144 99.8571 77.4183L98.6911 75.5528C98.4857 75.6811 98.3035 75.881 98.2061 76.1487C98.1631 76.2669 98.147 76.3708 98.1403 76.4428C98.137 76.4784 98.1358 76.5082 98.1353 76.5281C98.1349 76.5465 98.1349 76.5627 98.1349 76.5638H100.335ZM99.8924 77.5769C100 77.4253 100.1 77.2684 100.192 77.1069L98.2784 76.0207C98.2231 76.118 98.163 76.2125 98.0982 76.3038L99.8924 77.5769ZM99.8286 77.6642L99.8824 77.5908L98.1083 76.2899L98.0545 76.3632L99.8286 77.6642ZM99.6903 77.855L99.8321 77.6594L98.051 76.368L97.9092 76.5636L99.6903 77.855ZM99.4235 78.171L99.6337 77.9265L97.9657 76.4921L97.7554 76.7366L99.4235 78.171ZM99.3409 78.2648L99.4142 78.1816L97.7646 76.726L97.6913 76.8091L99.3409 78.2648ZM98.8592 78.7472C99.0384 78.5865 99.1922 78.4257 99.3232 78.2843L97.7089 76.7896C97.5954 76.9122 97.495 77.0155 97.3906 77.1091L98.8592 78.7472ZM98.7718 78.8217L98.8354 78.7679L97.4143 77.0884L97.3508 77.1422L98.7718 78.8217ZM98.428 79.1049L98.7606 78.8311L97.362 77.1328L97.0295 77.4067L98.428 79.1049ZM98.355 79.1647C98.3788 79.1451 98.3994 79.1282 98.4209 79.1108L97.0366 77.4008C97.0074 77.4245 96.9803 77.4468 96.9573 77.4657L98.355 79.1647ZM98.0683 79.3881C98.1918 79.2992 98.283 79.2239 98.3549 79.1647L96.9574 77.4657C96.8866 77.5239 96.8434 77.5591 96.7829 77.6027L98.0683 79.3881ZM97.6003 79.6979C97.7266 79.6221 97.9233 79.4925 98.0683 79.3881L96.7828 77.6027C96.6833 77.6744 96.5377 77.7698 96.4684 77.8114L97.6003 79.6979ZM97.5274 79.7475C97.5772 79.7125 97.5908 79.7036 97.6002 79.6979L96.4684 77.8114C96.3801 77.8643 96.3032 77.919 96.2625 77.9475L97.5274 79.7475ZM97.3216 79.8837C97.4099 79.8307 97.4869 79.776 97.5274 79.7475L96.2625 77.9475C96.2126 77.9826 96.1991 77.9915 96.1896 77.9972L97.3216 79.8837ZM97.1843 79.965L97.3164 79.8868L96.1948 77.9941L96.0628 78.0724L97.1843 79.965ZM63.3673 99.4782C63.6517 99.3414 63.9092 99.2016 64.1617 99.0602L63.0867 97.1407C62.8501 97.2732 62.6382 97.3876 62.414 97.4954L63.3673 99.4782ZM63.167 99.5733L63.3626 99.4804L62.4187 97.4932L62.2231 97.5861L63.167 99.5733ZM62.3983 99.8987C62.6291 99.8092 62.9275 99.6933 63.187 99.5636L62.2031 97.5958C62.0518 97.6715 61.8514 97.7512 61.6029 97.8475L62.3983 99.8987ZM62.2879 99.9396L62.3808 99.9053L61.6204 97.8409L61.5275 97.8751L62.2879 99.9396ZM61.6002 100.186C61.834 100.108 62.0705 100.024 62.3042 99.9334L61.5112 97.8813C61.3146 97.9573 61.111 98.0297 60.9046 98.0985L61.6002 100.186ZM60.4283 100.509L60.8538 100.396L60.2915 98.2693L59.8661 98.3818L60.4283 100.509ZM59.7613 100.652C59.9568 100.614 60.1858 100.57 60.414 100.512L59.8804 98.3781C59.7174 98.4189 59.5454 98.4527 59.3399 98.4928L59.7613 100.652ZM59.732 100.661C59.7531 100.655 59.7634 100.652 59.7721 100.65C59.7799 100.648 59.7798 100.648 59.7749 100.649L59.3263 98.4955C59.2422 98.5131 59.1656 98.5352 59.1328 98.5445L59.732 100.661ZM59.2034 100.746C59.4596 100.746 59.6831 100.675 59.732 100.661L59.1328 98.5445C59.1123 98.5503 59.1022 98.5531 59.0937 98.5554C59.0861 98.5574 59.0864 98.5572 59.0914 98.5561C59.1008 98.5541 59.1423 98.5458 59.2034 98.5458V100.746ZM59.1398 100.746H59.2034V98.5458H59.1398V100.746ZM58.0282 100.911C58.4606 100.865 58.9007 100.808 59.3378 100.728L58.9419 98.5637C58.577 98.6305 58.1954 98.6808 57.7965 98.7231L58.0282 100.911ZM56.8711 100.963L57.5997 100.914L57.4524 98.7194L56.7237 98.7683L56.8711 100.963ZM54.6309 100.935L55.1786 100.964L55.2962 98.7674L54.7485 98.7381L54.6309 100.935ZM54.4452 100.937H54.6897V98.7365H54.4452V100.937ZM54.0623 100.9L54.3214 100.93L54.5689 98.7435L54.3097 98.7142L54.0623 100.9ZM53.5008 100.839C53.6988 100.865 53.8944 100.887 54.0971 100.904L54.2749 98.7108C54.1157 98.6979 53.9592 98.6805 53.7954 98.6584L53.5008 100.839ZM53.3938 100.819C53.4164 100.819 53.4257 100.819 53.4332 100.819C53.4394 100.819 53.436 100.82 53.427 100.819C53.4096 100.817 53.3546 100.811 53.282 100.786L54.0142 98.7112C53.7245 98.6089 53.4458 98.6191 53.3938 98.6191V100.819ZM52.126 100.616L52.395 100.664L52.7886 98.5L52.5196 98.451L52.126 100.616ZM51.897 100.556C51.9079 100.56 52.0218 100.6 52.1558 100.621L52.4899 98.4461C52.5358 98.4531 52.5694 98.4622 52.5842 98.4664C52.5966 98.4699 52.6051 98.4729 52.5884 98.4674L51.897 100.556ZM52.1419 100.589C52.0392 100.589 51.9617 100.572 51.9263 100.564C51.8955 100.556 51.8722 100.548 51.8969 100.556L52.5885 98.4674C52.579 98.4643 52.522 98.4448 52.4576 98.4288C52.3887 98.4116 52.2779 98.3893 52.1419 98.3893V100.589ZM51.1894 100.392C51.425 100.454 51.6621 100.512 51.913 100.565L52.3708 98.4134C52.162 98.369 51.9589 98.3194 51.7447 98.2635L51.1894 100.392ZM50.9259 100.328L51.2046 100.396L51.7294 98.2597L51.4507 98.1912L50.9259 100.328ZM50.699 100.257L50.8506 100.306L51.5259 98.2125L51.3743 98.1637L50.699 100.257ZM50.4928 100.196L50.7226 100.265L51.3507 98.1563L51.1209 98.0879L50.4928 100.196ZM49.7757 99.9509C49.9937 100.03 50.234 100.116 50.4801 100.192L51.1336 98.0917C50.9396 98.0314 50.7397 97.9606 50.5274 97.8834L49.7757 99.9509ZM49.5891 99.884L49.7799 99.9524L50.5232 97.8818L50.3325 97.8134L49.5891 99.884ZM49.525 99.8629L49.613 99.8922L50.3087 97.8051L50.2206 97.7758L49.525 99.8629ZM48.9408 99.611L49.4298 99.8262L50.3158 97.8125L49.8268 97.5973L48.9408 99.611ZM48.6782 99.5006L48.9569 99.618L49.8106 97.5904L49.5319 97.473L48.6782 99.5006ZM47.7631 99.0239C48.046 99.1872 48.335 99.3367 48.6273 99.4776L49.5828 97.496C49.3274 97.3728 49.0882 97.2485 48.8625 97.1183L47.7631 99.0239ZM100.658 75.9312L100.658 75.929L98.5357 75.3501L98.5351 75.3524L100.658 75.9312ZM64.1748 99.0527L97.1742 79.9709L96.0729 78.0664L63.0735 97.1482L64.1748 99.0527ZM60.8698 100.392L61.5496 100.201L60.9552 98.083L60.2755 98.2737L60.8698 100.392ZM57.526 100.917H57.9124V98.7169H57.526V100.917ZM55.2374 100.966H56.7974V98.7659H55.2374V100.966ZM52.4067 100.667L53.2087 100.803L53.5789 98.6348L52.7769 98.4979L52.4067 100.667ZM14.5503 79.9432L47.7649 99.0249L48.8608 97.1173L15.6462 78.0355L14.5503 79.9432Z" fill="white" mask="url(#path-9-inside-1_68_125)"/>
<path d="M15.1982 79.0893C13.0612 77.8668 12 76.253 12 74.6441L12.1125 37.307C12.1076 35.7079 13.1541 34.1186 15.2569 32.9058L48.2563 13.8338C52.4717 11.3887 59.3278 11.3887 63.5677 13.8338L96.7822 32.9058C99.0513 34.2262 100.103 35.9427 99.956 37.6494C99.9596 37.6112 99.9666 37.5635 99.974 37.5134C99.9862 37.4307 99.9995 37.3409 100 37.2768L99.8435 74.7321V74.8299C99.8435 74.8702 99.8391 74.8987 99.8335 74.9348C99.8289 74.9644 99.8235 74.9994 99.8191 75.05C99.8182 75.0602 99.8171 75.0704 99.816 75.0807L99.8137 75.0994L99.8111 75.1182C99.808 75.1404 99.8045 75.1627 99.8011 75.1849C99.7905 75.2524 99.7799 75.3199 99.7799 75.3874C99.7775 75.4069 99.7775 75.4266 99.7799 75.4461C99.7717 75.4875 99.7618 75.518 99.7496 75.556C99.7459 75.5673 99.7421 75.5793 99.738 75.5924L99.7315 75.6133C99.7268 75.629 99.7217 75.6464 99.7164 75.6662C99.7097 75.6906 99.7033 75.7151 99.6969 75.7396L99.6963 75.7418C99.6747 75.8239 99.6534 75.9054 99.6234 75.984C99.6234 75.9924 99.6263 75.995 99.6291 75.9976C99.6344 76.0026 99.6396 76.0074 99.6234 76.0525C99.611 76.0874 99.5998 76.1083 99.5853 76.1353C99.5714 76.1613 99.5545 76.193 99.5305 76.2481C99.4816 76.3605 99.4327 76.4731 99.374 76.5855C99.3349 76.61 99.3349 76.6393 99.3349 76.6638C99.2614 76.7932 99.1815 76.9189 99.0953 77.0403L99.0415 77.1137L98.8997 77.3093L98.6894 77.5538L98.6161 77.6369C98.4938 77.769 98.3667 77.901 98.2248 78.0281L98.1613 78.0819L97.8287 78.3558C97.8034 78.3763 97.7795 78.3959 97.7561 78.4152C97.6848 78.4739 97.6176 78.5292 97.5255 78.5954C97.4033 78.6834 97.2321 78.7959 97.1343 78.8546C97.0854 78.8839 97.0402 78.9157 96.9949 78.9475C96.9497 78.9793 96.9045 79.0111 96.8556 79.0404L96.7235 79.1187L63.7242 98.2004C63.4796 98.3374 63.2449 98.4645 62.9906 98.5868L62.795 98.6797C62.5896 98.7824 62.3402 98.8802 62.1006 98.9731L62.0077 99.0073C61.7925 99.0905 61.5724 99.1687 61.3524 99.2421L60.6726 99.4328L60.2472 99.5453C60.0516 99.5942 59.8511 99.6333 59.6506 99.6724C59.6107 99.6807 59.5715 99.6918 59.5324 99.7029C59.4563 99.7244 59.3809 99.7458 59.3034 99.7458H59.2398C58.8388 99.8191 58.428 99.8729 58.0123 99.9169H57.626L56.8974 99.9658H55.3374L54.7897 99.9365H54.5452L54.286 99.9071C54.105 99.8925 53.929 99.8729 53.748 99.8485C53.6649 99.8191 53.5769 99.8191 53.4938 99.8191L52.6918 99.6822L52.4228 99.6333C52.3953 99.6291 52.3687 99.6203 52.3427 99.6116C52.3085 99.6003 52.2752 99.5893 52.2419 99.5893C52.012 99.5404 51.792 99.4866 51.567 99.4279L51.2883 99.3594L51.1367 99.3105L50.9068 99.2421C50.6868 99.1736 50.4667 99.0954 50.2515 99.0171L50.0608 98.9486L49.9728 98.9193L49.4838 98.7041L49.205 98.5868C48.9312 98.4547 48.6671 98.3178 48.4128 98.1711L15.1982 79.0893Z" fill="white"/>
<g opacity="0.9">
<path d="M52.3937 60.3131C52.6187 63.6336 52.4133 67.9664 51.1516 70.1572C50.653 71.0754 49.9755 71.8845 49.1592 72.5366C48.3429 73.1888 47.4042 73.6708 46.3985 73.9543C45.3928 74.2378 44.3406 74.317 43.3038 74.1872C42.2671 74.0575 41.2668 73.7214 40.362 73.1988C39.4572 72.6762 38.6663 71.9776 38.0359 71.1444C37.4055 70.3112 36.9483 69.3601 36.6914 68.3473C36.4345 67.3345 36.383 66.2806 36.54 65.2476C36.697 64.2146 37.0594 63.2235 37.6056 62.3328C38.8673 60.142 42.5105 57.7996 45.5034 56.3325C46.3334 55.9306 47.0237 55.2888 47.4849 54.4901C47.9462 53.6915 48.157 52.7728 48.0903 51.853C47.8703 48.5276 48.0708 44.1998 49.3373 42.0089C49.8359 41.0907 50.5134 40.2817 51.3297 39.6295C52.1461 38.9774 53.0848 38.4953 54.0904 38.2118C55.0961 37.9283 56.1484 37.8491 57.1851 37.9789C58.2219 38.1087 59.2222 38.4448 60.1269 38.9674C61.0317 39.49 61.8226 40.1885 62.4531 41.0218C63.0835 41.855 63.5406 42.8061 63.7976 43.8188C64.0545 44.8316 64.1059 45.8856 63.9489 46.9186C63.7919 47.9516 63.4296 48.9426 62.8833 49.8333C61.6167 52.0242 57.9735 54.3666 54.9807 55.8337C54.1523 56.2377 53.4635 56.8799 53.0026 57.6781C52.5417 58.4762 52.3297 59.3937 52.3937 60.3131Z" fill="black"/>
<path d="M75.6713 66.2499C75.6713 70.5685 72.1704 74.0694 67.8518 74.0694C63.5332 74.0694 60.0323 70.5685 60.0323 66.2499C60.0323 61.9313 63.5332 58.4304 67.8518 58.4304C72.1704 58.4304 75.6713 61.9313 75.6713 66.2499Z" fill="black"/>
</g>
</svg>
