<svg width="24" height="24" viewBox="0 0 24 24" fill="none" xmlns="http://www.w3.org/2000/svg">
<path d="M8.29277 1.29289C8.6833 0.902369 9.31646 0.902369 9.70698 1.29289L11.9999 3.58579L14.2928 1.29289C14.6833 0.902369 15.3165 0.902369 15.707 1.29289C16.0975 1.68342 16.0975 2.31658 15.707 2.70711L12.9999 5.41421V10.2681L17.2033 7.84125L18.1942 4.14328C18.3371 3.60982 18.8854 3.29324 19.4189 3.43618C19.9524 3.57912 20.269 4.12746 20.126 4.66092L19.2868 7.79307L22.4189 8.63233C22.9524 8.77527 23.269 9.32361 23.126 9.85707C22.9831 10.3905 22.4347 10.7071 21.9013 10.5642L18.2033 9.57331L14.0003 11.9999L18.2033 14.4266L21.9013 13.4357C22.4347 13.2927 22.9831 13.6093 23.126 14.1428C23.269 14.6763 22.9524 15.2246 22.4189 15.3675L19.2868 16.2068L20.126 19.3389C20.269 19.8724 19.9524 20.4208 19.4189 20.5637C18.8854 20.7066 18.3371 20.3901 18.1942 19.8566L17.2033 16.1586L12.9999 13.7317V18.5858L15.707 21.2929C16.0975 21.6834 16.0975 22.3166 15.707 22.7071C15.3165 23.0976 14.6833 23.0976 14.2928 22.7071L11.9999 20.4142L9.70698 22.7071C9.31646 23.0976 8.6833 23.0976 8.29277 22.7071C7.90225 22.3166 7.90225 21.6834 8.29277 21.2929L10.9999 18.5858V13.7322L6.79641 16.1591L5.80553 19.8571C5.66259 20.3905 5.11425 20.7071 4.58078 20.5642C4.04732 20.4212 3.73074 19.8729 3.87368 19.3394L4.71294 16.2073L1.58078 15.368C1.04732 15.2251 0.730736 14.6768 0.873678 14.1433C1.01662 13.6098 1.56496 13.2932 2.09842 13.4362L5.79638 14.427L10.0003 11.9999L5.79702 9.57318L2.09854 10.5642C1.56508 10.7071 1.01674 10.3905 0.8738 9.85707C0.730858 9.32361 1.04744 8.77527 1.58091 8.63233L4.71306 7.79307L3.8738 4.66092C3.73086 4.12746 4.04744 3.57912 4.58091 3.43618C5.11437 3.29324 5.66271 3.60982 5.80565 4.14328L6.79639 7.84076L10.9999 10.2676V5.41421L8.29277 2.70711C7.90225 2.31658 7.90225 1.68342 8.29277 1.29289Z" fill="#A0A0AB"/>
</svg>
