<svg width="307" height="239" viewBox="0 0 307 239" fill="none" xmlns="http://www.w3.org/2000/svg">
<g opacity="0.4">
<mask id="path-1-inside-1_451_141" fill="white">
<path d="M176.834 204.436C173.604 202.587 172 200.147 172 197.715L172.17 141.263C172.163 138.845 173.744 136.442 176.922 134.609L226.796 105.773C233.167 102.076 243.53 102.076 249.938 105.773L300.137 134.609C303.566 136.605 305.156 139.2 304.934 141.781C304.939 141.723 304.95 141.651 304.961 141.575C304.979 141.45 304.999 141.314 305 141.217L304.763 197.848V197.996C304.763 198.057 304.757 198.1 304.748 198.154C304.741 198.199 304.733 198.252 304.727 198.329C304.725 198.344 304.724 198.359 304.722 198.375L304.718 198.403L304.714 198.432C304.71 198.465 304.705 198.499 304.699 198.533C304.683 198.635 304.667 198.737 304.667 198.839C304.664 198.868 304.664 198.898 304.667 198.927C304.655 198.99 304.64 199.036 304.622 199.094C304.616 199.111 304.61 199.129 304.604 199.149L304.594 199.18C304.587 199.204 304.579 199.23 304.571 199.26C304.561 199.297 304.552 199.334 304.542 199.371C304.509 199.495 304.476 199.622 304.431 199.741C304.431 199.753 304.435 199.757 304.439 199.761C304.447 199.769 304.455 199.776 304.431 199.844C304.412 199.897 304.395 199.929 304.373 199.969C304.352 200.009 304.327 200.057 304.29 200.14C304.217 200.31 304.143 200.48 304.054 200.65C303.995 200.687 303.995 200.731 303.995 200.769C303.884 200.964 303.763 201.154 303.633 201.338L303.551 201.449L303.337 201.744L303.019 202.114L302.908 202.24C302.724 202.44 302.531 202.639 302.317 202.831L302.221 202.913L301.718 203.327C301.68 203.358 301.644 203.387 301.609 203.417C301.501 203.505 301.399 203.589 301.26 203.689C301.075 203.822 300.817 203.992 300.669 204.081C300.595 204.125 300.527 204.173 300.458 204.221C300.39 204.269 300.322 204.318 300.248 204.362L300.048 204.48L250.174 233.331C249.804 233.538 249.45 233.73 249.065 233.915L248.77 234.055C248.459 234.211 248.082 234.359 247.72 234.499L247.58 234.551C247.255 234.677 246.922 234.795 246.589 234.906L245.562 235.194L244.919 235.364C244.623 235.438 244.32 235.497 244.017 235.556C243.957 235.569 243.898 235.586 243.839 235.603C243.724 235.635 243.61 235.667 243.493 235.667H243.397C242.79 235.778 242.17 235.86 241.541 235.926H240.957L239.856 236H237.499L236.671 235.956H236.301L235.91 235.911C235.636 235.889 235.37 235.86 235.096 235.823C234.971 235.778 234.838 235.778 234.712 235.778L233.5 235.571L233.094 235.497C233.052 235.491 233.012 235.478 232.972 235.464C232.921 235.447 232.87 235.431 232.82 235.431C232.473 235.357 232.14 235.275 231.8 235.187L231.379 235.083L231.15 235.009L230.802 234.906C230.47 234.802 230.137 234.684 229.812 234.566L229.524 234.462L229.391 234.418L228.652 234.092L228.23 233.915C227.816 233.715 227.417 233.508 227.033 233.286L176.834 204.436Z"/>
</mask>
<path d="M176.834 204.436C173.604 202.587 172 200.147 172 197.715L172.17 141.263C172.163 138.845 173.744 136.442 176.922 134.609L226.796 105.773C233.167 102.076 243.53 102.076 249.938 105.773L300.137 134.609C303.566 136.605 305.156 139.2 304.934 141.781C304.939 141.723 304.95 141.651 304.961 141.575C304.979 141.45 304.999 141.314 305 141.217L304.763 197.848V197.996C304.763 198.057 304.757 198.1 304.748 198.154C304.741 198.199 304.733 198.252 304.727 198.329C304.725 198.344 304.724 198.359 304.722 198.375L304.718 198.403L304.714 198.432C304.71 198.465 304.705 198.499 304.699 198.533C304.683 198.635 304.667 198.737 304.667 198.839C304.664 198.868 304.664 198.898 304.667 198.927C304.655 198.99 304.64 199.036 304.622 199.094C304.616 199.111 304.61 199.129 304.604 199.149L304.594 199.18C304.587 199.204 304.579 199.23 304.571 199.26C304.561 199.297 304.552 199.334 304.542 199.371C304.509 199.495 304.476 199.622 304.431 199.741C304.431 199.753 304.435 199.757 304.439 199.761C304.447 199.769 304.455 199.776 304.431 199.844C304.412 199.897 304.395 199.929 304.373 199.969C304.352 200.009 304.327 200.057 304.29 200.14C304.217 200.31 304.143 200.48 304.054 200.65C303.995 200.687 303.995 200.731 303.995 200.769C303.884 200.964 303.763 201.154 303.633 201.338L303.551 201.449L303.337 201.744L303.019 202.114L302.908 202.24C302.724 202.44 302.531 202.639 302.317 202.831L302.221 202.913L301.718 203.327C301.68 203.358 301.644 203.387 301.609 203.417C301.501 203.505 301.399 203.589 301.26 203.689C301.075 203.822 300.817 203.992 300.669 204.081C300.595 204.125 300.527 204.173 300.458 204.221C300.39 204.269 300.322 204.318 300.248 204.362L300.048 204.48L250.174 233.331C249.804 233.538 249.45 233.73 249.065 233.915L248.77 234.055C248.459 234.211 248.082 234.359 247.72 234.499L247.58 234.551C247.255 234.677 246.922 234.795 246.589 234.906L245.562 235.194L244.919 235.364C244.623 235.438 244.32 235.497 244.017 235.556C243.957 235.569 243.898 235.586 243.839 235.603C243.724 235.635 243.61 235.667 243.493 235.667H243.397C242.79 235.778 242.17 235.86 241.541 235.926H240.957L239.856 236H237.499L236.671 235.956H236.301L235.91 235.911C235.636 235.889 235.37 235.86 235.096 235.823C234.971 235.778 234.838 235.778 234.712 235.778L233.5 235.571L233.094 235.497C233.052 235.491 233.012 235.478 232.972 235.464C232.921 235.447 232.87 235.431 232.82 235.431C232.473 235.357 232.14 235.275 231.8 235.187L231.379 235.083L231.15 235.009L230.802 234.906C230.47 234.802 230.137 234.684 229.812 234.566L229.524 234.462L229.391 234.418L228.652 234.092L228.23 233.915C227.816 233.715 227.417 233.508 227.033 233.286L176.834 204.436Z" stroke="#A0A0AB" stroke-width="5" mask="url(#path-1-inside-1_451_141)"/>
</g>
<mask id="path-2-inside-2_451_141" fill="white">
<path d="M176.612 146.259L226.811 175.084C227.196 175.306 227.595 175.513 228.009 175.705L228.43 175.889L229.169 176.215L229.302 176.259L229.59 176.363L230.581 176.702L230.906 176.836L231.135 176.909L231.556 177.013C231.896 177.102 232.229 177.183 232.576 177.257C232.665 177.257 232.754 177.309 232.85 177.323L233.256 177.397L234.121 177.545L234.468 177.604C234.594 177.604 234.727 177.604 234.853 177.649C235.126 177.649 235.392 177.715 235.666 177.737L236.057 177.782H236.427L237.255 177.826H237.669H239.346H239.612C239.982 177.826 240.351 177.826 240.714 177.752H241.164H241.297C241.926 177.685 242.547 177.604 243.153 177.493H243.249C243.426 177.493 243.596 177.419 243.773 177.382C244.076 177.323 244.379 177.264 244.675 177.19L245.318 177.02L246.161 176.784L246.345 176.732C246.678 176.621 247.011 176.503 247.336 176.377L247.476 176.326C247.838 176.185 248.215 176.037 248.526 175.875L248.821 175.734C249.206 175.557 249.575 175.365 249.93 175.158L299.804 146.333L300.004 146.215C300.152 146.119 300.277 146.023 300.425 145.934C300.573 145.845 300.832 145.675 301.016 145.542C301.201 145.409 301.319 145.298 301.475 145.18L301.977 144.766L302.073 144.685C302.288 144.493 302.48 144.293 302.664 144.094L302.775 143.968L303.093 143.598L303.307 143.303L303.389 143.192C303.519 143.008 303.64 142.819 303.751 142.623C303.751 142.623 303.751 142.542 303.81 142.505C303.899 142.335 303.973 142.165 304.047 141.995C304.12 141.825 304.15 141.802 304.187 141.699C304.224 141.596 304.187 141.632 304.187 141.596C304.246 141.44 304.283 141.278 304.327 141.115C304.372 140.952 304.401 140.893 304.424 140.783C304.42 140.753 304.42 140.723 304.424 140.694C304.424 140.524 304.468 140.354 304.483 140.184C304.497 140.014 304.52 139.962 304.52 139.851C304.01 137.93 302.472 136.074 299.893 134.596L249.694 105.772C243.286 102.076 232.924 102.076 226.553 105.772L176.678 134.596C173.619 136.326 172.052 138.676 172 141.034C172.517 142.948 174.047 144.788 176.612 146.259Z"/>
</mask>
<path d="M176.612 146.259L226.811 175.084C227.196 175.306 227.595 175.513 228.009 175.705L228.43 175.889L229.169 176.215L229.302 176.259L229.59 176.363L230.581 176.702L230.906 176.836L231.135 176.909L231.556 177.013C231.896 177.102 232.229 177.183 232.576 177.257C232.665 177.257 232.754 177.309 232.85 177.323L233.256 177.397L234.121 177.545L234.468 177.604C234.594 177.604 234.727 177.604 234.853 177.649C235.126 177.649 235.392 177.715 235.666 177.737L236.057 177.782H236.427L237.255 177.826H237.669H239.346H239.612C239.982 177.826 240.351 177.826 240.714 177.752H241.164H241.297C241.926 177.685 242.547 177.604 243.153 177.493H243.249C243.426 177.493 243.596 177.419 243.773 177.382C244.076 177.323 244.379 177.264 244.675 177.19L245.318 177.02L246.161 176.784L246.345 176.732C246.678 176.621 247.011 176.503 247.336 176.377L247.476 176.326C247.838 176.185 248.215 176.037 248.526 175.875L248.821 175.734C249.206 175.557 249.575 175.365 249.93 175.158L299.804 146.333L300.004 146.215C300.152 146.119 300.277 146.023 300.425 145.934C300.573 145.845 300.832 145.675 301.016 145.542C301.201 145.409 301.319 145.298 301.475 145.18L301.977 144.766L302.073 144.685C302.288 144.493 302.48 144.293 302.664 144.094L302.775 143.968L303.093 143.598L303.307 143.303L303.389 143.192C303.519 143.008 303.64 142.819 303.751 142.623C303.751 142.623 303.751 142.542 303.81 142.505C303.899 142.335 303.973 142.165 304.047 141.995C304.12 141.825 304.15 141.802 304.187 141.699C304.224 141.596 304.187 141.632 304.187 141.596C304.246 141.44 304.283 141.278 304.327 141.115C304.372 140.952 304.401 140.893 304.424 140.783C304.42 140.753 304.42 140.723 304.424 140.694C304.424 140.524 304.468 140.354 304.483 140.184C304.497 140.014 304.52 139.962 304.52 139.851C304.01 137.93 302.472 136.074 299.893 134.596L249.694 105.772C243.286 102.076 232.924 102.076 226.553 105.772L176.678 134.596C173.619 136.326 172.052 138.676 172 141.034C172.517 142.948 174.047 144.788 176.612 146.259Z" fill="url(#paint0_linear_451_141)" fill-opacity="0.15" stroke="url(#paint1_radial_451_141)" stroke-width="5" mask="url(#path-2-inside-2_451_141)"/>
<g clip-path="url(#clip0_451_141)">
<path opacity="0.4" d="M252.819 144.287L256.072 142.409C257.656 141.495 258.448 141.038 258.745 140.511C259.006 140.047 259.006 139.547 258.745 139.083C258.448 138.556 257.656 138.099 256.072 137.185L239.668 127.714C238.084 126.8 237.292 126.343 236.378 126.171C235.575 126.021 234.71 126.021 233.906 126.171C232.993 126.343 232.201 126.8 230.617 127.714L217.041 135.552C215.457 136.466 214.665 136.923 214.368 137.451C214.107 137.914 214.107 138.414 214.368 138.878C214.665 139.405 215.457 139.862 217.041 140.777L233.445 150.247C235.029 151.161 235.821 151.619 236.735 151.79C237.538 151.941 238.403 151.941 239.207 151.79C240.12 151.619 240.912 151.161 242.496 150.247L245.748 148.369" stroke="#8A54FE" stroke-width="3" stroke-linecap="round" stroke-linejoin="round"/>
<path d="M245.041 147.961C245.698 148.34 246.027 148.53 246.354 148.656C247.7 149.175 249.454 149.175 250.799 148.656C251.126 148.53 251.455 148.34 252.112 147.961C252.769 147.582 253.098 147.392 253.317 147.203C254.215 146.426 254.215 145.414 253.317 144.637C253.098 144.448 252.769 144.258 252.112 143.879L249.284 142.246C248.627 141.867 248.298 141.677 247.97 141.551C246.625 141.032 244.871 141.032 243.526 141.551C243.199 141.677 242.87 141.867 242.213 142.246C241.556 142.626 241.227 142.815 241.008 143.004C240.11 143.781 240.11 144.794 241.008 145.57C241.227 145.759 241.556 145.949 242.213 146.328L245.041 147.961Z" stroke="#8A54FE" stroke-width="3" stroke-linecap="round" stroke-linejoin="round"/>
</g>
<g opacity="0.4">
<line x1="1.02452" y1="40.6705" x2="238.863" y2="177.986" stroke="url(#paint2_linear_451_141)" stroke-width="1.5" stroke-linecap="round"/>
<line x1="1.02452" y1="99.6705" x2="238.863" y2="236.986" stroke="url(#paint3_linear_451_141)" stroke-width="1.5" stroke-linecap="round"/>
<line x1="68.168" y1="1.72548" x2="306.006" y2="139.041" stroke="url(#paint4_linear_451_141)" stroke-width="1.5" stroke-linecap="round"/>
<line x1="68.168" y1="60.7255" x2="306.006" y2="198.041" stroke="url(#paint5_linear_451_141)" stroke-width="1.5" stroke-linecap="round"/>
</g>
<defs>
<linearGradient id="paint0_linear_451_141" x1="238" y1="97.5" x2="238" y2="178" gradientUnits="userSpaceOnUse">
<stop stop-color="#8A54FE"/>
<stop offset="0.42" stop-color="#8A54FE" stop-opacity="0.7"/>
<stop offset="1" stop-color="#8A54FE" stop-opacity="0"/>
</linearGradient>
<radialGradient id="paint1_radial_451_141" cx="0" cy="0" r="1" gradientUnits="userSpaceOnUse" gradientTransform="translate(238.26 138.25) rotate(90) scale(57.25 101.392)">
<stop stop-color="#8A54FE"/>
<stop offset="1" stop-color="#8A54FE" stop-opacity="0"/>
</radialGradient>
<linearGradient id="paint2_linear_451_141" x1="-2.96477" y1="40.5083" x2="245.173" y2="182.924" gradientUnits="userSpaceOnUse">
<stop offset="0.226847" stop-color="#383A41" stop-opacity="0"/>
<stop offset="0.336224" stop-color="#383A41"/>
<stop offset="0.596645" stop-color="#383A41"/>
<stop offset="0.721647" stop-color="#383A41" stop-opacity="0"/>
</linearGradient>
<linearGradient id="paint3_linear_451_141" x1="-2.96477" y1="99.5083" x2="245.173" y2="241.924" gradientUnits="userSpaceOnUse">
<stop offset="0.226847" stop-color="#383A41" stop-opacity="0"/>
<stop offset="0.336224" stop-color="#383A41"/>
<stop offset="0.596645" stop-color="#383A41"/>
<stop offset="0.721647" stop-color="#383A41" stop-opacity="0"/>
</linearGradient>
<linearGradient id="paint4_linear_451_141" x1="64.1787" y1="1.5632" x2="312.316" y2="143.978" gradientUnits="userSpaceOnUse">
<stop offset="0.226847" stop-color="#383A41" stop-opacity="0"/>
<stop offset="0.336224" stop-color="#383A41"/>
<stop offset="0.596645" stop-color="#383A41"/>
<stop offset="0.721647" stop-color="#383A41" stop-opacity="0"/>
</linearGradient>
<linearGradient id="paint5_linear_451_141" x1="64.1787" y1="60.5632" x2="312.316" y2="202.978" gradientUnits="userSpaceOnUse">
<stop offset="0.0225516" stop-color="#383A41" stop-opacity="0"/>
<stop offset="0.336224" stop-color="#383A41"/>
<stop offset="0.461226" stop-color="#383A41" stop-opacity="0"/>
</linearGradient>
<clipPath id="clip0_451_141">
<rect width="39.1897" height="39.1897" fill="white" transform="matrix(0.866044 0.499967 -0.866044 0.499967 237.97 120.204)"/>
</clipPath>
</defs>
</svg>
