<svg width="151" height="151" viewBox="0 0 151 151" fill="none" xmlns="http://www.w3.org/2000/svg">
<path d="M0 107.492C0 110.252 1.82089 113.021 5.48786 115.119L62.481 147.845C62.9174 148.097 63.3705 148.332 63.8404 148.558L64.3187 148.76L65.1578 149.129L65.3089 149.179L65.6361 149.297C66.0053 149.431 66.3829 149.565 66.7605 149.683L67.1549 149.8L67.4151 149.884L67.8934 150.001C68.2794 150.102 68.657 150.194 69.0513 150.278C69.152 150.278 69.2527 150.337 69.3618 150.354L69.8233 150.438L70.8051 150.606L71.1995 150.673C71.3422 150.673 71.4932 150.673 71.6358 150.723C71.9463 150.765 72.2484 150.799 72.5589 150.824L73.0036 150.874H73.4232L74.363 150.924H74.8329H76.7377H77.0398L78.2901 150.841H78.8019H78.953C79.6662 150.765 80.3711 150.673 81.0592 150.547H81.1683C81.3697 150.547 81.5627 150.463 81.764 150.421C82.1081 150.354 82.4521 150.287 82.7878 150.203L83.5178 150.01L84.4744 149.741L84.6842 149.683C85.0618 149.557 85.4394 149.422 85.8086 149.28L85.968 149.221C86.3792 149.062 86.8072 148.894 87.1596 148.718L87.4952 148.558C87.9316 148.348 88.3344 148.13 88.7539 147.895L145.378 115.169L145.604 115.035C145.772 114.935 145.915 114.817 146.083 114.716C146.251 114.616 146.544 114.423 146.754 114.272C146.964 114.121 147.098 114.003 147.274 113.86L147.845 113.391L147.954 113.298C148.197 113.08 148.416 112.854 148.625 112.627L148.751 112.484L149.112 112.065L149.355 111.729L149.448 111.603C149.595 111.395 149.733 111.179 149.859 110.957C149.859 110.915 149.859 110.865 149.926 110.823C150.027 110.63 150.111 110.437 150.194 110.244C150.278 110.051 150.312 110.026 150.354 109.908C150.396 109.791 150.354 109.833 150.354 109.791C150.421 109.615 150.463 109.43 150.513 109.245C150.564 109.061 150.597 108.994 150.622 108.868C150.618 108.834 150.618 108.8 150.622 108.767C150.622 108.574 150.673 108.381 150.69 108.188C150.706 107.995 150.731 107.936 150.731 107.81V107.643L151 43.3658C151 43.542 150.941 43.8357 150.924 44.0119C151.176 41.0834 149.372 38.1381 145.479 35.8725L88.4854 3.14671C81.2102 -1.0489 69.4457 -1.0489 62.2125 3.14671L5.58855 35.8725C1.98033 37.9535 0.184607 40.6806 0.192998 43.4246M0.192998 44.0036C0.192998 44.163 0.192998 44.3224 0.192998 44.4819C0.293693 44.2385 0.293693 44.0791 0.27691 43.9196L0.192998 44.0036Z" fill="url(#paint0_radial_151_476)"/>
<path d="M62.4812 147.862C62.9175 148.113 63.3707 148.348 63.8406 148.575L64.3189 148.776L65.158 149.146L65.309 149.196L65.6363 149.313C66.0055 149.448 66.3831 149.582 66.7607 149.699L67.1551 149.817L67.4152 149.901L67.8935 150.018C68.2795 150.119 68.6571 150.211 69.0515 150.295C69.1522 150.295 69.2529 150.354 69.362 150.371L69.8235 150.455L70.8053 150.622L71.1997 150.69C71.3423 150.69 71.4934 150.69 71.636 150.74C71.9465 150.782 72.2486 150.815 72.5591 150.841L73.0038 150.891H73.4233L74.3632 150.941H74.8331H76.7379H77.04L78.2903 150.857H78.8021H78.9532C79.6664 150.782 80.3713 150.69 81.0594 150.564H81.1684C81.3698 150.564 81.5628 150.48 81.7642 150.438C82.1083 150.371 82.4523 150.304 82.788 150.22L83.518 150.027L84.4746 149.758L84.6844 149.699C85.062 149.573 85.4396 149.439 85.8088 149.297L85.9682 149.238C86.3794 149.078 86.8073 148.911 87.1598 148.734L87.4954 148.575C87.9318 148.365 88.3345 148.147 88.7541 147.912L140.134 118.165C132.044 116.227 125.088 111.57 121.077 105.083C110.286 87.6714 93.9315 80.0774 75.6135 80.0774C57.1024 80.0774 40.5885 87.4952 29.8058 105.041C25.8116 111.544 18.8972 116.202 10.7661 118.148L62.4812 147.862Z" fill="url(#paint1_radial_151_476)"/>
<path opacity="0.2" d="M0.276855 107.357C0.276855 107.525 0.276855 107.684 0.276855 107.844C0.293638 107.71 0.293638 107.55 0.276855 107.357Z" fill="url(#paint2_radial_151_476)"/>
<path opacity="0.2" d="M0.276855 104.043C0.276855 104.211 0.276855 104.37 0.276855 104.529C0.293638 104.37 0.293638 104.211 0.276855 104.043Z" fill="url(#paint3_radial_151_476)"/>
<path d="M67.0039 91.2209C69.1688 87.4617 69.5213 80.0271 69.1353 74.3294C69.0254 72.7518 69.3892 71.1773 70.1801 69.8078C70.971 68.4384 72.1529 67.3363 73.5742 66.6431C78.7097 64.1257 84.9611 60.1063 87.1344 56.347C88.0718 54.8187 88.6935 53.1181 88.9629 51.3456C89.2323 49.5731 89.144 47.7645 88.7032 46.0267C88.2624 44.2889 87.4779 42.6569 86.3962 41.2272C85.3144 39.7974 83.9572 38.5988 82.4047 37.7021C80.8522 36.8053 79.1359 36.2286 77.3569 36.0059C75.5779 35.7833 73.7723 35.9192 72.0467 36.4056C70.3211 36.8921 68.7103 37.7192 67.3096 38.8382C65.9088 39.9573 64.7463 41.3455 63.8908 42.9211C61.7174 46.6803 61.3734 54.1066 61.751 59.8126C61.8655 61.3909 61.5036 62.9673 60.7122 64.3377C59.9208 65.708 58.7363 66.8093 57.3121 67.499C52.1766 70.0163 45.9252 74.0357 43.7602 77.795C42.8229 79.3233 42.2012 81.0239 41.9318 82.7964C41.6623 84.569 41.7506 86.3775 42.1915 88.1153C42.6323 89.8532 43.4168 91.4851 44.4985 92.9149C45.5803 94.3446 46.9374 95.5432 48.4899 96.44C50.0424 97.3367 51.7588 97.9134 53.5378 98.1361C55.3168 98.3588 57.1224 98.2229 58.848 97.7364C60.5736 97.25 62.1843 96.4228 63.5851 95.3038C64.9859 94.1848 66.1484 92.7965 67.0039 91.2209Z" fill="url(#paint4_radial_151_476)"/>
<path d="M95.66 97.9339C103.07 97.9339 109.078 91.9266 109.078 84.5163C109.078 77.106 103.07 71.0988 95.66 71.0988C88.2497 71.0988 82.2424 77.106 82.2424 84.5163C82.2424 91.9266 88.2497 97.9339 95.66 97.9339Z" fill="url(#paint5_radial_151_476)"/>
<path opacity="0.9" d="M67.0039 91.2209C69.1688 87.4617 69.5213 80.0271 69.1353 74.3294C69.0254 72.7518 69.3892 71.1773 70.1801 69.8078C70.971 68.4384 72.1529 67.3363 73.5742 66.6431C78.7097 64.1257 84.9611 60.1063 87.1344 56.347C88.0718 54.8187 88.6935 53.1181 88.9629 51.3456C89.2323 49.5731 89.144 47.7645 88.7032 46.0267C88.2624 44.2889 87.4779 42.6569 86.3962 41.2272C85.3144 39.7974 83.9572 38.5988 82.4047 37.7021C80.8522 36.8053 79.1359 36.2286 77.3569 36.0059C75.5779 35.7833 73.7723 35.9192 72.0467 36.4056C70.3211 36.8921 68.7103 37.7192 67.3096 38.8382C65.9088 39.9573 64.7463 41.3455 63.8908 42.9211C61.7174 46.6803 61.3734 54.1066 61.751 59.8126C61.8655 61.3909 61.5036 62.9673 60.7122 64.3377C59.9208 65.708 58.7363 66.8093 57.3121 67.499C52.1766 70.0163 45.9252 74.0357 43.7602 77.795C42.8229 79.3233 42.2012 81.0239 41.9318 82.7964C41.6623 84.569 41.7506 86.3775 42.1915 88.1153C42.6323 89.8532 43.4168 91.4851 44.4985 92.9149C45.5803 94.3446 46.9374 95.5432 48.4899 96.44C50.0424 97.3367 51.7588 97.9134 53.5378 98.1361C55.3168 98.3588 57.1224 98.2229 58.848 97.7364C60.5736 97.25 62.1843 96.4228 63.5851 95.3038C64.9859 94.1848 66.1484 92.7965 67.0039 91.2209Z" fill="url(#paint6_radial_151_476)"/>
<path d="M63.7564 82.6368L4.35498 48.5181L5.34514 46.8147L64.7382 80.9334L63.7564 82.6368Z" fill="url(#paint7_radial_151_476)"/>
<path d="M87.4282 82.6368L146.83 48.5181L145.839 46.8147L86.438 80.9334L87.4282 82.6368Z" fill="url(#paint8_linear_151_476)"/>
<path d="M5.48783 49.1474L62.481 81.8731C62.9173 82.1249 63.3705 82.3598 63.8404 82.578L64.3187 82.7878L65.1578 83.157L65.3088 83.2073L65.6361 83.3248L66.7605 83.7108L67.1297 83.8619L67.3899 83.9458L67.8682 84.0632C68.2542 84.1639 68.6318 84.2562 69.0261 84.3402C69.1268 84.3402 69.2275 84.3989 69.3366 84.4157L69.7981 84.4996L70.7799 84.6674L71.1743 84.7345C71.3169 84.7345 71.468 84.7345 71.6106 84.7849C71.9211 84.7849 72.2232 84.8604 72.5337 84.8856L72.9784 84.9359H73.398L74.3378 84.9863H74.8077H76.7125H77.0146C77.4341 84.9863 77.8537 84.9863 78.2649 84.9024H78.7767H78.9278C79.641 84.8268 80.3459 84.7345 81.034 84.6087H81.1431C81.3445 84.6087 81.5375 84.5248 81.7388 84.4828C82.0829 84.4157 82.4269 84.3485 82.7626 84.2646L83.4926 84.0716L84.4492 83.8031L84.659 83.7444C85.0366 83.6185 85.4142 83.4842 85.7834 83.3416L85.9428 83.2829C86.354 83.1234 86.782 82.9556 87.1344 82.771L87.47 82.6116C87.9064 82.4102 88.3259 82.192 88.7287 81.957L145.353 49.2313L145.579 49.097C145.747 48.9879 145.89 48.8789 146.058 48.7782C146.225 48.6775 146.519 48.4845 146.729 48.3334C146.939 48.1824 147.073 48.0565 147.249 47.9223L147.82 47.4524L147.929 47.36C148.172 47.1419 148.39 46.9153 148.6 46.6888L148.726 46.5461L149.087 46.1265L149.33 45.7909L149.422 45.665C149.57 45.4567 149.707 45.241 149.834 45.0189C149.834 45.0189 149.834 44.9266 149.901 44.8846C150.001 44.6916 150.085 44.4986 150.169 44.3056C150.253 44.1126 150.287 44.0875 150.329 43.97C150.371 43.8525 150.329 43.8945 150.329 43.8525C150.396 43.6763 150.438 43.4917 150.488 43.3071C150.538 43.1225 150.572 43.0554 150.597 42.9295C150.593 42.896 150.593 42.8622 150.597 42.8288C150.597 42.6358 150.648 42.4428 150.664 42.2498C150.681 42.0568 150.706 41.9981 150.706 41.8722C150.127 39.6905 148.382 37.5843 145.453 35.906L88.4602 3.18028C81.185 -1.01533 69.4205 -1.01533 62.1873 3.18028L5.56335 35.906C2.08939 37.8696 0.310448 40.538 0.251709 43.2148C0.839094 45.3881 2.57608 47.4775 5.48783 49.1474Z" fill="url(#paint9_radial_151_476)"/>
<defs>
<radialGradient id="paint0_radial_151_476" cx="0" cy="0" r="1" gradientUnits="userSpaceOnUse" gradientTransform="translate(79.5488 4.93404) scale(146.192 146.192)">
<stop stop-color="#FFD867"/>
<stop offset="0.19" stop-color="#F78A64"/>
<stop offset="0.4" stop-color="#ED3061"/>
<stop offset="0.71" stop-color="#A52F78"/>
<stop offset="1" stop-color="#382F79"/>
</radialGradient>
<radialGradient id="paint1_radial_151_476" cx="0" cy="0" r="1" gradientUnits="userSpaceOnUse" gradientTransform="translate(67.8935 81.0592) scale(70.6541 70.6541)">
<stop offset="0.08" stop-color="#FFF7A9"/>
<stop offset="0.22" stop-color="#FFF352"/>
<stop offset="1" stop-color="#E11E67"/>
</radialGradient>
<radialGradient id="paint2_radial_151_476" cx="0" cy="0" r="1" gradientUnits="userSpaceOnUse" gradientTransform="translate(0.302029 107.911) scale(0.419561 0.419562)">
<stop stop-color="#FFD867"/>
<stop offset="1" stop-color="#ED3061"/>
</radialGradient>
<radialGradient id="paint3_radial_151_476" cx="0" cy="0" r="1" gradientUnits="userSpaceOnUse" gradientTransform="translate(0.302029 104.555) scale(0.419561 0.419557)">
<stop stop-color="#FFD867"/>
<stop offset="1" stop-color="#ED3061"/>
</radialGradient>
<radialGradient id="paint4_radial_151_476" cx="0" cy="0" r="1" gradientUnits="userSpaceOnUse" gradientTransform="translate(75.2441 37.8192) scale(49.1558 49.1558)">
<stop offset="0.14" stop-color="#FFF7A9"/>
<stop offset="0.19" stop-color="#FFF352"/>
<stop offset="0.66" stop-color="#ED3061"/>
</radialGradient>
<radialGradient id="paint5_radial_151_476" cx="0" cy="0" r="1" gradientUnits="userSpaceOnUse" gradientTransform="translate(91.7413 76.9223) scale(21.0871 21.0871)">
<stop offset="0.02" stop-color="#FFF7A9"/>
<stop offset="0.23" stop-color="#FFF352"/>
<stop offset="1" stop-color="#ED3061"/>
</radialGradient>
<radialGradient id="paint6_radial_151_476" cx="0" cy="0" r="1" gradientUnits="userSpaceOnUse" gradientTransform="translate(49.7935 75.0846) scale(23.8311 23.8311)">
<stop offset="0.18" stop-color="#FFF7A9"/>
<stop offset="0.37" stop-color="#FFF352"/>
<stop offset="0.42" stop-color="#FEED52" stop-opacity="0.97"/>
<stop offset="0.5" stop-color="#FDDE54" stop-opacity="0.89"/>
<stop offset="0.6" stop-color="#FBC556" stop-opacity="0.76"/>
<stop offset="0.71" stop-color="#F7A258" stop-opacity="0.58"/>
<stop offset="0.84" stop-color="#F3745C" stop-opacity="0.35"/>
<stop offset="0.97" stop-color="#EE3E60" stop-opacity="0.07"/>
<stop offset="1" stop-color="#ED3061" stop-opacity="0"/>
</radialGradient>
<radialGradient id="paint7_radial_151_476" cx="0" cy="0" r="1" gradientUnits="userSpaceOnUse" gradientTransform="translate(7.11569 49.0132) scale(63.3873 63.3873)">
<stop stop-color="white" stop-opacity="0"/>
<stop offset="0.45" stop-color="white" stop-opacity="0.2"/>
<stop offset="1" stop-color="#FFF2CB" stop-opacity="0"/>
</radialGradient>
<linearGradient id="paint8_linear_151_476" x1="88.368" y1="65.611" x2="144.572" y2="63.8573" gradientUnits="userSpaceOnUse">
<stop stop-color="white" stop-opacity="0"/>
<stop offset="0.21" stop-color="white" stop-opacity="0.2"/>
<stop offset="0.44" stop-color="white" stop-opacity="0.01"/>
<stop offset="0.76" stop-color="white" stop-opacity="0.04"/>
<stop offset="1" stop-color="#FFF2CB" stop-opacity="0"/>
</linearGradient>
<radialGradient id="paint9_radial_151_476" cx="0" cy="0" r="1" gradientUnits="userSpaceOnUse" gradientTransform="translate(79.5236 2.75232) scale(97.7158 97.7157)">
<stop stop-color="white" stop-opacity="0.1"/>
<stop offset="0.42" stop-color="#FFD867" stop-opacity="0.2"/>
<stop offset="1" stop-color="#FFF2CB" stop-opacity="0.15"/>
</radialGradient>
</defs>
</svg>
