<svg width="180" height="180" viewBox="0 0 180 180" fill="none" xmlns="http://www.w3.org/2000/svg">
<path opacity="1" fill-rule="evenodd" clip-rule="evenodd" d="M0 128.1C0 131.39 2.17 134.69 6.54 137.19L74.46 176.21C74.98 176.51 75.52 176.79 76.08 177.06L76.65 177.3L77.65 177.74L77.83 177.8L78.22 177.94C78.66 178.1 79.11 178.26 79.56 178.4L80.03 178.54L80.34 178.64L80.91 178.78C81.37 178.9 81.82 179.01 82.29 179.11C82.3581 179.11 82.4262 179.133 82.4962 179.156C82.5495 179.173 82.6038 179.191 82.66 179.2L83.21 179.3L84.85 179.58C85.02 179.58 85.2 179.58 85.37 179.64C85.74 179.69 86.1 179.73 86.47 179.76L87 179.82H87.5L88.62 179.88H91.81L93.3 179.78H94.09C94.94 179.69 95.78 179.58 96.6 179.43H96.73C96.8885 179.43 97.0427 179.386 97.1983 179.342C97.2782 179.32 97.3586 179.297 97.44 179.28C97.85 179.2 98.26 179.12 98.66 179.02L99.53 178.79L100.92 178.4C101.37 178.25 101.82 178.09 102.26 177.92L102.45 177.85C102.94 177.66 103.45 177.46 103.87 177.25L104.27 177.06C104.79 176.81 105.27 176.55 105.77 176.27L173.25 137.25L173.52 137.09C173.62 137.03 173.712 136.965 173.805 136.9C173.897 136.835 173.99 136.77 174.09 136.71C174.29 136.59 174.64 136.36 174.89 136.18C175.078 136.045 175.216 135.932 175.361 135.812L175.362 135.811C175.409 135.772 175.458 135.732 175.51 135.69L176.19 135.13L176.32 135.02C176.61 134.76 176.87 134.49 177.12 134.22L177.27 134.05L177.7 133.55L177.99 133.15L178.1 133C178.276 132.752 178.44 132.495 178.59 132.23C178.59 132.18 178.59 132.12 178.67 132.07C178.79 131.84 178.89 131.61 178.99 131.38C179.039 131.267 179.074 131.203 179.102 131.149C179.132 131.094 179.155 131.051 179.18 130.98C179.213 130.888 179.202 130.878 179.191 130.868C179.186 130.862 179.18 130.857 179.18 130.84C179.241 130.679 179.285 130.513 179.329 130.345L179.33 130.34C179.343 130.29 179.356 130.24 179.37 130.19C179.381 130.15 179.391 130.114 179.401 130.082L179.414 130.039C179.423 130.012 179.43 129.988 179.438 129.965C179.463 129.887 179.483 129.825 179.5 129.74C179.495 129.7 179.495 129.66 179.5 129.62C179.5 129.482 179.522 129.344 179.543 129.206C179.55 129.16 179.557 129.115 179.564 129.069L179.569 129.031L179.574 128.993C179.576 128.972 179.578 128.951 179.58 128.93C179.589 128.826 179.6 128.755 179.609 128.694C179.621 128.621 179.63 128.562 179.63 128.48V128.28L179.95 51.6881C179.949 51.8193 179.922 52.0028 179.897 52.1721C179.882 52.2745 179.867 52.3719 179.86 52.45C180.16 48.96 178.01 45.45 173.37 42.75L105.45 3.75C96.78 -1.25 82.76 -1.25 74.14 3.75L6.66 42.75C2.36 45.23 0.22 48.48 0.23 51.75L0 128.1ZM80.0607 118.925C82.6407 114.445 83.0607 105.585 82.6007 98.7948C82.4697 96.9147 82.9033 95.0384 83.8458 93.4064C84.7883 91.7743 86.1968 90.461 87.8907 89.6348C94.0107 86.6348 101.461 81.8448 104.051 77.3648C105.168 75.5435 105.909 73.5168 106.23 71.4045C106.551 69.2921 106.446 67.1369 105.92 65.0659C105.395 62.9948 104.46 61.05 103.171 59.3462C101.882 57.6423 100.264 56.2139 98.4142 55.1452C96.5641 54.0765 94.5186 53.3892 92.3986 53.1239C90.2785 52.8585 88.1268 53.0205 86.0703 53.6002C84.0138 54.1799 82.0943 55.1656 80.425 56.4992C78.7556 57.8328 77.3703 59.4872 76.3507 61.3648C73.7607 65.8448 73.3507 74.6948 73.8007 81.4948C73.9372 83.3757 73.5059 85.2543 72.5628 86.8874C71.6197 88.5205 70.2081 89.8329 68.5107 90.6548C62.3907 93.6548 54.9407 98.4448 52.3607 102.925C51.2437 104.746 50.5028 106.773 50.1817 108.885C49.8606 110.998 49.9659 113.153 50.4912 115.224C51.0166 117.295 51.9514 119.24 53.2406 120.943C54.5297 122.647 56.1471 124.076 57.9972 125.144C59.8474 126.213 61.8928 126.9 64.0129 127.166C66.1329 127.431 68.2847 127.269 70.3412 126.689C72.3976 126.11 74.3171 125.124 75.9865 123.79C77.6558 122.457 79.0411 120.802 80.0607 118.925ZM114.211 126.925C123.042 126.925 130.201 119.766 130.201 110.935C130.201 102.104 123.042 94.9448 114.211 94.9448C105.38 94.9448 98.2207 102.104 98.2207 110.935C98.2207 119.766 105.38 126.925 114.211 126.925Z" fill="#FCFCFC"/>
</svg>
