<svg width="110" height="110" viewBox="0 0 110 110" fill="none" xmlns="http://www.w3.org/2000/svg">
<rect x="0.55" y="0.55" width="108.9" height="108.9" rx="26.95" fill="url(#paint0_linear_368_59)" stroke="url(#paint1_linear_368_59)" stroke-width="1.1"/>
<rect x="9.35005" y="9.34999" width="91.3" height="91.3" stroke="#FCFCFC" stroke-opacity="0.2" stroke-width="1.1"/>
<circle cx="54.4501" cy="55.55" r="45.15" stroke="#FCFCFC" stroke-opacity="0.15"/>
<circle cx="55" cy="55" r="27" stroke="#FCFCFC" stroke-opacity="0.15"/>
<line x1="8.4465" y1="100.846" x2="100.846" y2="8.44641" stroke="#FCFCFC" stroke-opacity="0.15"/>
<line x1="9.1536" y1="8.44643" x2="101.554" y2="100.846" stroke="#FCFCFC" stroke-opacity="0.15"/>
<line x1="1.09998" y1="54.5" x2="110" y2="54.5" stroke="#FCFCFC" stroke-opacity="0.15"/>
<line x1="55.05" y1="109.45" x2="55.05" y2="0.54995" stroke="#FCFCFC" stroke-opacity="0.15"/>
<mask id="path-9-inside-1_368_59" fill="white">
<path d="M93.5984 74.6131L80.722 88.0739C80.4422 88.3663 80.1034 88.5994 79.7271 88.7588C79.3508 88.9181 78.9448 89.0002 78.5346 89H17.4948C17.2036 89 16.9187 88.917 16.6751 88.7614C16.4316 88.6057 16.24 88.3841 16.1239 88.1236C16.0078 87.8633 15.9723 87.5756 16.0217 87.2958C16.071 87.0159 16.2032 86.7563 16.4019 86.5488L29.2879 73.088C29.567 72.7964 29.9046 72.5637 30.2797 72.4044C30.6549 72.2451 31.0595 72.1626 31.4688 72.1619H92.5051C92.7963 72.1619 93.0812 72.2449 93.325 72.4005C93.5682 72.5562 93.7598 72.7779 93.8764 73.0382C93.9922 73.2986 94.0277 73.5863 93.9783 73.8661C93.9289 74.1459 93.7968 74.4056 93.5984 74.6131ZM80.722 47.507C80.4422 47.2146 80.1034 46.9815 79.7271 46.8222C79.3508 46.6629 78.9448 46.5807 78.5346 46.581H17.4948C17.2036 46.581 16.9187 46.6639 16.6751 46.8196C16.4316 46.9753 16.24 47.1969 16.1239 47.4573C16.0078 47.7177 15.9723 48.0054 16.0217 48.2852C16.071 48.565 16.2032 48.8246 16.4019 49.0322L29.2879 62.493C29.567 62.7846 29.9046 63.0172 30.2797 63.1765C30.6549 63.3358 31.0595 63.4184 31.4688 63.419H92.5051C92.7963 63.419 93.0812 63.3361 93.325 63.1804C93.5682 63.0247 93.7598 62.8031 93.8764 62.5427C93.9922 62.2823 94.0277 61.9946 93.9783 61.7148C93.9289 61.435 93.7968 61.1754 93.5984 60.9678L80.722 47.507ZM17.4948 37.8381H78.5346C78.9448 37.8383 79.3508 37.7562 79.7271 37.5969C80.1034 37.4375 80.4422 37.2044 80.722 36.912L93.5984 23.4512C93.7968 23.2437 93.9289 22.984 93.9783 22.7042C94.0277 22.4245 93.9922 22.1367 93.8764 21.8763C93.7598 21.616 93.5682 21.3943 93.325 21.2386C93.0812 21.083 92.7963 21 92.5051 21H31.4688C31.0595 21.0007 30.6549 21.0832 30.2797 21.2425C29.9046 21.4018 29.567 21.6345 29.2879 21.9261L16.4052 35.3869C16.2067 35.5942 16.0746 35.8536 16.0251 36.133C15.9756 36.4125 16.0109 36.7 16.1265 36.9603C16.2422 37.2205 16.4333 37.4422 16.6764 37.5981C16.9194 37.754 17.2039 37.8374 17.4948 37.8381Z"/>
</mask>
<path d="M93.5984 74.6131L80.722 88.0739C80.4422 88.3663 80.1034 88.5994 79.7271 88.7588C79.3508 88.9181 78.9448 89.0002 78.5346 89H17.4948C17.2036 89 16.9187 88.917 16.6751 88.7614C16.4316 88.6057 16.24 88.3841 16.1239 88.1236C16.0078 87.8633 15.9723 87.5756 16.0217 87.2958C16.071 87.0159 16.2032 86.7563 16.4019 86.5488L29.2879 73.088C29.567 72.7964 29.9046 72.5637 30.2797 72.4044C30.6549 72.2451 31.0595 72.1626 31.4688 72.1619H92.5051C92.7963 72.1619 93.0812 72.2449 93.325 72.4005C93.5682 72.5562 93.7598 72.7779 93.8764 73.0382C93.9922 73.2986 94.0277 73.5863 93.9783 73.8661C93.9289 74.1459 93.7968 74.4056 93.5984 74.6131ZM80.722 47.507C80.4422 47.2146 80.1034 46.9815 79.7271 46.8222C79.3508 46.6629 78.9448 46.5807 78.5346 46.581H17.4948C17.2036 46.581 16.9187 46.6639 16.6751 46.8196C16.4316 46.9753 16.24 47.1969 16.1239 47.4573C16.0078 47.7177 15.9723 48.0054 16.0217 48.2852C16.071 48.565 16.2032 48.8246 16.4019 49.0322L29.2879 62.493C29.567 62.7846 29.9046 63.0172 30.2797 63.1765C30.6549 63.3358 31.0595 63.4184 31.4688 63.419H92.5051C92.7963 63.419 93.0812 63.3361 93.325 63.1804C93.5682 63.0247 93.7598 62.8031 93.8764 62.5427C93.9922 62.2823 94.0277 61.9946 93.9783 61.7148C93.9289 61.435 93.7968 61.1754 93.5984 60.9678L80.722 47.507ZM17.4948 37.8381H78.5346C78.9448 37.8383 79.3508 37.7562 79.7271 37.5969C80.1034 37.4375 80.4422 37.2044 80.722 36.912L93.5984 23.4512C93.7968 23.2437 93.9289 22.984 93.9783 22.7042C94.0277 22.4245 93.9922 22.1367 93.8764 21.8763C93.7598 21.616 93.5682 21.3943 93.325 21.2386C93.0812 21.083 92.7963 21 92.5051 21H31.4688C31.0595 21.0007 30.6549 21.0832 30.2797 21.2425C29.9046 21.4018 29.567 21.6345 29.2879 21.9261L16.4052 35.3869C16.2067 35.5942 16.0746 35.8536 16.0251 36.133C15.9756 36.4125 16.0109 36.7 16.1265 36.9603C16.2422 37.2205 16.4333 37.4422 16.6764 37.5981C16.9194 37.754 17.2039 37.8374 17.4948 37.8381Z" fill="url(#paint2_linear_368_59)" fill-opacity="0.8" stroke="#FCFCFC" stroke-opacity="0.4" stroke-width="3" mask="url(#path-9-inside-1_368_59)"/>
<defs>
<linearGradient id="paint0_linear_368_59" x1="55" y1="0" x2="55" y2="110" gradientUnits="userSpaceOnUse">
<stop stop-color="#0066FF"/>
<stop offset="1" stop-color="#0048B4"/>
</linearGradient>
<linearGradient id="paint1_linear_368_59" x1="55" y1="0" x2="55" y2="110" gradientUnits="userSpaceOnUse">
<stop stop-color="#5498FE"/>
<stop offset="1" stop-color="#5498FE" stop-opacity="0"/>
</linearGradient>
<linearGradient id="paint2_linear_368_59" x1="55" y1="21" x2="55" y2="89" gradientUnits="userSpaceOnUse">
<stop stop-color="#74A0E3"/>
<stop offset="0.494791" stop-color="#74A0E3"/>
<stop offset="1" stop-color="#74A0E3"/>
</linearGradient>
</defs>
</svg>
