<svg width="24" height="24" viewBox="0 0 24 24" fill="none" xmlns="http://www.w3.org/2000/svg">
<path opacity="0.4" d="M17.8778 20.0902C16.1693 21.3315 14.1117 22 11.9999 22C9.88812 22 7.83054 21.3315 6.12206 20.0902M16.3836 3.01206C18.2817 3.93781 19.838 5.44068 20.8294 7.30528C21.8208 9.16989 22.1965 11.3005 21.9026 13.3917M2.09733 13.3916C1.80343 11.3004 2.17911 9.16979 3.17053 7.30519C4.16196 5.44059 5.71823 3.93771 7.6163 3.01196" stroke="#D1D1D6" stroke-width="2" stroke-linecap="round" stroke-linejoin="round"/>
<path d="M12 17.5C15.0376 17.5 17.5 15.0376 17.5 12C17.5 8.96243 15.0376 6.5 12 6.5C8.96243 6.5 6.5 8.96243 6.5 12C6.5 15.0376 8.96243 17.5 12 17.5Z" stroke="#D1D1D6" stroke-width="2" stroke-linecap="round" stroke-linejoin="round"/>
</svg>
