<svg width="110" height="110" viewBox="0 0 110 110" fill="none" xmlns="http://www.w3.org/2000/svg">
<rect x="0.55" y="0.55" width="108.9" height="108.9" rx="26.95" fill="url(#paint0_linear_118_36)" stroke="url(#paint1_linear_118_36)" stroke-width="1.1"/>
<rect x="9.35005" y="9.35005" width="91.3" height="91.3" stroke="#FCFCFC" stroke-opacity="0.15" stroke-width="1.1"/>
<circle cx="54.4501" cy="55.55" r="45.15" stroke="#FCFCFC" stroke-opacity="0.15"/>
<circle cx="55" cy="55" r="27" stroke="#FCFCFC" stroke-opacity="0.05"/>
<line x1="8.4465" y1="100.846" x2="100.846" y2="8.44641" stroke="#FCFCFC" stroke-opacity="0.02"/>
<line x1="9.1536" y1="8.44643" x2="101.554" y2="100.846" stroke="#FCFCFC" stroke-opacity="0.02"/>
<line x1="1.09998" y1="54.5" x2="110" y2="54.5" stroke="#FCFCFC" stroke-opacity="0.02"/>
<line x1="55.05" y1="109.45" x2="55.05" y2="0.54995" stroke="#FCFCFC" stroke-opacity="0.02"/>
<g style="mix-blend-mode:overlay">
<path d="M50.8166 31.3145L50.8168 31.3144C51.1264 31.0045 51.4759 30.6552 51.8043 30.3764C52.1821 30.0557 52.7324 29.6489 53.4828 29.4051C54.4687 29.0847 55.5308 29.0847 56.5168 29.4051C57.2672 29.6489 57.8174 30.0557 58.1952 30.3764C58.5236 30.6552 58.8732 31.0045 59.1828 31.3144L59.1829 31.3145L77.006 49.1376L77.0062 49.1378C77.316 49.4474 77.6654 49.7969 77.9442 50.1254C78.265 50.5032 78.6717 51.0535 78.9156 51.8039C79.2359 52.7898 79.2359 53.8519 78.9156 54.8379C78.6717 55.5882 78.265 56.1385 77.9442 56.5163C77.6654 56.8447 77.3161 57.1943 77.0062 57.5039L77.0061 57.504L59.183 75.3271L59.1829 75.3273C58.8732 75.6371 58.5237 75.9865 58.1953 76.2653C57.8174 76.5861 57.2672 76.9928 56.5168 77.2366C55.5308 77.557 54.4687 77.557 53.4828 77.2366C52.7324 76.9928 52.1821 76.5861 51.8043 76.2653C51.4759 75.9865 51.1263 75.6372 50.8167 75.3273L50.8166 75.3272L32.9935 57.5041L32.9933 57.5039C32.6835 57.1943 32.3341 56.8448 32.0553 56.5163C31.7346 56.1385 31.3278 55.5883 31.084 54.8379C30.7636 53.8519 30.7636 52.7898 31.084 51.8039C31.3278 51.0535 31.7346 50.5032 32.0553 50.1254C32.3341 49.797 32.6834 49.4475 32.9933 49.1379L32.9934 49.1377L50.8166 31.3145ZM41.8375 19.2822C42.5858 20.8165 41.9486 22.667 40.4143 23.4153C34.0989 26.4955 28.9208 31.496 25.622 37.7001C22.3232 43.9041 21.0732 50.9933 22.0512 57.9514C22.2887 59.6419 21.1109 61.2048 19.4205 61.4424C17.73 61.68 16.167 60.5022 15.9295 58.8118C14.7699 50.5608 16.2521 42.1546 20.1638 34.7979C24.0754 27.4411 30.2156 21.5116 37.7044 17.8591C39.2387 17.1108 41.0891 17.7479 41.8375 19.2822ZM68.1625 19.2822C68.9109 17.7479 70.7613 17.1108 72.2956 17.8591C79.7844 21.5116 85.9246 27.4411 89.8362 34.7979C93.7479 42.1546 95.2301 50.5608 94.0705 58.8117C93.833 60.5022 92.27 61.68 90.5795 61.4424C88.8891 61.2048 87.7113 59.6418 87.9489 57.9514C88.9268 50.9932 87.6768 43.9041 84.378 37.7001C81.0792 31.496 75.9011 26.4955 69.5857 23.4153C68.0514 22.667 67.4142 20.8165 68.1625 19.2822ZM31.1251 80.9241C32.1285 79.543 34.0615 79.2369 35.4425 80.2403C41.1271 84.3704 47.9733 86.5948 54.9998 86.5948C62.0263 86.5948 68.8725 84.3704 74.5571 80.2403C75.9381 79.2369 77.8711 79.543 78.8745 80.9241C79.8779 82.3051 79.5717 84.2381 78.1907 85.2415C71.4499 90.1389 63.3318 92.7766 54.9998 92.7766C46.6678 92.7766 38.5496 90.1389 31.8089 85.2415C30.4279 84.2381 30.1217 82.3051 31.1251 80.9241Z" fill="#DBDBDB" fill-opacity="0.9"/>
<path d="M50.8166 31.3145L50.8168 31.3144C51.1264 31.0045 51.4759 30.6552 51.8043 30.3764C52.1821 30.0557 52.7324 29.6489 53.4828 29.4051C54.4687 29.0847 55.5308 29.0847 56.5168 29.4051C57.2672 29.6489 57.8174 30.0557 58.1952 30.3764C58.5236 30.6552 58.8732 31.0045 59.1828 31.3144L59.1829 31.3145L77.006 49.1376L77.0062 49.1378C77.316 49.4474 77.6654 49.7969 77.9442 50.1254C78.265 50.5032 78.6717 51.0535 78.9156 51.8039C79.2359 52.7898 79.2359 53.8519 78.9156 54.8379C78.6717 55.5882 78.265 56.1385 77.9442 56.5163C77.6654 56.8447 77.3161 57.1943 77.0062 57.5039L77.0061 57.504L59.183 75.3271L59.1829 75.3273C58.8732 75.6371 58.5237 75.9865 58.1953 76.2653C57.8174 76.5861 57.2672 76.9928 56.5168 77.2366C55.5308 77.557 54.4687 77.557 53.4828 77.2366C52.7324 76.9928 52.1821 76.5861 51.8043 76.2653C51.4759 75.9865 51.1263 75.6372 50.8167 75.3273L50.8166 75.3272L32.9935 57.5041L32.9933 57.5039C32.6835 57.1943 32.3341 56.8448 32.0553 56.5163C31.7346 56.1385 31.3278 55.5883 31.084 54.8379C30.7636 53.8519 30.7636 52.7898 31.084 51.8039C31.3278 51.0535 31.7346 50.5032 32.0553 50.1254C32.3341 49.797 32.6834 49.4475 32.9933 49.1379L32.9934 49.1377L50.8166 31.3145ZM41.8375 19.2822C42.5858 20.8165 41.9486 22.667 40.4143 23.4153C34.0989 26.4955 28.9208 31.496 25.622 37.7001C22.3232 43.9041 21.0732 50.9933 22.0512 57.9514C22.2887 59.6419 21.1109 61.2048 19.4205 61.4424C17.73 61.68 16.167 60.5022 15.9295 58.8118C14.7699 50.5608 16.2521 42.1546 20.1638 34.7979C24.0754 27.4411 30.2156 21.5116 37.7044 17.8591C39.2387 17.1108 41.0891 17.7479 41.8375 19.2822ZM68.1625 19.2822C68.9109 17.7479 70.7613 17.1108 72.2956 17.8591C79.7844 21.5116 85.9246 27.4411 89.8362 34.7979C93.7479 42.1546 95.2301 50.5608 94.0705 58.8117C93.833 60.5022 92.27 61.68 90.5795 61.4424C88.8891 61.2048 87.7113 59.6418 87.9489 57.9514C88.9268 50.9932 87.6768 43.9041 84.378 37.7001C81.0792 31.496 75.9011 26.4955 69.5857 23.4153C68.0514 22.667 67.4142 20.8165 68.1625 19.2822ZM31.1251 80.9241C32.1285 79.543 34.0615 79.2369 35.4425 80.2403C41.1271 84.3704 47.9733 86.5948 54.9998 86.5948C62.0263 86.5948 68.8725 84.3704 74.5571 80.2403C75.9381 79.2369 77.8711 79.543 78.8745 80.9241C79.8779 82.3051 79.5717 84.2381 78.1907 85.2415C71.4499 90.1389 63.3318 92.7766 54.9998 92.7766C46.6678 92.7766 38.5496 90.1389 31.8089 85.2415C30.4279 84.2381 30.1217 82.3051 31.1251 80.9241Z" stroke="#FCFCFC" stroke-width="1.09091"/>
</g>
<defs>
<linearGradient id="paint0_linear_118_36" x1="55" y1="0" x2="55" y2="110" gradientUnits="userSpaceOnUse">
<stop stop-color="#8A54FE"/>
<stop offset="1" stop-color="#2A0A6E"/>
</linearGradient>
<linearGradient id="paint1_linear_118_36" x1="55" y1="0" x2="55" y2="110" gradientUnits="userSpaceOnUse">
<stop stop-color="#C2A6FF"/>
<stop offset="1" stop-color="#B08BFF" stop-opacity="0.2"/>
</linearGradient>
</defs>
</svg>
