<svg width="110" height="110" viewBox="0 0 110 110" fill="none" xmlns="http://www.w3.org/2000/svg">
<rect x="0.55" y="0.55" width="108.9" height="108.9" rx="26.95" fill="url(#paint0_linear_374_81)" stroke="url(#paint1_linear_374_81)" stroke-width="1.1"/>
<rect x="9.35005" y="9.35005" width="91.3" height="91.3" stroke="#FCFCFC" stroke-opacity="0.2" stroke-width="1.1"/>
<circle cx="54.4501" cy="55.55" r="45.15" stroke="#FCFCFC" stroke-opacity="0.15"/>
<circle cx="55" cy="55" r="27" stroke="#FCFCFC" stroke-opacity="0.05"/>
<line x1="8.4465" y1="100.846" x2="100.846" y2="8.44641" stroke="#FCFCFC" stroke-opacity="0.05"/>
<line x1="9.1536" y1="8.44637" x2="101.554" y2="100.846" stroke="#FCFCFC" stroke-opacity="0.05"/>
<line x1="1.09998" y1="54.5" x2="110" y2="54.5" stroke="#FCFCFC" stroke-opacity="0.05"/>
<line x1="55.05" y1="109.45" x2="55.05" y2="0.54995" stroke="#FCFCFC" stroke-opacity="0.05"/>
<g style="mix-blend-mode:overlay">
<mask id="path-9-inside-1_374_81" fill="white">
<path d="M59.4637 11C56.138 15.092 50.5097 19.4407 56.6477 28.6513C58.6937 30.954 59.7203 35.8123 59.4637 37.3487C59.4637 37.3487 68.6743 31.9807 63.046 22.2567C59.7203 17.1417 58.184 12.7893 59.4637 11ZM49.2337 20.4673C46.931 23.2797 43.3487 26.0957 47.4407 32.4903C48.724 33.77 49.2337 37.0957 49.2337 38.1187C49.2337 38.1187 55.368 34.5327 51.5327 27.8813C49.23 24.5557 48.2107 21.4903 49.2337 20.4673ZM30.5557 42.4673C29.8778 42.4693 29.2284 42.7397 28.7494 43.2193C28.2704 43.699 28.001 44.3488 28 45.0267C28 53.724 29.2797 83.655 42.069 98.2373C42.5823 98.747 43.0957 99 43.862 99H65.3487C66.1187 99 66.632 98.747 67.1417 98.2373C79.931 83.908 81.2107 53.9807 81.2107 45.0267C81.2097 44.3478 80.9399 43.6971 80.4602 43.2167C79.9806 42.7364 79.3302 42.4656 78.6513 42.4637H54.6053L30.5557 42.4673ZM37.9733 50.3983H71.7433C73.023 50.3983 74.299 51.4177 74.299 52.954C74.299 60.115 73.023 80.3257 64.3257 90.816C63.5557 91.3293 63.0423 91.5787 62.276 91.5787H47.184C46.8483 91.5886 46.5145 91.5255 46.2056 91.3938C45.8967 91.2621 45.62 91.065 45.3947 90.816C36.6973 80.586 35.6707 60.115 35.414 52.954C35.414 51.6707 36.4407 50.3983 37.9733 50.3983ZM70.2107 67.793C70.2107 67.793 69.9503 70.092 63.8123 72.3947C55.368 75.4637 40.5363 73.4213 40.5363 73.4213C41.816 78.793 43.8583 83.908 46.9273 87.747C47.184 88.2603 47.954 88.5133 48.4637 88.5133H61.2567C61.77 88.5133 62.2797 88.2567 62.7893 87.747C67.138 82.632 69.1877 74.701 70.2107 67.793Z"/>
</mask>
<path d="M59.4637 11C56.138 15.092 50.5097 19.4407 56.6477 28.6513C58.6937 30.954 59.7203 35.8123 59.4637 37.3487C59.4637 37.3487 68.6743 31.9807 63.046 22.2567C59.7203 17.1417 58.184 12.7893 59.4637 11ZM49.2337 20.4673C46.931 23.2797 43.3487 26.0957 47.4407 32.4903C48.724 33.77 49.2337 37.0957 49.2337 38.1187C49.2337 38.1187 55.368 34.5327 51.5327 27.8813C49.23 24.5557 48.2107 21.4903 49.2337 20.4673ZM30.5557 42.4673C29.8778 42.4693 29.2284 42.7397 28.7494 43.2193C28.2704 43.699 28.001 44.3488 28 45.0267C28 53.724 29.2797 83.655 42.069 98.2373C42.5823 98.747 43.0957 99 43.862 99H65.3487C66.1187 99 66.632 98.747 67.1417 98.2373C79.931 83.908 81.2107 53.9807 81.2107 45.0267C81.2097 44.3478 80.9399 43.6971 80.4602 43.2167C79.9806 42.7364 79.3302 42.4656 78.6513 42.4637H54.6053L30.5557 42.4673ZM37.9733 50.3983H71.7433C73.023 50.3983 74.299 51.4177 74.299 52.954C74.299 60.115 73.023 80.3257 64.3257 90.816C63.5557 91.3293 63.0423 91.5787 62.276 91.5787H47.184C46.8483 91.5886 46.5145 91.5255 46.2056 91.3938C45.8967 91.2621 45.62 91.065 45.3947 90.816C36.6973 80.586 35.6707 60.115 35.414 52.954C35.414 51.6707 36.4407 50.3983 37.9733 50.3983ZM70.2107 67.793C70.2107 67.793 69.9503 70.092 63.8123 72.3947C55.368 75.4637 40.5363 73.4213 40.5363 73.4213C41.816 78.793 43.8583 83.908 46.9273 87.747C47.184 88.2603 47.954 88.5133 48.4637 88.5133H61.2567C61.77 88.5133 62.2797 88.2567 62.7893 87.747C67.138 82.632 69.1877 74.701 70.2107 67.793Z" fill="#DBDBDB" fill-opacity="0.9"/>
<path d="M59.4637 11C56.138 15.092 50.5097 19.4407 56.6477 28.6513C58.6937 30.954 59.7203 35.8123 59.4637 37.3487C59.4637 37.3487 68.6743 31.9807 63.046 22.2567C59.7203 17.1417 58.184 12.7893 59.4637 11ZM49.2337 20.4673C46.931 23.2797 43.3487 26.0957 47.4407 32.4903C48.724 33.77 49.2337 37.0957 49.2337 38.1187C49.2337 38.1187 55.368 34.5327 51.5327 27.8813C49.23 24.5557 48.2107 21.4903 49.2337 20.4673ZM30.5557 42.4673C29.8778 42.4693 29.2284 42.7397 28.7494 43.2193C28.2704 43.699 28.001 44.3488 28 45.0267C28 53.724 29.2797 83.655 42.069 98.2373C42.5823 98.747 43.0957 99 43.862 99H65.3487C66.1187 99 66.632 98.747 67.1417 98.2373C79.931 83.908 81.2107 53.9807 81.2107 45.0267C81.2097 44.3478 80.9399 43.6971 80.4602 43.2167C79.9806 42.7364 79.3302 42.4656 78.6513 42.4637H54.6053L30.5557 42.4673ZM37.9733 50.3983H71.7433C73.023 50.3983 74.299 51.4177 74.299 52.954C74.299 60.115 73.023 80.3257 64.3257 90.816C63.5557 91.3293 63.0423 91.5787 62.276 91.5787H47.184C46.8483 91.5886 46.5145 91.5255 46.2056 91.3938C45.8967 91.2621 45.62 91.065 45.3947 90.816C36.6973 80.586 35.6707 60.115 35.414 52.954C35.414 51.6707 36.4407 50.3983 37.9733 50.3983ZM70.2107 67.793C70.2107 67.793 69.9503 70.092 63.8123 72.3947C55.368 75.4637 40.5363 73.4213 40.5363 73.4213C41.816 78.793 43.8583 83.908 46.9273 87.747C47.184 88.2603 47.954 88.5133 48.4637 88.5133H61.2567C61.77 88.5133 62.2797 88.2567 62.7893 87.747C67.138 82.632 69.1877 74.701 70.2107 67.793Z" stroke="#FCFCFC" stroke-width="2.2" mask="url(#path-9-inside-1_374_81)"/>
</g>
<defs>
<linearGradient id="paint0_linear_374_81" x1="55" y1="0" x2="55" y2="110" gradientUnits="userSpaceOnUse">
<stop stop-color="#BE8759"/>
<stop offset="1" stop-color="#573F2A"/>
</linearGradient>
<linearGradient id="paint1_linear_374_81" x1="55" y1="0" x2="55" y2="110" gradientUnits="userSpaceOnUse">
<stop stop-color="#CAA180"/>
<stop offset="1" stop-color="#CAA180" stop-opacity="0.2"/>
</linearGradient>
</defs>
</svg>
