<svg width="24" height="24" viewBox="0 0 24 24" fill="none" xmlns="http://www.w3.org/2000/svg">
<path d="M13.325 0C12.418 1.116 10.883 2.302 12.557 4.814C13.115 5.442 13.395 6.767 13.325 7.186C13.325 7.186 15.837 5.722 14.302 3.07C13.395 1.675 12.976 0.488 13.325 0ZM10.535 2.582C9.907 3.349 8.93 4.117 10.046 5.861C10.396 6.21 10.535 7.117 10.535 7.396C10.535 7.396 12.208 6.418 11.162 4.604C10.534 3.697 10.256 2.861 10.535 2.582ZM5.441 8.582C5.25614 8.58253 5.07901 8.65627 4.94838 8.78708C4.81775 8.9179 4.74427 9.09513 4.744 9.28C4.744 11.652 5.093 19.815 8.581 23.792C8.721 23.931 8.861 24 9.07 24H14.93C15.14 24 15.28 23.931 15.419 23.792C18.907 19.884 19.256 11.722 19.256 9.28C19.2557 9.09487 19.1821 8.91738 19.0513 8.78638C18.9205 8.65537 18.7431 8.58153 18.558 8.581H12L5.441 8.582ZM7.464 10.745H16.674C17.023 10.745 17.371 11.023 17.371 11.442C17.371 13.395 17.023 18.907 14.651 21.768C14.441 21.908 14.301 21.976 14.092 21.976H9.976C9.88446 21.9787 9.79342 21.9615 9.70916 21.9256C9.62491 21.8897 9.54945 21.8359 9.488 21.768C7.116 18.978 6.836 13.395 6.766 11.442C6.766 11.092 7.046 10.745 7.464 10.745ZM16.256 15.489C16.256 15.489 16.185 16.116 14.511 16.744C12.208 17.581 8.163 17.024 8.163 17.024C8.512 18.489 9.069 19.884 9.906 20.931C9.976 21.071 10.186 21.14 10.325 21.14H13.814C13.954 21.14 14.093 21.07 14.232 20.931C15.418 19.536 15.977 17.373 16.256 15.489Z" fill="white"/>
</svg>
