<svg width="110" height="110" viewBox="0 0 110 110" fill="none" xmlns="http://www.w3.org/2000/svg">
<g clip-path="url(#clip0_152_536)">
<path d="M82.6487 1.43689H28.1442C13.3942 1.43689 1.43701 13.3941 1.43701 28.1441V82.6486C1.43701 97.3986 13.3942 109.356 28.1442 109.356H82.6487C97.3987 109.356 109.356 97.3986 109.356 82.6486V28.1441C109.356 13.3941 97.3987 1.43689 82.6487 1.43689Z" stroke="#383A41" stroke-width="1.09009"/>
<path d="M100.635 10.1577H10.1577V100.635H100.635V10.1577Z" stroke="#383A41" stroke-width="1.09009"/>
<path d="M54.8514 100.635C79.5351 100.635 99.5451 80.6251 99.5451 55.9415C99.5451 31.2578 79.5351 11.2478 54.8514 11.2478C30.1678 11.2478 10.1577 31.2578 10.1577 55.9415C10.1577 80.6251 30.1678 100.635 54.8514 100.635Z" stroke="#383A41" stroke-width="1.09009"/>
<path d="M55.3964 82.1036C70.1464 82.1036 82.1036 70.1464 82.1036 55.3964C82.1036 40.6464 70.1464 28.6892 55.3964 28.6892C40.6464 28.6892 28.6892 40.6464 28.6892 55.3964C28.6892 70.1464 40.6464 82.1036 55.3964 82.1036Z" stroke="#383A41" stroke-width="1.09009"/>
<path d="M9.22729 100.795L100.795 9.22717" stroke="#383A41" stroke-width="1.09009"/>
<path d="M9.99805 9.22717L101.566 100.795" stroke="#383A41" stroke-width="1.09009"/>
<path d="M1.98193 54.8513H109.901" stroke="#383A41" stroke-width="1.09009"/>
<path d="M55.3965 109.356V1.43689" stroke="#383A41" stroke-width="1.09009"/>
<mask id="path-9-inside-1_152_536" fill="white">
<path d="M15.061 78.3769C12.9432 77.1654 11.8916 75.5661 11.8916 73.9717L12.0031 36.971C11.9982 35.3863 13.0353 33.8113 15.1192 32.6095L47.8213 13.7093C51.9987 11.2862 58.793 11.2862 62.9947 13.7093L95.91 32.6095C98.1587 33.918 99.2009 35.619 99.0552 37.3103C99.0588 37.2725 99.0657 37.2252 99.073 37.1755C99.0851 37.0936 99.0983 37.0046 99.0988 36.9411L98.9437 74.0589V74.1559C98.9437 74.1958 98.9394 74.224 98.9338 74.2598C98.9293 74.2891 98.9239 74.3238 98.9195 74.374C98.9186 74.3841 98.9176 74.3942 98.9165 74.4044L98.9142 74.4229L98.9116 74.4416C98.9085 74.4636 98.9051 74.4857 98.9017 74.5077C98.8912 74.5745 98.8807 74.6414 98.8807 74.7083C98.8783 74.7277 98.8783 74.7472 98.8807 74.7665C98.8726 74.8075 98.8628 74.8378 98.8507 74.8754C98.847 74.8866 98.8432 74.8985 98.8392 74.9115L98.8327 74.9322C98.8281 74.9477 98.823 74.965 98.8178 74.9846C98.8111 75.0088 98.8048 75.0331 98.7984 75.0574C98.777 75.1387 98.7553 75.2217 98.7256 75.2996C98.7256 75.3079 98.7285 75.3105 98.7312 75.313C98.7365 75.318 98.7417 75.3227 98.7256 75.3674C98.7133 75.402 98.7022 75.4227 98.6878 75.4495C98.6741 75.4753 98.6573 75.5067 98.6335 75.5613C98.5851 75.6727 98.5366 75.7843 98.4784 75.8956C98.4397 75.9199 98.4397 75.949 98.4397 75.9732C98.3669 76.1015 98.2877 76.226 98.2023 76.3463L98.1489 76.4191L98.0084 76.6129L97.8 76.8552L97.7274 76.9376C97.6062 77.0685 97.4802 77.1993 97.3396 77.3252L97.2767 77.3786L96.9471 77.65C96.922 77.6703 96.8983 77.6897 96.8751 77.7089C96.8045 77.767 96.7379 77.8218 96.6466 77.8874C96.5255 77.9746 96.3558 78.0861 96.2589 78.1443C96.2105 78.1733 96.1657 78.2048 96.1208 78.2364C96.076 78.2679 96.0312 78.2994 95.9827 78.3284L95.8518 78.406L63.1498 97.3158C62.9074 97.4516 62.6748 97.5775 62.4228 97.6987L62.229 97.7908C62.0254 97.8926 61.7783 97.9895 61.5408 98.0815L61.4488 98.1154C61.2355 98.1979 61.0174 98.2754 60.7994 98.3481L60.1257 98.5371L59.7041 98.6486C59.5103 98.6971 59.3116 98.7358 59.1129 98.7745C59.0734 98.7828 59.0345 98.7938 58.9958 98.8048C58.9204 98.8261 58.8456 98.8473 58.7688 98.8473H58.7058C58.3084 98.9199 57.9013 98.9732 57.4894 99.0168H57.1066L56.3845 99.0653H54.8386L54.2958 99.0363H54.0535L53.7966 99.0071C53.6173 98.9927 53.4429 98.9732 53.2635 98.9491C53.1811 98.9199 53.0939 98.9199 53.0116 98.9199L52.2168 98.7843L51.9502 98.7358C51.923 98.7316 51.8966 98.7229 51.8709 98.7143C51.837 98.7031 51.804 98.6922 51.771 98.6922C51.5431 98.6437 51.3251 98.5904 51.1021 98.5323L50.826 98.4644L50.6757 98.4159L50.4479 98.3481C50.2299 98.2802 50.0118 98.2027 49.7985 98.1252L49.6095 98.0573L49.5223 98.0282L49.0377 97.815L48.7614 97.6987C48.4901 97.5678 48.2284 97.4321 47.9764 97.2868L15.061 78.3769Z"/>
</mask>
<path d="M15.061 78.3769C12.9432 77.1654 11.8916 75.5661 11.8916 73.9717L12.0031 36.971C11.9982 35.3863 13.0353 33.8113 15.1192 32.6095L47.8213 13.7093C51.9987 11.2862 58.793 11.2862 62.9947 13.7093L95.91 32.6095C98.1587 33.918 99.2009 35.619 99.0552 37.3103C99.0588 37.2725 99.0657 37.2252 99.073 37.1755C99.0851 37.0936 99.0983 37.0046 99.0988 36.9411L98.9437 74.0589V74.1559C98.9437 74.1958 98.9394 74.224 98.9338 74.2598C98.9293 74.2891 98.9239 74.3238 98.9195 74.374C98.9186 74.3841 98.9176 74.3942 98.9165 74.4044L98.9142 74.4229L98.9116 74.4416C98.9085 74.4636 98.9051 74.4857 98.9017 74.5077C98.8912 74.5745 98.8807 74.6414 98.8807 74.7083C98.8783 74.7277 98.8783 74.7472 98.8807 74.7665C98.8726 74.8075 98.8628 74.8378 98.8507 74.8754C98.847 74.8866 98.8432 74.8985 98.8392 74.9115L98.8327 74.9322C98.8281 74.9477 98.823 74.965 98.8178 74.9846C98.8111 75.0088 98.8048 75.0331 98.7984 75.0574C98.777 75.1387 98.7553 75.2217 98.7256 75.2996C98.7256 75.3079 98.7285 75.3105 98.7312 75.313C98.7365 75.318 98.7417 75.3227 98.7256 75.3674C98.7133 75.402 98.7022 75.4227 98.6878 75.4495C98.6741 75.4753 98.6573 75.5067 98.6335 75.5613C98.5851 75.6727 98.5366 75.7843 98.4784 75.8956C98.4397 75.9199 98.4397 75.949 98.4397 75.9732C98.3669 76.1015 98.2877 76.226 98.2023 76.3463L98.1489 76.4191L98.0084 76.6129L97.8 76.8552L97.7274 76.9376C97.6062 77.0685 97.4802 77.1993 97.3396 77.3252L97.2767 77.3786L96.9471 77.65C96.922 77.6703 96.8983 77.6897 96.8751 77.7089C96.8045 77.767 96.7379 77.8218 96.6466 77.8874C96.5255 77.9746 96.3558 78.0861 96.2589 78.1443C96.2105 78.1733 96.1657 78.2048 96.1208 78.2364C96.076 78.2679 96.0312 78.2994 95.9827 78.3284L95.8518 78.406L63.1498 97.3158C62.9074 97.4516 62.6748 97.5775 62.4228 97.6987L62.229 97.7908C62.0254 97.8926 61.7783 97.9895 61.5408 98.0815L61.4488 98.1154C61.2355 98.1979 61.0174 98.2754 60.7994 98.3481L60.1257 98.5371L59.7041 98.6486C59.5103 98.6971 59.3116 98.7358 59.1129 98.7745C59.0734 98.7828 59.0345 98.7938 58.9958 98.8048C58.9204 98.8261 58.8456 98.8473 58.7688 98.8473H58.7058C58.3084 98.9199 57.9013 98.9732 57.4894 99.0168H57.1066L56.3845 99.0653H54.8386L54.2958 99.0363H54.0535L53.7966 99.0071C53.6173 98.9927 53.4429 98.9732 53.2635 98.9491C53.1811 98.9199 53.0939 98.9199 53.0116 98.9199L52.2168 98.7843L51.9502 98.7358C51.923 98.7316 51.8966 98.7229 51.8709 98.7143C51.837 98.7031 51.804 98.6922 51.771 98.6922C51.5431 98.6437 51.3251 98.5904 51.1021 98.5323L50.826 98.4644L50.6757 98.4159L50.4479 98.3481C50.2299 98.2802 50.0118 98.2027 49.7985 98.1252L49.6095 98.0573L49.5223 98.0282L49.0377 97.815L48.7614 97.6987C48.4901 97.5678 48.2284 97.4321 47.9764 97.2868L15.061 78.3769Z" stroke="white" stroke-width="5" mask="url(#path-9-inside-1_152_536)"/>
</g>
<defs>
<clipPath id="clip0_152_536">
<rect width="110" height="110" fill="white"/>
</clipPath>
</defs>
</svg>
