<svg width="80" height="77" viewBox="0 0 80 77" fill="none" xmlns="http://www.w3.org/2000/svg">
<g style="mix-blend-mode:overlay">
<path d="M35.8166 14.3145L35.8168 14.3144C36.1264 14.0045 36.4759 13.6552 36.8043 13.3764C37.1821 13.0557 37.7324 12.6489 38.4828 12.4051C39.4687 12.0847 40.5308 12.0847 41.5168 12.4051C42.2672 12.6489 42.8174 13.0557 43.1952 13.3764C43.5236 13.6552 43.8732 14.0045 44.1828 14.3144L44.1829 14.3145L62.006 32.1376L62.0062 32.1378C62.316 32.4474 62.6654 32.7969 62.9442 33.1254C63.265 33.5032 63.6717 34.0535 63.9156 34.8039C64.2359 35.7898 64.2359 36.8519 63.9156 37.8379C63.6717 38.5882 63.265 39.1385 62.9442 39.5163C62.6654 39.8447 62.3161 40.1943 62.0062 40.5039L62.0061 40.504L44.183 58.3271L44.1829 58.3273C43.8732 58.6371 43.5237 58.9865 43.1953 59.2653C42.8174 59.5861 42.2672 59.9928 41.5168 60.2366C40.5308 60.557 39.4687 60.557 38.4828 60.2366C37.7324 59.9928 37.1821 59.5861 36.8043 59.2653C36.4759 58.9865 36.1263 58.6372 35.8167 58.3273L35.8166 58.3272L17.9935 40.5041L17.9933 40.5039C17.6835 40.1943 17.3341 39.8448 17.0553 39.5163C16.7346 39.1385 16.3278 38.5883 16.084 37.8379C15.7636 36.8519 15.7636 35.7898 16.084 34.8039C16.3278 34.0535 16.7346 33.5032 17.0553 33.1254C17.3341 32.797 17.6834 32.4475 17.9933 32.1379L17.9934 32.1377L35.8166 14.3145ZM26.8375 2.28223C27.5858 3.81653 26.9486 5.66697 25.4143 6.4153C19.0989 9.49553 13.9208 14.496 10.622 20.7001C7.32325 26.9041 6.07325 33.9933 7.05115 40.9514C7.28873 42.6419 6.11094 44.2048 4.42049 44.4424C2.73003 44.68 1.16705 43.5022 0.929472 41.8118C-0.230121 33.5608 1.25212 25.1546 5.16377 17.7979C9.07541 10.4411 15.2156 4.51161 22.7044 0.8591C24.2387 0.110771 26.0891 0.747928 26.8375 2.28223ZM53.1625 2.28223C53.9109 0.747928 55.7613 0.110771 57.2956 0.8591C64.7844 4.51161 70.9246 10.4411 74.8362 17.7979C78.7479 25.1546 80.2301 33.5608 79.0705 41.8117C78.833 43.5022 77.27 44.68 75.5795 44.4424C73.8891 44.2048 72.7113 42.6418 72.9489 40.9514C73.9268 33.9932 72.6768 26.9041 69.378 20.7001C66.0792 14.496 60.9011 9.49552 54.5857 6.4153C53.0514 5.66697 52.4142 3.81653 53.1625 2.28223ZM16.1251 63.9241C17.1285 62.543 19.0615 62.2369 20.4425 63.2403C26.1271 67.3704 32.9733 69.5948 39.9998 69.5948C47.0263 69.5948 53.8725 67.3704 59.5571 63.2403C60.9381 62.2369 62.8711 62.543 63.8745 63.9241C64.8779 65.3051 64.5717 67.2381 63.1907 68.2415C56.4499 73.1389 48.3318 75.7766 39.9998 75.7766C31.6678 75.7766 23.5496 73.1389 16.8089 68.2415C15.4279 67.2381 15.1217 65.3051 16.1251 63.9241Z" fill="#DBDBDB"/>
<path d="M35.8166 14.3145L35.8168 14.3144C36.1264 14.0045 36.4759 13.6552 36.8043 13.3764C37.1821 13.0557 37.7324 12.6489 38.4828 12.4051C39.4687 12.0847 40.5308 12.0847 41.5168 12.4051C42.2672 12.6489 42.8174 13.0557 43.1952 13.3764C43.5236 13.6552 43.8732 14.0045 44.1828 14.3144L44.1829 14.3145L62.006 32.1376L62.0062 32.1378C62.316 32.4474 62.6654 32.7969 62.9442 33.1254C63.265 33.5032 63.6717 34.0535 63.9156 34.8039C64.2359 35.7898 64.2359 36.8519 63.9156 37.8379C63.6717 38.5882 63.265 39.1385 62.9442 39.5163C62.6654 39.8447 62.3161 40.1943 62.0062 40.5039L62.0061 40.504L44.183 58.3271L44.1829 58.3273C43.8732 58.6371 43.5237 58.9865 43.1953 59.2653C42.8174 59.5861 42.2672 59.9928 41.5168 60.2366C40.5308 60.557 39.4687 60.557 38.4828 60.2366C37.7324 59.9928 37.1821 59.5861 36.8043 59.2653C36.4759 58.9865 36.1263 58.6372 35.8167 58.3273L35.8166 58.3272L17.9935 40.5041L17.9933 40.5039C17.6835 40.1943 17.3341 39.8448 17.0553 39.5163C16.7346 39.1385 16.3278 38.5883 16.084 37.8379C15.7636 36.8519 15.7636 35.7898 16.084 34.8039C16.3278 34.0535 16.7346 33.5032 17.0553 33.1254C17.3341 32.797 17.6834 32.4475 17.9933 32.1379L17.9934 32.1377L35.8166 14.3145ZM26.8375 2.28223C27.5858 3.81653 26.9486 5.66697 25.4143 6.4153C19.0989 9.49553 13.9208 14.496 10.622 20.7001C7.32325 26.9041 6.07325 33.9933 7.05115 40.9514C7.28873 42.6419 6.11094 44.2048 4.42049 44.4424C2.73003 44.68 1.16705 43.5022 0.929472 41.8118C-0.230121 33.5608 1.25212 25.1546 5.16377 17.7979C9.07541 10.4411 15.2156 4.51161 22.7044 0.8591C24.2387 0.110771 26.0891 0.747928 26.8375 2.28223ZM53.1625 2.28223C53.9109 0.747928 55.7613 0.110771 57.2956 0.8591C64.7844 4.51161 70.9246 10.4411 74.8362 17.7979C78.7479 25.1546 80.2301 33.5608 79.0705 41.8117C78.833 43.5022 77.27 44.68 75.5795 44.4424C73.8891 44.2048 72.7113 42.6418 72.9489 40.9514C73.9268 33.9932 72.6768 26.9041 69.378 20.7001C66.0792 14.496 60.9011 9.49552 54.5857 6.4153C53.0514 5.66697 52.4142 3.81653 53.1625 2.28223ZM16.1251 63.9241C17.1285 62.543 19.0615 62.2369 20.4425 63.2403C26.1271 67.3704 32.9733 69.5948 39.9998 69.5948C47.0263 69.5948 53.8725 67.3704 59.5571 63.2403C60.9381 62.2369 62.8711 62.543 63.8745 63.9241C64.8779 65.3051 64.5717 67.2381 63.1907 68.2415C56.4499 73.1389 48.3318 75.7766 39.9998 75.7766C31.6678 75.7766 23.5496 73.1389 16.8089 68.2415C15.4279 67.2381 15.1217 65.3051 16.1251 63.9241Z" stroke="#FCFCFC" stroke-width="1.09091"/>
</g>
</svg>
