<svg width="91" height="103" viewBox="0 0 91 103" fill="none" xmlns="http://www.w3.org/2000/svg">
<path d="M0.01 65.4344C0.0033987 65.4502 0 65.4672 0 65.4844C0 65.5015 0.0033987 65.5185 0.01 65.5344C0.58 66.0544 6.72 71.5344 10.39 69.9644C14.26 68.3344 11.94 64.6844 30.47 62.6544C30.71 62.6544 49.21 64.1844 50.15 50.6544C50.1482 50.6339 50.1526 50.6134 50.1628 50.5956C50.173 50.5779 50.1885 50.5636 50.207 50.5549C50.2256 50.5462 50.2464 50.5434 50.2666 50.5468C50.2868 50.5503 50.3054 50.5599 50.32 50.5744C51.61 51.5744 59.95 58.3044 52.09 65.0744C44.7 71.4744 34.92 80.3444 33.86 99.0044C33.8211 99.6206 34.0108 100.23 34.3927 100.715C34.7746 101.2 35.3219 101.527 35.93 101.634C45.6328 103.263 55.5893 102.431 64.8873 99.2149C74.1853 95.9985 82.5276 90.5005 89.15 83.2244C89.6457 82.6664 89.9536 81.9668 90.03 81.2244C91.2 71.9444 89.92 59.3944 81.46 44.3244C81.46 44.3244 78.46 40.3244 90.15 34.2644C90.1691 34.2556 90.1854 34.2415 90.1968 34.2238C90.2081 34.206 90.2142 34.1854 90.2142 34.1644C90.2142 34.1433 90.2081 34.1227 90.1968 34.105C90.1854 34.0872 90.1691 34.0731 90.15 34.0644C88.63 33.2544 78.59 27.3744 84.42 17.7044C84.4313 17.6872 84.4375 17.6672 84.438 17.6467C84.4385 17.6262 84.4332 17.606 84.4228 17.5883C84.4124 17.5706 84.3973 17.5562 84.3791 17.5467C84.3609 17.5371 84.3405 17.5329 84.32 17.5344C82.52 17.7144 70.32 18.4044 72.88 4.53436C72.8865 4.51023 72.8847 4.48458 72.8747 4.46166C72.8647 4.43873 72.8472 4.41989 72.8251 4.40824C72.8029 4.3966 72.7775 4.39284 72.7529 4.39758C72.7284 4.40233 72.7062 4.41531 72.69 4.43436C71.01 6.39436 61.82 15.7244 53.48 0.0643638C53.4694 0.0411689 53.4511 0.0223675 53.4282 0.0111732C53.4053 -2.10563e-05 53.3792 -0.0029131 53.3544 0.00299144C53.3296 0.00889597 53.3077 0.0232305 53.2923 0.0435447C53.2769 0.0638589 53.269 0.0888916 53.27 0.114364C53.16 2.35436 43.58 12.1144 35.52 13.4944C35.52 13.4944 30.12 13.9044 27.42 25.2644C27.42 25.7044 26.74 40.9244 6.59 57.3344C4.92052 58.0526 3.44989 59.1646 2.30397 60.5752C1.15804 61.9859 0.370938 63.6531 0.01 65.4344ZM35.47 29.1944C36.42 25.2944 39.1 19.5244 46.33 25.1944C46.5165 25.3482 46.6666 25.5414 46.7697 25.7601C46.8728 25.9788 46.9263 26.2176 46.9263 26.4594C46.9263 26.7011 46.8728 26.9399 46.7697 27.1586C46.6666 27.3773 46.5165 27.5705 46.33 27.7244C46.2116 27.8185 46.0748 27.8867 45.9284 27.9246C45.7819 27.9625 45.6292 27.9693 45.48 27.9444C44.062 27.638 42.5856 27.7477 41.2285 28.2604C39.8714 28.7731 38.6912 29.6669 37.83 30.8344C37.7385 30.9579 37.6215 31.0602 37.4869 31.1344C37.3523 31.2086 37.2033 31.2529 37.05 31.2644C36.7982 31.264 36.5498 31.2056 36.3242 31.0937C36.0986 30.9819 35.9018 30.8196 35.749 30.6194C35.5962 30.4192 35.4916 30.1866 35.4432 29.9394C35.3948 29.6923 35.404 29.4374 35.47 29.1944Z" fill="#FF858B"/>
</svg>
