<svg width="20" height="20" viewBox="0 0 20 20" fill="none" xmlns="http://www.w3.org/2000/svg">
<path fill-rule="evenodd" clip-rule="evenodd" d="M8.33333 1.66666C4.65143 1.66666 1.66667 4.65142 1.66667 8.33332C1.66667 12.0152 4.65143 15 8.33333 15C9.87393 15 11.2925 14.4774 12.4214 13.5999L16.9107 18.0892C17.2362 18.4147 17.7638 18.4147 18.0893 18.0892C18.4147 17.7638 18.4147 17.2362 18.0893 16.9107L13.5999 12.4214C14.4774 11.2925 15 9.87392 15 8.33332C15 4.65142 12.0152 1.66666 8.33333 1.66666ZM3.33333 8.33332C3.33333 5.5719 5.57191 3.33332 8.33333 3.33332C11.0948 3.33332 13.3333 5.5719 13.3333 8.33332C13.3333 11.0947 11.0948 13.3333 8.33333 13.3333C5.57191 13.3333 3.33333 11.0947 3.33333 8.33332Z" fill="#A0A0AB"/>
</svg>
