<svg width="80" height="70" viewBox="0 0 80 70" fill="none" xmlns="http://www.w3.org/2000/svg">
<g style="mix-blend-mode:overlay">
<mask id="path-1-inside-1_112_156" fill="white">
<path d="M79.5881 54.9878L66.3816 68.7937C66.0945 69.0936 65.7471 69.3327 65.3611 69.4962C64.9751 69.6596 64.5588 69.7438 64.138 69.7436H1.53317C1.23445 69.7436 0.942233 69.6585 0.692437 69.4989C0.442637 69.3392 0.24613 69.1119 0.127062 68.8448C0.0079939 68.5778 -0.02845 68.2826 0.0222085 67.9957C0.0728668 67.7087 0.20842 67.4424 0.412215 67.2295L13.6286 53.4236C13.9149 53.1245 14.2611 52.8859 14.6459 52.7225C15.0306 52.5591 15.4457 52.4744 15.8654 52.4737H78.4668C78.7655 52.4737 79.0577 52.5589 79.3077 52.7185C79.5572 52.8782 79.7536 53.1055 79.8732 53.3726C79.992 53.6396 80.0285 53.9347 79.9778 54.2217C79.9271 54.5087 79.7916 54.775 79.5881 54.9878ZM66.3816 27.1867C66.0945 26.8868 65.7471 26.6477 65.3611 26.4843C64.9751 26.3209 64.5588 26.2367 64.138 26.2369H1.53317C1.23445 26.2369 0.942233 26.3219 0.692437 26.4816C0.442637 26.6413 0.24613 26.8686 0.127062 27.1356C0.0079939 27.4027 -0.02845 27.6979 0.0222085 27.9849C0.0728668 28.2718 0.20842 28.538 0.412215 28.751L13.6286 42.5569C13.9149 42.856 14.2611 43.0946 14.6459 43.258C15.0306 43.4213 15.4457 43.5061 15.8654 43.5067H78.4668C78.7655 43.5067 79.0577 43.4216 79.3077 43.262C79.5572 43.1023 79.7536 42.875 79.8732 42.6079C79.992 42.3409 80.0285 42.0457 79.9778 41.7587C79.9271 41.4718 79.7916 41.2055 79.5881 40.9926L66.3816 27.1867ZM1.53317 17.2699H64.138C64.5588 17.27 64.9751 17.1859 65.3611 17.0224C65.7471 16.859 66.0945 16.6199 66.3816 16.32L79.5881 2.51409C79.7916 2.3012 79.9271 2.03491 79.9778 1.74795C80.0285 1.46099 79.992 1.16585 79.8732 0.898805C79.7536 0.631758 79.5572 0.40443 79.3077 0.244755C79.0577 0.0850785 78.7655 9.83337e-06 78.4668 0H15.8654C15.4457 0.000696165 15.0306 0.0853558 14.6459 0.248737C14.2611 0.41212 13.9149 0.650745 13.6286 0.949844L0.415622 14.7558C0.212024 14.9684 0.0765305 15.2345 0.0257572 15.521C-0.0250161 15.8077 0.0111385 16.1026 0.129787 16.3695C0.248435 16.6365 0.44442 16.8638 0.693706 17.0237C0.942993 17.1836 1.23474 17.2691 1.53317 17.2699Z"/>
</mask>
<path d="M79.5881 54.9878L66.3816 68.7937C66.0945 69.0936 65.7471 69.3327 65.3611 69.4962C64.9751 69.6596 64.5588 69.7438 64.138 69.7436H1.53317C1.23445 69.7436 0.942233 69.6585 0.692437 69.4989C0.442637 69.3392 0.24613 69.1119 0.127062 68.8448C0.0079939 68.5778 -0.02845 68.2826 0.0222085 67.9957C0.0728668 67.7087 0.20842 67.4424 0.412215 67.2295L13.6286 53.4236C13.9149 53.1245 14.2611 52.8859 14.6459 52.7225C15.0306 52.5591 15.4457 52.4744 15.8654 52.4737H78.4668C78.7655 52.4737 79.0577 52.5589 79.3077 52.7185C79.5572 52.8782 79.7536 53.1055 79.8732 53.3726C79.992 53.6396 80.0285 53.9347 79.9778 54.2217C79.9271 54.5087 79.7916 54.775 79.5881 54.9878ZM66.3816 27.1867C66.0945 26.8868 65.7471 26.6477 65.3611 26.4843C64.9751 26.3209 64.5588 26.2367 64.138 26.2369H1.53317C1.23445 26.2369 0.942233 26.3219 0.692437 26.4816C0.442637 26.6413 0.24613 26.8686 0.127062 27.1356C0.0079939 27.4027 -0.02845 27.6979 0.0222085 27.9849C0.0728668 28.2718 0.20842 28.538 0.412215 28.751L13.6286 42.5569C13.9149 42.856 14.2611 43.0946 14.6459 43.258C15.0306 43.4213 15.4457 43.5061 15.8654 43.5067H78.4668C78.7655 43.5067 79.0577 43.4216 79.3077 43.262C79.5572 43.1023 79.7536 42.875 79.8732 42.6079C79.992 42.3409 80.0285 42.0457 79.9778 41.7587C79.9271 41.4718 79.7916 41.2055 79.5881 40.9926L66.3816 27.1867ZM1.53317 17.2699H64.138C64.5588 17.27 64.9751 17.1859 65.3611 17.0224C65.7471 16.859 66.0945 16.6199 66.3816 16.32L79.5881 2.51409C79.7916 2.3012 79.9271 2.03491 79.9778 1.74795C80.0285 1.46099 79.992 1.16585 79.8732 0.898805C79.7536 0.631758 79.5572 0.40443 79.3077 0.244755C79.0577 0.0850785 78.7655 9.83337e-06 78.4668 0H15.8654C15.4457 0.000696165 15.0306 0.0853558 14.6459 0.248737C14.2611 0.41212 13.9149 0.650745 13.6286 0.949844L0.415622 14.7558C0.212024 14.9684 0.0765305 15.2345 0.0257572 15.521C-0.0250161 15.8077 0.0111385 16.1026 0.129787 16.3695C0.248435 16.6365 0.44442 16.8638 0.693706 17.0237C0.942993 17.1836 1.23474 17.2691 1.53317 17.2699Z" fill="#DBDBDB" fill-opacity="0.9"/>
<path d="M79.5881 54.9878L66.3816 68.7937C66.0945 69.0936 65.7471 69.3327 65.3611 69.4962C64.9751 69.6596 64.5588 69.7438 64.138 69.7436H1.53317C1.23445 69.7436 0.942233 69.6585 0.692437 69.4989C0.442637 69.3392 0.24613 69.1119 0.127062 68.8448C0.0079939 68.5778 -0.02845 68.2826 0.0222085 67.9957C0.0728668 67.7087 0.20842 67.4424 0.412215 67.2295L13.6286 53.4236C13.9149 53.1245 14.2611 52.8859 14.6459 52.7225C15.0306 52.5591 15.4457 52.4744 15.8654 52.4737H78.4668C78.7655 52.4737 79.0577 52.5589 79.3077 52.7185C79.5572 52.8782 79.7536 53.1055 79.8732 53.3726C79.992 53.6396 80.0285 53.9347 79.9778 54.2217C79.9271 54.5087 79.7916 54.775 79.5881 54.9878ZM66.3816 27.1867C66.0945 26.8868 65.7471 26.6477 65.3611 26.4843C64.9751 26.3209 64.5588 26.2367 64.138 26.2369H1.53317C1.23445 26.2369 0.942233 26.3219 0.692437 26.4816C0.442637 26.6413 0.24613 26.8686 0.127062 27.1356C0.0079939 27.4027 -0.02845 27.6979 0.0222085 27.9849C0.0728668 28.2718 0.20842 28.538 0.412215 28.751L13.6286 42.5569C13.9149 42.856 14.2611 43.0946 14.6459 43.258C15.0306 43.4213 15.4457 43.5061 15.8654 43.5067H78.4668C78.7655 43.5067 79.0577 43.4216 79.3077 43.262C79.5572 43.1023 79.7536 42.875 79.8732 42.6079C79.992 42.3409 80.0285 42.0457 79.9778 41.7587C79.9271 41.4718 79.7916 41.2055 79.5881 40.9926L66.3816 27.1867ZM1.53317 17.2699H64.138C64.5588 17.27 64.9751 17.1859 65.3611 17.0224C65.7471 16.859 66.0945 16.6199 66.3816 16.32L79.5881 2.51409C79.7916 2.3012 79.9271 2.03491 79.9778 1.74795C80.0285 1.46099 79.992 1.16585 79.8732 0.898805C79.7536 0.631758 79.5572 0.40443 79.3077 0.244755C79.0577 0.0850785 78.7655 9.83337e-06 78.4668 0H15.8654C15.4457 0.000696165 15.0306 0.0853558 14.6459 0.248737C14.2611 0.41212 13.9149 0.650745 13.6286 0.949844L0.415622 14.7558C0.212024 14.9684 0.0765305 15.2345 0.0257572 15.521C-0.0250161 15.8077 0.0111385 16.1026 0.129787 16.3695C0.248435 16.6365 0.44442 16.8638 0.693706 17.0237C0.942993 17.1836 1.23474 17.2691 1.53317 17.2699Z" stroke="#FCFCFC" stroke-width="2" mask="url(#path-1-inside-1_112_156)"/>
</g>
</svg>
