<svg width="32" height="32" viewBox="0 0 32 32" fill="none" xmlns="http://www.w3.org/2000/svg">
<rect width="32" height="32" rx="7" fill="#9549FD" fill-opacity="0.1"/>
<rect x="0.5" y="0.5" width="31" height="31" rx="6.5" stroke="url(#paint0_linear_293_64)" stroke-opacity="0.4"/>
<path d="M23.9176 19.9329L21.2763 22.6778C21.2189 22.7374 21.1494 22.785 21.0722 22.8175C20.995 22.85 20.9118 22.8667 20.8276 22.8667H8.30663C8.24689 22.8667 8.18845 22.8497 8.13849 22.818C8.08853 22.7863 8.04923 22.7411 8.02541 22.688C8.0016 22.6349 7.99431 22.5762 8.00444 22.5191C8.01457 22.4621 8.04168 22.4091 8.08244 22.3668L10.7257 19.6219C10.783 19.5624 10.8522 19.515 10.9292 19.4825C11.0061 19.45 11.0891 19.4332 11.1731 19.433H23.6934C23.7531 19.433 23.8115 19.4499 23.8615 19.4817C23.9114 19.5134 23.9507 19.5586 23.9747 19.6117C23.9984 19.6648 24.0057 19.7235 23.9956 19.7805C23.9854 19.8376 23.9583 19.8905 23.9176 19.9329ZM21.2763 14.4054C21.2189 14.3457 21.1494 14.2982 21.0722 14.2657C20.995 14.2332 20.9118 14.2165 20.8276 14.2165H8.30663C8.24689 14.2165 8.18845 14.2334 8.13849 14.2652C8.08853 14.2969 8.04923 14.3421 8.02541 14.3952C8.0016 14.4483 7.99431 14.507 8.00444 14.564C8.01457 14.6211 8.04168 14.674 8.08244 14.7164L10.7257 17.4613C10.783 17.5208 10.8522 17.5682 10.9292 17.6007C11.0061 17.6332 11.0891 17.65 11.1731 17.6502H23.6934C23.7531 17.6502 23.8115 17.6332 23.8615 17.6015C23.9114 17.5697 23.9507 17.5245 23.9747 17.4715C23.9984 17.4184 24.0057 17.3597 23.9956 17.3026C23.9854 17.2456 23.9583 17.1926 23.9176 17.1503L21.2763 14.4054ZM8.30663 12.4337H20.8276C20.9118 12.4337 20.995 12.417 21.0722 12.3845C21.1494 12.352 21.2189 12.3044 21.2763 12.2448L23.9176 9.49986C23.9583 9.45753 23.9854 9.40459 23.9956 9.34753C24.0057 9.29048 23.9984 9.2318 23.9747 9.1787C23.9507 9.12561 23.9114 9.08041 23.8615 9.04866C23.8115 9.01692 23.7531 9 23.6934 9H11.1731C11.0891 9.00014 11.0061 9.01697 10.9292 9.04945C10.8522 9.08194 10.783 9.12938 10.7257 9.18885L8.08312 11.9338C8.0424 11.9761 8.01531 12.029 8.00515 12.0859C7.995 12.1429 8.00223 12.2016 8.02596 12.2546C8.04969 12.3077 8.08888 12.3529 8.13874 12.3847C8.1886 12.4165 8.24695 12.4335 8.30663 12.4337Z" fill="url(#paint1_linear_293_64)"/>
<defs>
<linearGradient id="paint0_linear_293_64" x1="16" y1="0" x2="16" y2="32" gradientUnits="userSpaceOnUse">
<stop stop-color="#914BFA"/>
<stop offset="1" stop-color="#1AFB9B"/>
</linearGradient>
<linearGradient id="paint1_linear_293_64" x1="9.35059" y1="23.1971" x2="22.0204" y2="8.45806" gradientUnits="userSpaceOnUse">
<stop offset="0.08" stop-color="#9945FF"/>
<stop offset="0.3" stop-color="#8752F3"/>
<stop offset="0.5" stop-color="#5497D5"/>
<stop offset="0.6" stop-color="#43B4CA"/>
<stop offset="0.72" stop-color="#28E0B9"/>
<stop offset="0.97" stop-color="#19FB9B"/>
</linearGradient>
</defs>
</svg>
