<svg width="110" height="110" viewBox="0 0 110 110" fill="none" xmlns="http://www.w3.org/2000/svg">
<rect x="0.55" y="0.55" width="108.9" height="108.9" rx="26.95" fill="url(#paint0_linear_351_63)" stroke="url(#paint1_linear_351_63)" stroke-width="1.1"/>
<rect x="9.35005" y="9.34999" width="91.3" height="91.3" stroke="#FCFCFC" stroke-opacity="0.2" stroke-width="1.1"/>
<circle cx="54.4501" cy="55.55" r="45.15" stroke="#FCFCFC" stroke-opacity="0.15"/>
<circle cx="55" cy="55" r="27" stroke="#FCFCFC" stroke-opacity="0.05"/>
<line x1="8.4465" y1="100.846" x2="100.846" y2="8.44641" stroke="#FCFCFC" stroke-opacity="0.05"/>
<line x1="9.1536" y1="8.44643" x2="101.554" y2="100.846" stroke="#FCFCFC" stroke-opacity="0.05"/>
<line x1="1.09998" y1="54.5" x2="110" y2="54.5" stroke="#FCFCFC" stroke-opacity="0.05"/>
<line x1="55.05" y1="109.45" x2="55.05" y2="0.54995" stroke="#FCFCFC" stroke-opacity="0.05"/>
<g style="mix-blend-mode:overlay">
<mask id="path-9-inside-1_351_63" fill="white">
<path d="M95.5881 74.9878L82.3816 88.7937C82.0945 89.0936 81.7471 89.3327 81.3611 89.4962C80.9752 89.6596 80.5588 89.7438 80.138 89.7436H17.5332C17.2344 89.7436 16.9422 89.6585 16.6924 89.4989C16.4426 89.3392 16.2461 89.1119 16.1271 88.8448C16.008 88.5778 15.9716 88.2826 16.0222 87.9957C16.0729 87.7087 16.2084 87.4424 16.4122 87.2295L29.6286 73.4236C29.9149 73.1245 30.2611 72.8859 30.6459 72.7225C31.0306 72.5591 31.4457 72.4744 31.8654 72.4737H94.4668C94.7655 72.4737 95.0577 72.5589 95.3077 72.7185C95.5572 72.8782 95.7536 73.1055 95.8732 73.3726C95.992 73.6396 96.0285 73.9347 95.9778 74.2217C95.9271 74.5087 95.7916 74.775 95.5881 74.9878ZM82.3816 47.1867C82.0945 46.8868 81.7471 46.6477 81.3611 46.4843C80.9752 46.3209 80.5588 46.2367 80.138 46.2369H17.5332C17.2344 46.2369 16.9422 46.3219 16.6924 46.4816C16.4426 46.6413 16.2461 46.8686 16.1271 47.1356C16.008 47.4027 15.9716 47.6979 16.0222 47.9849C16.0729 48.2718 16.2084 48.538 16.4122 48.751L29.6286 62.5569C29.9149 62.856 30.2611 63.0946 30.6459 63.258C31.0306 63.4213 31.4457 63.5061 31.8654 63.5067H94.4668C94.7655 63.5067 95.0577 63.4216 95.3077 63.262C95.5572 63.1023 95.7536 62.875 95.8732 62.6079C95.992 62.3409 96.0285 62.0457 95.9778 61.7587C95.9271 61.4718 95.7916 61.2055 95.5881 60.9926L82.3816 47.1867ZM17.5332 37.2699H80.138C80.5588 37.27 80.9752 37.1859 81.3611 37.0224C81.7471 36.859 82.0945 36.6199 82.3816 36.32L95.5881 22.5141C95.7916 22.3012 95.9271 22.0349 95.9778 21.7479C96.0285 21.461 95.992 21.1659 95.8732 20.8988C95.7536 20.6318 95.5572 20.4044 95.3077 20.2448C95.0577 20.0851 94.7655 20 94.4668 20H31.8654C31.4457 20.0007 31.0306 20.0854 30.6459 20.2487C30.2611 20.4121 29.9149 20.6507 29.6286 20.9498L16.4156 34.7558C16.212 34.9684 16.0765 35.2345 16.0258 35.521C15.975 35.8077 16.0111 36.1026 16.1298 36.3695C16.2484 36.6365 16.4444 36.8638 16.6937 37.0237C16.943 37.1836 17.2347 37.2691 17.5332 37.2699Z"/>
</mask>
<path d="M95.5881 74.9878L82.3816 88.7937C82.0945 89.0936 81.7471 89.3327 81.3611 89.4962C80.9752 89.6596 80.5588 89.7438 80.138 89.7436H17.5332C17.2344 89.7436 16.9422 89.6585 16.6924 89.4989C16.4426 89.3392 16.2461 89.1119 16.1271 88.8448C16.008 88.5778 15.9716 88.2826 16.0222 87.9957C16.0729 87.7087 16.2084 87.4424 16.4122 87.2295L29.6286 73.4236C29.9149 73.1245 30.2611 72.8859 30.6459 72.7225C31.0306 72.5591 31.4457 72.4744 31.8654 72.4737H94.4668C94.7655 72.4737 95.0577 72.5589 95.3077 72.7185C95.5572 72.8782 95.7536 73.1055 95.8732 73.3726C95.992 73.6396 96.0285 73.9347 95.9778 74.2217C95.9271 74.5087 95.7916 74.775 95.5881 74.9878ZM82.3816 47.1867C82.0945 46.8868 81.7471 46.6477 81.3611 46.4843C80.9752 46.3209 80.5588 46.2367 80.138 46.2369H17.5332C17.2344 46.2369 16.9422 46.3219 16.6924 46.4816C16.4426 46.6413 16.2461 46.8686 16.1271 47.1356C16.008 47.4027 15.9716 47.6979 16.0222 47.9849C16.0729 48.2718 16.2084 48.538 16.4122 48.751L29.6286 62.5569C29.9149 62.856 30.2611 63.0946 30.6459 63.258C31.0306 63.4213 31.4457 63.5061 31.8654 63.5067H94.4668C94.7655 63.5067 95.0577 63.4216 95.3077 63.262C95.5572 63.1023 95.7536 62.875 95.8732 62.6079C95.992 62.3409 96.0285 62.0457 95.9778 61.7587C95.9271 61.4718 95.7916 61.2055 95.5881 60.9926L82.3816 47.1867ZM17.5332 37.2699H80.138C80.5588 37.27 80.9752 37.1859 81.3611 37.0224C81.7471 36.859 82.0945 36.6199 82.3816 36.32L95.5881 22.5141C95.7916 22.3012 95.9271 22.0349 95.9778 21.7479C96.0285 21.461 95.992 21.1659 95.8732 20.8988C95.7536 20.6318 95.5572 20.4044 95.3077 20.2448C95.0577 20.0851 94.7655 20 94.4668 20H31.8654C31.4457 20.0007 31.0306 20.0854 30.6459 20.2487C30.2611 20.4121 29.9149 20.6507 29.6286 20.9498L16.4156 34.7558C16.212 34.9684 16.0765 35.2345 16.0258 35.521C15.975 35.8077 16.0111 36.1026 16.1298 36.3695C16.2484 36.6365 16.4444 36.8638 16.6937 37.0237C16.943 37.1836 17.2347 37.2691 17.5332 37.2699Z" fill="#DBDBDB" fill-opacity="0.9"/>
<path d="M95.5881 74.9878L82.3816 88.7937C82.0945 89.0936 81.7471 89.3327 81.3611 89.4962C80.9752 89.6596 80.5588 89.7438 80.138 89.7436H17.5332C17.2344 89.7436 16.9422 89.6585 16.6924 89.4989C16.4426 89.3392 16.2461 89.1119 16.1271 88.8448C16.008 88.5778 15.9716 88.2826 16.0222 87.9957C16.0729 87.7087 16.2084 87.4424 16.4122 87.2295L29.6286 73.4236C29.9149 73.1245 30.2611 72.8859 30.6459 72.7225C31.0306 72.5591 31.4457 72.4744 31.8654 72.4737H94.4668C94.7655 72.4737 95.0577 72.5589 95.3077 72.7185C95.5572 72.8782 95.7536 73.1055 95.8732 73.3726C95.992 73.6396 96.0285 73.9347 95.9778 74.2217C95.9271 74.5087 95.7916 74.775 95.5881 74.9878ZM82.3816 47.1867C82.0945 46.8868 81.7471 46.6477 81.3611 46.4843C80.9752 46.3209 80.5588 46.2367 80.138 46.2369H17.5332C17.2344 46.2369 16.9422 46.3219 16.6924 46.4816C16.4426 46.6413 16.2461 46.8686 16.1271 47.1356C16.008 47.4027 15.9716 47.6979 16.0222 47.9849C16.0729 48.2718 16.2084 48.538 16.4122 48.751L29.6286 62.5569C29.9149 62.856 30.2611 63.0946 30.6459 63.258C31.0306 63.4213 31.4457 63.5061 31.8654 63.5067H94.4668C94.7655 63.5067 95.0577 63.4216 95.3077 63.262C95.5572 63.1023 95.7536 62.875 95.8732 62.6079C95.992 62.3409 96.0285 62.0457 95.9778 61.7587C95.9271 61.4718 95.7916 61.2055 95.5881 60.9926L82.3816 47.1867ZM17.5332 37.2699H80.138C80.5588 37.27 80.9752 37.1859 81.3611 37.0224C81.7471 36.859 82.0945 36.6199 82.3816 36.32L95.5881 22.5141C95.7916 22.3012 95.9271 22.0349 95.9778 21.7479C96.0285 21.461 95.992 21.1659 95.8732 20.8988C95.7536 20.6318 95.5572 20.4044 95.3077 20.2448C95.0577 20.0851 94.7655 20 94.4668 20H31.8654C31.4457 20.0007 31.0306 20.0854 30.6459 20.2487C30.2611 20.4121 29.9149 20.6507 29.6286 20.9498L16.4156 34.7558C16.212 34.9684 16.0765 35.2345 16.0258 35.521C15.975 35.8077 16.0111 36.1026 16.1298 36.3695C16.2484 36.6365 16.4444 36.8638 16.6937 37.0237C16.943 37.1836 17.2347 37.2691 17.5332 37.2699Z" stroke="#FCFCFC" stroke-width="2" mask="url(#path-9-inside-1_351_63)"/>
</g>
<defs>
<linearGradient id="paint0_linear_351_63" x1="55" y1="0" x2="55" y2="110" gradientUnits="userSpaceOnUse">
<stop stop-color="#00A880"/>
<stop offset="1" stop-color="#005340"/>
</linearGradient>
<linearGradient id="paint1_linear_351_63" x1="55" y1="0" x2="55" y2="110" gradientUnits="userSpaceOnUse">
<stop stop-color="#00FFC2"/>
<stop offset="1" stop-color="#00FFC2" stop-opacity="0.2"/>
</linearGradient>
</defs>
</svg>
