<svg width="80" height="77" viewBox="0 0 80 77" fill="none" xmlns="http://www.w3.org/2000/svg">
<g style="mix-blend-mode:overlay">
<path d="M26.8375 2.28223C27.5858 3.81653 26.9486 5.66697 25.4143 6.4153C19.0989 9.49553 13.9208 14.496 10.622 20.7001C7.32325 26.9042 6.07325 33.9933 7.05115 40.9514C7.28873 42.6419 6.11094 44.2049 4.42049 44.4425C2.73003 44.68 1.16705 43.5022 0.929472 41.8118C-0.230121 33.5609 1.25212 25.1546 5.16377 17.7979C9.07541 10.4412 15.2156 4.51161 22.7044 0.8591C24.2387 0.11077 26.0891 0.747928 26.8375 2.28223ZM53.1625 2.28223C53.9109 0.747928 55.7613 0.11077 57.2956 0.8591C64.7844 4.51161 70.9246 10.4412 74.8362 17.7979C78.7479 25.1546 80.2301 33.5608 79.0705 41.8118C78.833 43.5022 77.27 44.68 75.5795 44.4424C73.8891 44.2049 72.7113 42.6419 72.9489 40.9514C73.9268 33.9933 72.6768 26.9041 69.378 20.7001C66.0792 14.496 60.9011 9.49553 54.5857 6.4153C53.0514 5.66697 52.4142 3.81653 53.1625 2.28223ZM16.1251 63.9241C17.1285 62.5431 19.0615 62.2369 20.4425 63.2403C26.1271 67.3704 32.9733 69.5949 39.9998 69.5949C47.0263 69.5949 53.8725 67.3704 59.5571 63.2403C60.9381 62.2369 62.8711 62.5431 63.8745 63.9241C64.8779 65.3052 64.5717 67.2381 63.1907 68.2415C56.4499 73.139 48.3318 75.7767 39.9998 75.7767C31.6678 75.7767 23.5496 73.139 16.8089 68.2415C15.4279 67.2381 15.1217 65.3052 16.1251 63.9241ZM16.9088 36.3212C16.9088 23.5684 27.247 13.2302 39.9998 13.2302C52.7526 13.2302 63.0908 23.5684 63.0908 36.3212C63.0908 49.074 52.7526 59.4122 39.9998 59.4122C27.247 59.4122 16.9088 49.074 16.9088 36.3212Z" fill="#DBDBDB" fill-opacity="0.9"/>
<path d="M26.8375 2.28223C27.5858 3.81653 26.9486 5.66697 25.4143 6.4153C19.0989 9.49553 13.9208 14.496 10.622 20.7001C7.32325 26.9042 6.07325 33.9933 7.05115 40.9514C7.28873 42.6419 6.11094 44.2049 4.42049 44.4425C2.73003 44.68 1.16705 43.5022 0.929472 41.8118C-0.230121 33.5609 1.25212 25.1546 5.16377 17.7979C9.07541 10.4412 15.2156 4.51161 22.7044 0.8591C24.2387 0.11077 26.0891 0.747928 26.8375 2.28223ZM53.1625 2.28223C53.9109 0.747928 55.7613 0.11077 57.2956 0.8591C64.7844 4.51161 70.9246 10.4412 74.8362 17.7979C78.7479 25.1546 80.2301 33.5608 79.0705 41.8118C78.833 43.5022 77.27 44.68 75.5795 44.4424C73.8891 44.2049 72.7113 42.6419 72.9489 40.9514C73.9268 33.9933 72.6768 26.9041 69.378 20.7001C66.0792 14.496 60.9011 9.49553 54.5857 6.4153C53.0514 5.66697 52.4142 3.81653 53.1625 2.28223ZM16.1251 63.9241C17.1285 62.5431 19.0615 62.2369 20.4425 63.2403C26.1271 67.3704 32.9733 69.5949 39.9998 69.5949C47.0263 69.5949 53.8725 67.3704 59.5571 63.2403C60.9381 62.2369 62.8711 62.5431 63.8745 63.9241C64.8779 65.3052 64.5717 67.2381 63.1907 68.2415C56.4499 73.139 48.3318 75.7767 39.9998 75.7767C31.6678 75.7767 23.5496 73.139 16.8089 68.2415C15.4279 67.2381 15.1217 65.3052 16.1251 63.9241ZM16.9088 36.3212C16.9088 23.5684 27.247 13.2302 39.9998 13.2302C52.7526 13.2302 63.0908 23.5684 63.0908 36.3212C63.0908 49.074 52.7526 59.4122 39.9998 59.4122C27.247 59.4122 16.9088 49.074 16.9088 36.3212Z" stroke="#FCFCFC" stroke-width="1.09091"/>
</g>
</svg>
