<svg width="110" height="110" viewBox="0 0 110 110" fill="none" xmlns="http://www.w3.org/2000/svg">
<rect x="0.55" y="0.55" width="108.9" height="108.9" rx="26.95" fill="url(#paint0_linear_118_56)" stroke="url(#paint1_linear_118_56)" stroke-width="1.1"/>
<rect x="9.35005" y="9.34999" width="91.3" height="91.3" stroke="#FCFCFC" stroke-opacity="0.2" stroke-width="1.1"/>
<circle cx="54.4501" cy="55.55" r="45.15" stroke="#FCFCFC" stroke-opacity="0.15"/>
<circle cx="55" cy="55" r="27" stroke="#FCFCFC" stroke-opacity="0.05"/>
<line x1="8.4465" y1="100.846" x2="100.846" y2="8.44641" stroke="#FCFCFC" stroke-opacity="0.05"/>
<line x1="9.1536" y1="8.44643" x2="101.554" y2="100.846" stroke="#FCFCFC" stroke-opacity="0.05"/>
<line x1="1.09998" y1="54.5" x2="110" y2="54.5" stroke="#FCFCFC" stroke-opacity="0.05"/>
<line x1="55.05" y1="109.45" x2="55.05" y2="0.54995" stroke="#FCFCFC" stroke-opacity="0.05"/>
<g style="mix-blend-mode:overlay">
<path d="M42.8375 19.2822C43.5858 20.8165 42.9486 22.667 41.4143 23.4153C35.0989 26.4955 29.9208 31.496 26.622 37.7001C23.3232 43.9042 22.0732 50.9933 23.0512 57.9514C23.2887 59.6419 22.1109 61.2049 20.4205 61.4425C18.73 61.68 17.1671 60.5022 16.9295 58.8118C15.7699 50.5609 17.2521 42.1546 21.1638 34.7979C25.0754 27.4412 31.2156 21.5116 38.7044 17.8591C40.2387 17.1108 42.0891 17.7479 42.8375 19.2822ZM69.1625 19.2822C69.9109 17.7479 71.7613 17.1108 73.2956 17.8591C80.7844 21.5116 86.9246 27.4412 90.8362 34.7979C94.7479 42.1546 96.2301 50.5608 95.0705 58.8118C94.833 60.5022 93.27 61.68 91.5795 61.4424C89.8891 61.2049 88.7113 59.6419 88.9489 57.9514C89.9268 50.9933 88.6768 43.9041 85.378 37.7001C82.0792 31.496 76.9011 26.4955 70.5857 23.4153C69.0514 22.667 68.4142 20.8165 69.1625 19.2822ZM32.1251 80.9241C33.1285 79.5431 35.0615 79.2369 36.4425 80.2403C42.1271 84.3704 48.9733 86.5949 55.9998 86.5949C63.0263 86.5949 69.8725 84.3704 75.5571 80.2403C76.9381 79.2369 78.8711 79.5431 79.8745 80.9241C80.8779 82.3052 80.5717 84.2381 79.1907 85.2415C72.4499 90.139 64.3318 92.7767 55.9998 92.7767C47.6678 92.7767 39.5496 90.139 32.8089 85.2415C31.4279 84.2381 31.1217 82.3052 32.1251 80.9241ZM32.9088 53.3212C32.9088 40.5684 43.247 30.2302 55.9998 30.2302C68.7526 30.2302 79.0908 40.5684 79.0908 53.3212C79.0908 66.074 68.7526 76.4122 55.9998 76.4122C43.247 76.4122 32.9088 66.074 32.9088 53.3212Z" fill="#DBDBDB" fill-opacity="0.9"/>
<path d="M42.8375 19.2822C43.5858 20.8165 42.9486 22.667 41.4143 23.4153C35.0989 26.4955 29.9208 31.496 26.622 37.7001C23.3232 43.9042 22.0732 50.9933 23.0512 57.9514C23.2887 59.6419 22.1109 61.2049 20.4205 61.4425C18.73 61.68 17.1671 60.5022 16.9295 58.8118C15.7699 50.5609 17.2521 42.1546 21.1638 34.7979C25.0754 27.4412 31.2156 21.5116 38.7044 17.8591C40.2387 17.1108 42.0891 17.7479 42.8375 19.2822ZM69.1625 19.2822C69.9109 17.7479 71.7613 17.1108 73.2956 17.8591C80.7844 21.5116 86.9246 27.4412 90.8362 34.7979C94.7479 42.1546 96.2301 50.5608 95.0705 58.8118C94.833 60.5022 93.27 61.68 91.5795 61.4424C89.8891 61.2049 88.7113 59.6419 88.9489 57.9514C89.9268 50.9933 88.6768 43.9041 85.378 37.7001C82.0792 31.496 76.9011 26.4955 70.5857 23.4153C69.0514 22.667 68.4142 20.8165 69.1625 19.2822ZM32.1251 80.9241C33.1285 79.5431 35.0615 79.2369 36.4425 80.2403C42.1271 84.3704 48.9733 86.5949 55.9998 86.5949C63.0263 86.5949 69.8725 84.3704 75.5571 80.2403C76.9381 79.2369 78.8711 79.5431 79.8745 80.9241C80.8779 82.3052 80.5717 84.2381 79.1907 85.2415C72.4499 90.139 64.3318 92.7767 55.9998 92.7767C47.6678 92.7767 39.5496 90.139 32.8089 85.2415C31.4279 84.2381 31.1217 82.3052 32.1251 80.9241ZM32.9088 53.3212C32.9088 40.5684 43.247 30.2302 55.9998 30.2302C68.7526 30.2302 79.0908 40.5684 79.0908 53.3212C79.0908 66.074 68.7526 76.4122 55.9998 76.4122C43.247 76.4122 32.9088 66.074 32.9088 53.3212Z" stroke="#FCFCFC" stroke-width="1.09091"/>
</g>
<defs>
<linearGradient id="paint0_linear_118_56" x1="55" y1="0" x2="55" y2="110" gradientUnits="userSpaceOnUse">
<stop stop-color="#FFBE41"/>
<stop offset="1" stop-color="#604819"/>
</linearGradient>
<linearGradient id="paint1_linear_118_56" x1="55" y1="0" x2="55" y2="110" gradientUnits="userSpaceOnUse">
<stop stop-color="#FFDC8F"/>
<stop offset="1" stop-color="#FFDC8F" stop-opacity="0.2"/>
</linearGradient>
</defs>
</svg>
