<svg width="32" height="32" viewBox="0 0 32 32" fill="none" xmlns="http://www.w3.org/2000/svg">
<rect x="0.5" y="0.5" width="31" height="31" rx="6.5" fill="#2775CA" fill-opacity="0.1" stroke="#2775CA"/>
<g clip-path="url(#clip0_293_64)">
<path d="M16 24C20.4334 24 24 20.4334 24 16C24 11.5666 20.4334 8 16 8C11.5666 8 8 11.5666 8 16C8 20.4334 11.5666 24 16 24Z" fill="#2775CA"/>
<path d="M18.2 17.2667C18.2 16.1 17.5 15.7 16.1 15.5334C15.1 15.4 14.9 15.1334 14.9 14.6667C14.9 14.1999 15.2334 13.9 15.9 13.9C16.5 13.9 16.8334 14.1 17 14.6C17.0334 14.7 17.1334 14.7667 17.2334 14.7667H17.7666C17.9 14.7667 18 14.6667 18 14.5334V14.5C17.8666 13.7667 17.2666 13.2 16.5 13.1334V12.3334C16.5 12.2 16.4 12.1 16.2334 12.0667H15.7334C15.6 12.0667 15.5 12.1667 15.4666 12.3334V13.1C14.4666 13.2334 13.8334 13.9 13.8334 14.7334C13.8334 15.8334 14.5 16.2667 15.9 16.4334C16.8334 16.6 17.1334 16.8 17.1334 17.3334C17.1334 17.8667 16.6666 18.2334 16.0334 18.2334C15.1666 18.2334 14.8666 17.8667 14.7666 17.3667C14.7334 17.2334 14.6334 17.1667 14.5334 17.1667H13.9666C13.8334 17.1667 13.7334 17.2667 13.7334 17.4V17.4334C13.8666 18.2667 14.4 18.8667 15.5 19.0334V19.8334C15.5 19.9667 15.6 20.0667 15.7666 20.1H16.2666C16.4 20.1 16.5 20 16.5334 19.8334V19.0334C17.5334 18.8667 18.2 18.1667 18.2 17.2667Z" fill="white"/>
<path d="M14.3 20.7667C11.7 19.8334 10.3666 16.9334 11.3334 14.3667C11.8334 12.9667 12.9334 11.9 14.3 11.4C14.4334 11.3334 14.5 11.2334 14.5 11.0667V10.6C14.5 10.4667 14.4334 10.3667 14.3 10.3334C14.2666 10.3334 14.2 10.3334 14.1666 10.3667C11 11.3667 9.26663 14.7334 10.2666 17.9C10.8666 19.7667 12.3 21.2 14.1666 21.8C14.3 21.8667 14.4334 21.8 14.4666 21.6667C14.5 21.6334 14.5 21.6 14.5 21.5334V21.0667C14.5 20.9667 14.4 20.8334 14.3 20.7667ZM17.8334 10.3667C17.7 10.3 17.5666 10.3667 17.5334 10.5C17.5 10.5334 17.5 10.5667 17.5 10.6334V11.1C17.5 11.2334 17.6 11.3667 17.7 11.4334C20.3 12.3667 21.6334 15.2667 20.6666 17.8334C20.1666 19.2334 19.0666 20.3 17.7 20.8C17.5666 20.8667 17.5 20.9667 17.5 21.1334V21.6C17.5 21.7334 17.5666 21.8334 17.7 21.8667C17.7334 21.8667 17.8 21.8667 17.8334 21.8334C21 20.8334 22.7334 17.4667 21.7334 14.3C21.1334 12.4 19.6666 10.9667 17.8334 10.3667Z" fill="white"/>
</g>
<defs>
<clipPath id="clip0_293_64">
<rect width="16" height="16" fill="white" transform="translate(8 8)"/>
</clipPath>
</defs>
</svg>
